<svg width="16" height="16" viewBox="0 0 16 16" fill="none" xmlns="http://www.w3.org/2000/svg">
<path d="M7.99992 1.33398C4.31659 1.33398 1.33325 4.31732 1.33325 8.00065C1.3325 9.40017 1.77246 10.7644 2.59073 11.8998C3.409 13.0351 4.56402 13.884 5.89192 14.326C6.22525 14.384 6.34992 14.184 6.34992 14.0087C6.34992 13.8507 6.34125 13.326 6.34125 12.7673C4.66659 13.076 4.23325 12.3593 4.09992 11.984C4.02459 11.792 3.69992 11.2007 3.41659 11.042C3.18325 10.9173 2.84992 10.6087 3.40792 10.6007C3.93325 10.592 4.30792 11.084 4.43325 11.284C5.03325 12.292 5.99192 12.0087 6.37459 11.834C6.43325 11.4007 6.60792 11.1093 6.79992 10.9427C5.31659 10.776 3.76659 10.2007 3.76659 7.65065C3.76659 6.92532 4.02459 6.32598 4.44992 5.85865C4.38325 5.69198 4.14992 5.00865 4.51659 4.09198C4.51659 4.09198 5.07459 3.91732 6.34992 4.77598C6.89263 4.62536 7.45336 4.54955 8.01659 4.55065C8.58325 4.55065 9.14992 4.62532 9.68325 4.77532C10.9579 3.90865 11.5166 4.09265 11.5166 4.09265C11.8833 5.00932 11.6499 5.69265 11.5833 5.85932C12.0079 6.32598 12.2666 6.91732 12.2666 7.65065C12.2666 10.2093 10.7086 10.776 9.22525 10.9427C9.46659 11.1507 9.67525 11.5507 9.67525 12.176C9.67525 13.0673 9.66659 13.784 9.66659 14.0093C9.66659 14.184 9.79192 14.392 10.1253 14.3253C11.4486 13.8785 12.5985 13.028 13.4132 11.8934C14.2278 10.7589 14.6662 9.3974 14.6666 8.00065C14.6666 4.31732 11.6833 1.33398 7.99992 1.33398Z" fill="#49494D"/>
</svg>
