<svg width="16" height="16" viewBox="0 0 16 16" fill="none" xmlns="http://www.w3.org/2000/svg">
<path d="M14.6365 3.95241C14.1369 4.17514 13.6071 4.31961 13.0654 4.38582C13.6372 4.04271 14.0646 3.50697 14.2693 2.87491C13.7396 3.18191 13.1557 3.40463 12.5296 3.53104C11.6869 2.62811 10.3385 2.40539 9.24296 2.98928C8.1474 3.57318 7.58758 4.81923 7.8705 6.02314C5.60714 5.91479 3.59059 4.81923 2.24221 3.16987C2.00142 3.59124 1.86899 4.06679 1.87501 4.54835C1.87501 5.49944 2.35658 6.33014 3.09096 6.82375C2.65756 6.81171 2.23017 6.69132 1.85093 6.48063V6.51675C1.85093 7.81697 2.76591 8.93661 4.04206 9.19545C3.63874 9.30381 3.22339 9.32187 2.81406 9.24361C3.17524 10.3572 4.19856 11.1217 5.37238 11.1398C4.40323 11.8982 3.21136 12.3076 1.98336 12.3076C1.76666 12.3076 1.54996 12.2955 1.33325 12.2715C2.58532 13.0721 4.04206 13.4994 5.52889 13.4994C10.5552 13.4994 13.3062 9.3339 13.3062 5.72819C13.3062 5.61381 13.3062 5.49342 13.3001 5.37905C13.8359 4.9938 14.2994 4.51223 14.6666 3.96445L14.6365 3.95241Z" fill="#A041FF"/>
</svg>
