<svg width="185" height="60" viewBox="0 0 185 60" fill="none" xmlns="http://www.w3.org/2000/svg">
<path d="M81.9804 21.9073C82.2669 22.1979 82.6098 22.4265 82.9879 22.5791C83.366 22.7317 83.7712 22.8051 84.1786 22.7946C84.5858 22.8049 84.9907 22.7315 85.3685 22.5789C85.7462 22.4263 86.0888 22.1978 86.3751 21.9073C86.6618 21.6173 86.8881 21.2729 87.0407 20.8942C87.1932 20.5155 87.2691 20.1102 87.2638 19.7019C87.2738 19.2934 87.2001 18.8873 87.0473 18.5086C86.8944 18.1298 86.6656 17.7866 86.3751 17.5001C86.0946 17.1992 85.7541 16.961 85.3756 16.8009C84.9972 16.6408 84.5893 16.5625 84.1786 16.571C83.7677 16.5622 83.3595 16.6404 82.9807 16.8005C82.6019 16.9606 82.2611 17.199 81.9804 17.5001C81.6901 17.7867 81.4616 18.13 81.309 18.5087C81.1565 18.8875 81.0831 19.2936 81.0935 19.7019C81.0879 20.1101 81.1634 20.5154 81.3157 20.894C81.4679 21.2727 81.6939 21.6172 81.9804 21.9073Z" fill="white"/>
<path d="M81.4362 24.9095C81.3837 24.9666 81.3432 25.0336 81.317 25.1067C81.2909 25.1798 81.2796 25.2574 81.2839 25.3349V43.1168C81.2795 43.1943 81.2907 43.2719 81.3169 43.345C81.343 43.4181 81.3836 43.4852 81.4362 43.5422C81.4929 43.5954 81.5597 43.6366 81.6326 43.6632C81.7056 43.6897 81.7832 43.7012 81.8607 43.6968H86.4875C86.565 43.7012 86.6425 43.6897 86.7155 43.6632C86.7884 43.6366 86.8553 43.5954 86.9119 43.5422C86.9651 43.4856 87.0063 43.4186 87.0328 43.3455C87.0593 43.2723 87.0706 43.1945 87.066 43.1168V25.3349C87.0704 25.2573 87.059 25.1795 87.0325 25.1064C87.006 25.0332 86.965 24.9662 86.9119 24.9095C86.8549 24.8568 86.788 24.8162 86.7151 24.79C86.6422 24.7637 86.5648 24.7524 86.4875 24.7568H81.8643C81.7869 24.7524 81.7095 24.7637 81.6366 24.79C81.5637 24.8162 81.4968 24.8568 81.4399 24.9095" fill="white"/>
<path fill-rule="evenodd" clip-rule="evenodd" d="M130.501 30.1546C131.239 29.581 132.151 29.2804 133.084 29.3037C133.994 29.2807 134.882 29.5822 135.591 30.1546C136.285 30.6953 136.722 31.4934 136.902 32.5492H129.112C129.319 31.4946 129.782 30.6965 130.501 30.1546ZM141.761 35.6819C141.941 35.2953 142.03 34.6771 142.029 33.8274C142.046 32.184 141.662 30.5613 140.912 29.1001C140.192 27.6853 139.098 26.4956 137.751 25.6601C136.335 24.7968 134.703 24.3553 133.046 24.3874C131.324 24.3665 129.63 24.8213 128.149 25.7019C126.697 26.5388 125.497 27.7538 124.677 29.2183C123.85 30.7348 123.425 32.439 123.444 34.1674C123.424 35.8999 123.862 37.6067 124.714 39.1146C125.552 40.6004 126.778 41.8297 128.259 42.671C129.851 43.5608 131.648 44.0148 133.47 43.9874C134.775 43.9997 136.07 43.7525 137.279 43.2601C138.476 42.7526 139.563 42.0172 140.48 41.0946C140.548 41.0367 140.603 40.9659 140.643 40.8863C140.683 40.8067 140.707 40.7199 140.712 40.631C140.714 40.5594 140.701 40.4882 140.675 40.4216C140.648 40.3551 140.609 40.2946 140.558 40.2437L138.563 38.3128C138.457 38.1829 138.305 38.0994 138.139 38.0801C137.983 38.0799 137.832 38.1346 137.713 38.2346C137.139 38.6138 136.517 38.9129 135.863 39.1237C135.271 39.282 134.661 39.3602 134.049 39.3565C132.765 39.3565 131.698 39.0989 130.849 38.5837C130.02 38.0325 129.429 37.1887 129.192 36.2201H140.644C141.209 36.2201 141.583 36.0383 141.763 35.6746" fill="white"/>
<path fill-rule="evenodd" clip-rule="evenodd" d="M153.122 29.3033C152.189 29.2805 151.277 29.581 150.539 30.1542C149.814 30.6948 149.351 31.493 149.152 32.5488H156.94C156.76 31.4942 156.323 30.696 155.629 30.1542C154.92 29.5818 154.032 29.2802 153.122 29.3033ZM162.069 33.827C162.069 34.6754 161.979 35.2936 161.799 35.6815C161.617 36.0451 161.246 36.227 160.682 36.227H149.23C149.466 37.1955 150.057 38.0394 150.886 38.5906C151.732 39.1045 152.799 39.3621 154.087 39.3633C154.699 39.3673 155.309 39.289 155.901 39.1306C156.555 38.9194 157.178 38.6203 157.752 38.2415C157.871 38.1412 158.022 38.0864 158.177 38.087C158.343 38.1059 158.496 38.1894 158.601 38.3197L160.596 40.2506C160.647 40.3012 160.687 40.3616 160.713 40.4282C160.74 40.4948 160.753 40.5662 160.751 40.6379C160.745 40.7268 160.722 40.8138 160.682 40.8934C160.642 40.9731 160.586 41.0439 160.518 41.1015C159.603 42.0207 158.519 42.7535 157.326 43.2597C156.117 43.7519 154.822 43.9991 153.517 43.987C151.697 44.014 149.901 43.5607 148.31 42.6724C146.829 41.83 145.604 40.601 144.764 39.116C143.914 37.6077 143.476 35.9011 143.495 34.1688C143.476 32.4404 143.901 30.7362 144.728 29.2197C145.544 27.7596 146.737 26.5468 148.181 25.7088C149.662 24.8282 151.357 24.3734 153.078 24.3942C154.735 24.362 156.367 24.8034 157.783 25.667C159.131 26.5024 160.224 27.6922 160.945 29.107C161.696 30.5679 162.08 32.1906 162.064 33.8342" fill="white"/>
<path fill-rule="evenodd" clip-rule="evenodd" d="M176.588 37.4596C175.79 38.285 174.774 38.6971 173.541 38.6959C172.282 38.6959 171.254 38.2838 170.458 37.4596C169.687 36.6341 169.302 35.5644 169.3 34.2505C169.3 32.9632 169.686 31.8814 170.458 31.005C170.846 30.5749 171.322 30.2346 171.855 30.0076C172.387 29.7806 172.963 29.6724 173.541 29.6905C174.11 29.6733 174.676 29.778 175.201 29.9975C175.727 30.2169 176.199 30.5461 176.588 30.9632C177.409 31.8117 177.82 32.9068 177.821 34.2486C177.821 35.5638 177.41 36.6335 176.588 37.4577V37.4596ZM178.9 25.7068C177.504 24.828 175.884 24.3716 174.236 24.3923C172.025 24.3923 170.211 25.2941 168.794 27.0977L168.6 25.3596C168.549 24.9729 168.357 24.7796 168.022 24.7796H164.093C164.016 24.7752 163.938 24.7866 163.865 24.8132C163.792 24.8397 163.725 24.8809 163.669 24.9341C163.616 24.991 163.575 25.058 163.549 25.1312C163.523 25.2043 163.512 25.282 163.516 25.3596V50.485C163.512 50.5628 163.523 50.6407 163.55 50.714C163.576 50.7874 163.616 50.8548 163.669 50.9123C163.726 50.9652 163.792 51.0061 163.865 51.0326C163.938 51.0592 164.016 51.0708 164.093 51.0668H168.72C168.797 51.0711 168.875 51.0596 168.948 51.0331C169.021 51.0065 169.088 50.9654 169.144 50.9123C169.198 50.8552 169.239 50.7879 169.265 50.7145C169.292 50.641 169.303 50.563 169.299 50.485V42.0214C170.56 43.3317 172.205 43.9868 174.236 43.9868C175.879 44.0094 177.495 43.5684 178.9 42.7141C180.292 41.8618 181.426 40.6455 182.18 39.1959C182.98 37.6849 183.391 35.9975 183.375 34.2868C183.396 32.5512 182.985 30.8377 182.18 29.3014C181.443 27.8198 180.307 26.5746 178.9 25.7068Z" fill="white"/>
<path d="M101.054 24.756C101.131 24.7517 101.208 24.763 101.281 24.7892C101.354 24.8154 101.421 24.8561 101.478 24.9087C101.531 24.9655 101.572 25.0324 101.599 25.1056C101.625 25.1787 101.637 25.2565 101.632 25.3342V28.8523C101.637 28.9298 101.625 29.0073 101.599 29.0802C101.572 29.153 101.531 29.2197 101.478 29.276C101.422 29.3298 101.355 29.3714 101.282 29.3983C101.209 29.4252 101.131 29.4368 101.054 29.4323H97.9702V43.116C97.9745 43.1938 97.9629 43.2717 97.936 43.3448C97.9092 43.418 97.8678 43.4849 97.8143 43.5414C97.7577 43.5947 97.6908 43.6358 97.6179 43.6624C97.5449 43.6889 97.4674 43.7004 97.3899 43.696H92.763C92.6855 43.7004 92.608 43.6889 92.535 43.6624C92.4621 43.6358 92.3952 43.5947 92.3386 43.5414C92.2854 43.4848 92.2442 43.4178 92.2177 43.3447C92.1912 43.2715 92.1799 43.1937 92.1845 43.116V29.4414H89.1011C89.0235 29.4459 88.9457 29.4343 88.8727 29.4074C88.7997 29.3805 88.733 29.3389 88.6767 29.2851C88.6238 29.2285 88.5829 29.1618 88.5564 29.089C88.5299 29.0162 88.5184 28.9388 88.5225 28.8614V25.3433C88.5186 25.2656 88.5302 25.188 88.5567 25.1149C88.5831 25.0418 88.624 24.9748 88.6767 24.9178C88.7337 24.8652 88.8006 24.8245 88.8735 24.7983C88.9464 24.772 89.0238 24.7607 89.1011 24.7651H92.1845V19.5451C92.1801 19.4674 92.1915 19.3896 92.218 19.3165C92.2445 19.2433 92.2855 19.1764 92.3386 19.1196C92.3953 19.0666 92.4622 19.0258 92.5352 18.9995C92.6081 18.9732 92.6857 18.9621 92.763 18.9669H97.3971C97.4745 18.9621 97.552 18.9732 97.625 18.9995C97.698 19.0258 97.7648 19.0666 97.8215 19.1196C97.875 19.1762 97.9163 19.2431 97.9431 19.3163C97.97 19.3894 97.9817 19.4673 97.9775 19.5451V24.7651L101.054 24.756Z" fill="white"/>
<path fill-rule="evenodd" clip-rule="evenodd" d="M69.9789 38.4004C71.1615 38.4004 72.0998 38.1301 72.7938 37.5895C73.4879 37.0489 73.8349 36.2368 73.8349 35.1532C73.8349 34.0962 73.4879 33.3235 72.7938 32.835C72.0986 32.3186 71.1603 32.061 69.9789 32.0622H65.6568V38.4004H69.9789ZM72.2152 24.4004C72.2152 22.7519 71.1996 21.9271 69.1682 21.9259H65.6568V27.1059H69.1646C70.1149 27.1059 70.8622 26.8877 71.4009 26.4495C71.9414 25.9841 72.2116 25.301 72.2116 24.4004H72.2152ZM74.5241 29.2332C75.9695 29.6244 77.2611 30.4492 78.2259 31.5968C79.2778 32.7737 79.8433 34.3079 79.8075 35.8877C79.8075 38.4913 78.972 40.4501 77.3009 41.7641C75.6553 43.0513 73.1366 43.6956 69.7449 43.6968H60.261C60.1835 43.7012 60.1059 43.6898 60.0329 43.6632C59.96 43.6366 59.8932 43.5955 59.8366 43.5422C59.7836 43.4855 59.7428 43.4184 59.7166 43.3453C59.6904 43.2721 59.6794 43.1944 59.6842 43.1168V17.2186C59.6795 17.141 59.6906 17.0633 59.7167 16.9902C59.7429 16.917 59.7837 16.85 59.8366 16.7932C59.8932 16.7399 59.96 16.6988 60.0329 16.6722C60.1059 16.6457 60.1835 16.6342 60.261 16.6386H69.7087C71.4015 16.6386 72.8525 16.9477 74.0616 17.5659C75.2147 18.1098 76.181 18.9842 76.8384 20.0786C77.4881 21.1494 77.8243 22.3818 77.8088 23.635C77.8366 24.877 77.5012 26.1 76.8439 27.1532C76.2272 28.1568 75.4558 28.8526 74.5296 29.2404" fill="white"/>
<path d="M125.561 43.4987C125.562 43.3731 125.521 43.2508 125.444 43.1514L114.709 28.6423L125.071 17.4605C125.176 17.3731 125.245 17.2491 125.263 17.1132C125.264 17.0632 125.249 17.0141 125.222 16.9723C125.194 16.9305 125.155 16.8979 125.109 16.8787C125.061 16.8375 125.006 16.8062 124.946 16.7865C124.886 16.7669 124.823 16.7593 124.761 16.7641H119.524C119.399 16.7634 119.275 16.7909 119.162 16.8443C119.049 16.8978 118.949 16.976 118.87 17.0732L108.934 27.8696V17.3459C108.938 17.2681 108.927 17.1902 108.9 17.1171C108.873 17.0439 108.832 16.977 108.778 16.9205C108.722 16.8669 108.656 16.8254 108.583 16.7985C108.51 16.7716 108.433 16.7599 108.356 16.7641H103.721C103.644 16.7596 103.566 16.7712 103.493 16.7981C103.42 16.825 103.353 16.8667 103.297 16.9205C103.244 16.9771 103.203 17.0441 103.176 17.1172C103.15 17.1904 103.138 17.2682 103.143 17.3459V43.2605C103.138 43.3382 103.149 43.4161 103.176 43.4892C103.202 43.5624 103.244 43.6294 103.297 43.6859C103.353 43.7394 103.42 43.7807 103.493 43.8073C103.566 43.8339 103.644 43.8452 103.721 43.8405H108.348C108.426 43.8451 108.503 43.8337 108.576 43.8071C108.648 43.7805 108.715 43.7393 108.771 43.6859C108.825 43.6295 108.866 43.5626 108.893 43.4894C108.92 43.4163 108.931 43.3383 108.927 43.2605V34.8968L111.201 32.4241L119.43 43.4914C119.505 43.6052 119.609 43.6971 119.73 43.7581C119.852 43.8191 119.987 43.8468 120.123 43.8387H125.098C125.406 43.8387 125.561 43.7241 125.561 43.4914" fill="white"/>
<path fill-rule="evenodd" clip-rule="evenodd" d="M48.1144 18.5673V21.2128C48.1145 21.4682 48.0475 21.7191 47.9201 21.9402C47.7928 22.1614 47.6096 22.3451 47.389 22.4728L38.8862 27.3928L46.4803 31.7746C46.9769 32.062 47.3892 32.4755 47.6758 32.9734C47.9623 33.4713 48.113 34.0361 48.1126 34.611V41.6601C48.1133 42.2352 47.9628 42.8004 47.6762 43.2986C47.3896 43.7969 46.9771 44.2107 46.4803 44.4982L26.5021 55.9873C26.0058 56.2746 25.4428 56.4258 24.8697 56.4258C24.2967 56.4258 23.7337 56.2746 23.2374 55.9873L16.708 52.2037C16.5976 52.1399 16.506 52.0481 16.4422 51.9375C16.3785 51.8269 16.3449 51.7014 16.3449 51.5737C16.3449 51.446 16.3785 51.3205 16.4422 51.2099C16.506 51.0993 16.5976 51.0075 16.708 50.9437L38.2913 38.491C38.3467 38.4591 38.3927 38.4132 38.4247 38.3578C38.4567 38.3024 38.4736 38.2395 38.4736 38.1755C38.4736 38.1115 38.4567 38.0486 38.4247 37.9932C38.3927 37.9378 38.3467 37.8919 38.2913 37.8601L30.2783 33.2201C30.0577 33.0924 29.8075 33.0252 29.5528 33.0252C29.2981 33.0252 29.0479 33.0924 28.8273 33.2201L6.89209 45.8782C6.72666 45.974 6.539 46.0244 6.34797 46.0244C6.15695 46.0244 5.96929 45.974 5.80386 45.8782L3.32268 44.4528C2.82325 44.1663 2.40822 43.7526 2.11965 43.2535C1.83108 42.7544 1.67922 42.1878 1.67944 41.611V38.7255C1.67932 38.5339 1.72955 38.3456 1.82506 38.1797C1.92058 38.0137 2.05803 37.8759 2.22356 37.7801L33.6627 19.6764C33.7181 19.6446 33.7641 19.5986 33.7961 19.5432C33.8281 19.4879 33.845 19.425 33.845 19.361C33.845 19.2969 33.8281 19.2341 33.7961 19.1787C33.7641 19.1233 33.7181 19.0774 33.6627 19.0455L25.6369 14.391C25.4164 14.2633 25.1662 14.1961 24.9115 14.1961C24.6568 14.1961 24.4065 14.2633 24.186 14.391L2.784 26.7364C2.67364 26.8003 2.54843 26.8339 2.42099 26.8339C2.29355 26.8338 2.16837 26.8001 2.05805 26.7361C1.94773 26.6722 1.85616 26.5802 1.79256 26.4695C1.72896 26.3588 1.69558 26.2333 1.69577 26.1055V18.5328C1.696 17.9567 1.84789 17.391 2.1361 16.8926C2.42431 16.3943 2.83863 15.981 3.33719 15.6946L23.3045 4.20733C23.7997 3.92177 24.361 3.77148 24.9323 3.77148C25.5036 3.77148 26.0649 3.92177 26.5601 4.20733L46.4893 15.7291C46.9849 16.0176 47.3959 16.4318 47.6812 16.93C47.9664 17.4282 48.1159 17.9929 48.1144 18.5673Z" fill="white"/>
</svg>
