<svg width="24" height="24" viewBox="0 0 24 24" fill="none" xmlns="http://www.w3.org/2000/svg">
<path d="M22.5 17.6284C22.5 11.7186 19.9095 6.92723 19.9095 6.92723C17.3221 4.94644 14.858 5.00119 14.858 5.00119L14.6063 5.295C17.6633 6.24906 19.0828 7.62646 19.0828 7.62646C17.4137 6.68608 15.5741 6.08689 13.6712 5.8647C12.4644 5.72886 11.245 5.74044 10.0403 5.89945C9.9318 5.89945 9.84124 5.9184 9.73488 5.93631C9.10515 5.99212 7.57612 6.23011 5.65324 7.09361C4.98877 7.40426 4.59177 7.6254 4.59177 7.6254C4.59177 7.6254 6.085 6.1743 9.31998 5.22023L9.1399 5.00014C9.1399 5.00014 6.67681 4.94644 4.08841 6.92828C4.08841 6.92828 1.5 11.7176 1.5 17.6284C1.5 17.6284 3.01008 20.2884 6.98325 20.4179C6.98325 20.4179 7.64773 19.5934 8.189 18.8952C5.90387 18.196 5.04247 16.728 5.04247 16.728C5.04247 16.728 5.22044 16.8575 5.54373 17.0408C5.56163 17.0587 5.57848 17.0776 5.61533 17.0945C5.66904 17.1324 5.7238 17.1503 5.7775 17.1871C6.22716 17.4441 6.67576 17.6452 7.08856 17.8116C7.82675 18.1054 8.7071 18.3992 9.73383 18.6014C11.2713 18.9026 12.8509 18.9089 14.3904 18.6193C15.2866 18.4592 16.1617 18.1949 16.9967 17.8305C17.6265 17.5915 18.3267 17.2419 19.0649 16.747C19.0649 16.747 18.1667 18.2518 15.8099 18.932C16.3502 19.6292 16.9978 20.4168 16.9988 20.4179C20.971 20.2894 22.5 17.6284 22.5 17.6284ZM8.52808 15.676C7.49714 15.676 6.64733 14.8894 6.64733 13.9279C6.64733 12.9665 7.47713 12.1799 8.52808 12.1799C9.57692 12.1799 10.4267 12.9665 10.4067 13.9279C10.4078 14.8894 9.57903 15.676 8.52808 15.676ZM15.255 15.676C14.224 15.676 13.3763 14.8894 13.3763 13.9279C13.3763 12.9665 14.2051 12.1799 15.255 12.1799C16.3049 12.1799 17.1357 12.9665 17.1357 13.9279C17.1357 14.8894 16.3059 15.676 15.255 15.676Z" fill="white"/>
</svg>
