<svg width="24" height="24" viewBox="0 0 24 24" fill="none" xmlns="http://www.w3.org/2000/svg">
<path d="M12 3C14.4453 3 14.7504 3.009 15.7098 3.054C16.6683 3.099 17.3208 3.2493 17.895 3.4725C18.489 3.7011 18.9894 4.0107 19.4898 4.5102C19.9474 4.96011 20.3016 5.50433 20.5275 6.105C20.7498 6.6783 20.901 7.3317 20.946 8.2902C20.9883 9.2496 21 9.5547 21 12C21 14.4453 20.991 14.7504 20.946 15.7098C20.901 16.6683 20.7498 17.3208 20.5275 17.895C20.3022 18.496 19.948 19.0404 19.4898 19.4898C19.0398 19.9473 18.4956 20.3014 17.895 20.5275C17.3217 20.7498 16.6683 20.901 15.7098 20.946C14.7504 20.9883 14.4453 21 12 21C9.5547 21 9.2496 20.991 8.2902 20.946C7.3317 20.901 6.6792 20.7498 6.105 20.5275C5.50409 20.302 4.95977 19.9478 4.5102 19.4898C4.05247 19.04 3.69834 18.4957 3.4725 17.895C3.2493 17.3217 3.099 16.6683 3.054 15.7098C3.0117 14.7504 3 14.4453 3 12C3 9.5547 3.009 9.2496 3.054 8.2902C3.099 7.3308 3.2493 6.6792 3.4725 6.105C3.69771 5.50396 4.05192 4.95959 4.5102 4.5102C4.9599 4.05231 5.50419 3.69816 6.105 3.4725C6.6792 3.2493 7.3308 3.099 8.2902 3.054C9.2496 3.0117 9.5547 3 12 3ZM12 7.5C10.8065 7.5 9.66193 7.97411 8.81802 8.81802C7.97411 9.66193 7.5 10.8065 7.5 12C7.5 13.1935 7.97411 14.3381 8.81802 15.182C9.66193 16.0259 10.8065 16.5 12 16.5C13.1935 16.5 14.3381 16.0259 15.182 15.182C16.0259 14.3381 16.5 13.1935 16.5 12C16.5 10.8065 16.0259 9.66193 15.182 8.81802C14.3381 7.97411 13.1935 7.5 12 7.5ZM17.85 7.275C17.85 6.97663 17.7315 6.69048 17.5205 6.4795C17.3095 6.26853 17.0234 6.15 16.725 6.15C16.4266 6.15 16.1405 6.26853 15.9295 6.4795C15.7185 6.69048 15.6 6.97663 15.6 7.275C15.6 7.57337 15.7185 7.85952 15.9295 8.0705C16.1405 8.28147 16.4266 8.4 16.725 8.4C17.0234 8.4 17.3095 8.28147 17.5205 8.0705C17.7315 7.85952 17.85 7.57337 17.85 7.275ZM12 9.3C12.7161 9.3 13.4028 9.58446 13.9092 10.0908C14.4155 10.5972 14.7 11.2839 14.7 12C14.7 12.7161 14.4155 13.4028 13.9092 13.9092C13.4028 14.4155 12.7161 14.7 12 14.7C11.2839 14.7 10.5972 14.4155 10.0908 13.9092C9.58446 13.4028 9.3 12.7161 9.3 12C9.3 11.2839 9.58446 10.5972 10.0908 10.0908C10.5972 9.58446 11.2839 9.3 12 9.3Z" fill="white"/>
</svg>
