<svg width="24" height="24" viewBox="0 0 24 24" fill="none" xmlns="http://www.w3.org/2000/svg">
<path d="M19.9132 14.529C19.708 13.8934 19.4829 13.2645 19.2382 12.643L18.3282 10.397C18.3282 10.371 18.3402 9.929 18.3402 9.701C18.3402 5.86 16.5072 2 12.0002 2C7.49322 2 5.66022 5.86 5.66022 9.7C5.66022 9.929 5.67122 10.371 5.67222 10.397L4.76222 12.643C4.51422 13.286 4.26722 13.955 4.08722 14.529C3.22722 17.266 3.50622 18.399 3.71822 18.424C4.17322 18.478 5.48922 16.364 5.48922 16.364C5.48922 17.588 6.12622 19.186 7.50522 20.34C6.99022 20.497 6.35822 20.739 5.95122 21.035C5.58622 21.302 5.63222 21.575 5.69822 21.685C5.98722 22.166 10.6532 21.992 12.0012 21.842C13.3482 21.992 18.0152 22.166 18.3032 21.684C18.3692 21.574 18.4152 21.302 18.0502 21.035C17.6432 20.739 17.0112 20.497 16.4952 20.339C17.8742 19.186 18.5112 17.588 18.5112 16.363C18.5112 16.363 19.8272 18.478 20.2822 18.423C20.4942 18.398 20.7722 17.266 19.9122 14.529" fill="white"/>
</svg>
