<svg width="20" height="20" viewBox="0 0 20 20" fill="none" xmlns="http://www.w3.org/2000/svg">
<path d="M3.36041 2.9375C3.04961 2.9375 2.75154 3.06097 2.53177 3.28073C2.312 3.5005 2.18854 3.79857 2.18854 4.10937V16.1211C2.18854 16.4319 2.312 16.73 2.53177 16.9497C2.75154 17.1695 3.04961 17.293 3.36041 17.293H16.685C16.9958 17.293 17.2939 17.1695 17.5137 16.9497C17.7334 16.73 17.8569 16.4319 17.8569 16.1211V13.441H13.3372C11.4989 13.441 9.98444 11.9631 9.97936 10.1248C9.97429 8.28652 11.468 6.78945 13.305 6.78945H17.8569V4.10937C17.8569 3.79857 17.7334 3.5005 17.5137 3.28073C17.2939 3.06097 16.9958 2.9375 16.685 2.9375H3.36041ZM13.305 8.18925C13.0505 8.18958 12.7987 8.24025 12.5639 8.33836C12.3291 8.43647 12.1161 8.58006 11.9371 8.76087C11.7581 8.94168 11.6166 9.15613 11.5209 9.39186C11.4251 9.62759 11.377 9.87994 11.3792 10.1344C11.3895 11.1945 12.2692 12.0412 13.3296 12.0412H18.0757C18.3657 12.0412 18.6439 11.926 18.8491 11.7209C19.0542 11.5157 19.1694 11.2375 19.1694 10.9475V9.283C19.1694 8.99292 19.0542 8.71472 18.8491 8.5096C18.6439 8.30449 18.3657 8.18925 18.0757 8.18925H13.305Z" fill="white"/>
</svg>
