<svg width="16" height="16" viewBox="0 0 16 16" fill="none" xmlns="http://www.w3.org/2000/svg">
<path fill-rule="evenodd" clip-rule="evenodd" d="M4.99906 1.81104C4.74018 1.81104 4.53031 2.0209 4.53031 2.27979C4.53031 2.53867 4.74018 2.74854 4.99906 2.74854H11.0206C11.3199 2.74854 11.6162 2.80749 11.8927 2.92203C12.1692 3.03657 12.4204 3.20446 12.632 3.4161C12.8436 3.62774 13.0114 3.879 13.1259 4.15551C13.2404 4.43202 13.2993 4.72837 13.2992 5.02765V11.0492C13.2992 11.308 13.5091 11.5179 13.768 11.5179C14.0269 11.5179 14.2367 11.308 14.2367 11.0492V5.02786V5.02775C14.2368 4.60538 14.1537 4.18714 13.9921 3.79689C13.8305 3.40661 13.5937 3.05199 13.295 2.75327C12.9964 2.45455 12.6418 2.21759 12.2515 2.05592C11.8613 1.89425 11.443 1.81104 11.0206 1.81104H4.99906ZM2.70313 5.39104C2.70313 4.95956 3.0529 4.60979 3.48438 4.60979H10.6433C11.0748 4.60979 11.4245 4.95956 11.4245 5.39104V12.5499C11.4245 12.9814 11.0748 13.3312 10.6433 13.3312H3.48438C3.0529 13.3312 2.70313 12.9814 2.70313 12.5499V5.39104ZM3.48438 3.67229C2.53514 3.67229 1.76562 4.4418 1.76562 5.39104V12.5499C1.76562 13.4992 2.53514 14.2687 3.48438 14.2687H10.6433C11.5925 14.2687 12.362 13.4992 12.362 12.5499V5.39104C12.362 4.4418 11.5925 3.67229 10.6433 3.67229H3.48438Z" fill="#919899"/>
</svg>
