<svg width="24" height="24" viewBox="0 0 24 24" fill="none" xmlns="http://www.w3.org/2000/svg">
<path fill-rule="evenodd" clip-rule="evenodd" d="M18.3362 6.6632C18.6108 6.38861 18.6108 5.94342 18.3362 5.66883C18.0617 5.39424 17.6165 5.39424 17.3419 5.66883L12.0055 11.0053L6.66906 5.66883C6.39447 5.39424 5.94928 5.39424 5.67469 5.66883C5.4001 5.94342 5.4001 6.38861 5.67469 6.6632L11.0111 11.9996L5.67469 17.336C5.4001 17.6106 5.4001 18.0558 5.67469 18.3304C5.94928 18.605 6.39447 18.605 6.66906 18.3304L12.0055 12.994L17.3419 18.3304C17.6165 18.605 18.0617 18.605 18.3362 18.3304C18.6108 18.0558 18.6108 17.6106 18.3362 17.336L12.9998 11.9996L18.3362 6.6632Z" fill="#E5E5E5"/>
</svg>
