<svg width="16" height="16" viewBox="0 0 16 16" fill="none" xmlns="http://www.w3.org/2000/svg">
<rect width="16" height="16" rx="8" fill="#E5E3E9"/>
<path fill-rule="evenodd" clip-rule="evenodd" d="M5.36031 5.36129C5.55558 5.16603 5.87216 5.16603 6.06742 5.36129L7.99958 7.29345L9.93174 5.36129C10.127 5.16603 10.4436 5.16603 10.6388 5.36129C10.8341 5.55655 10.8341 5.87313 10.6388 6.0684L8.70669 8.00056L10.6388 9.93272C10.8341 10.128 10.8341 10.4446 10.6388 10.6398C10.4436 10.8351 10.127 10.8351 9.93174 10.6398L7.99958 8.70766L6.06742 10.6398C5.87216 10.8351 5.55558 10.8351 5.36031 10.6398C5.16505 10.4446 5.16505 10.128 5.36031 9.93272L7.29247 8.00056L5.36031 6.0684C5.16505 5.87313 5.16505 5.55655 5.36031 5.36129Z" fill="white"/>
</svg>
