<svg width="20" height="20" viewBox="0 0 20 20" fill="none" xmlns="http://www.w3.org/2000/svg">
<path fill-rule="evenodd" clip-rule="evenodd" d="M15.2796 5.55299C15.5084 5.32417 15.5084 4.95318 15.2796 4.72435C15.0507 4.49553 14.6797 4.49553 14.4509 4.72435L10.0039 9.17137L5.5569 4.72435C5.32808 4.49553 4.95708 4.49553 4.72826 4.72435C4.49943 4.95318 4.49943 5.32417 4.72826 5.55299L9.17527 10L4.72826 14.447C4.49943 14.6759 4.49943 15.0469 4.72826 15.2757C4.95708 15.5045 5.32808 15.5045 5.5569 15.2757L10.0039 10.8287L14.4509 15.2757C14.6797 15.5045 15.0507 15.5045 15.2796 15.2757C15.5084 15.0469 15.5084 14.6759 15.2796 14.447L10.8325 10L15.2796 5.55299Z" fill="#919899"/>
</svg>
