<svg width="20" height="20" viewBox="0 0 20 20" fill="none" xmlns="http://www.w3.org/2000/svg">
<path fill-rule="evenodd" clip-rule="evenodd" d="M14.4394 5.07937C13.2244 3.97725 11.6433 3.36568 10.0029 3.36328C9.11509 3.36139 8.236 3.53876 7.41836 3.88477C5.90723 4.52304 4.68703 5.69982 3.99444 7.18683C3.30184 8.67384 3.18623 10.3651 3.67001 11.9325C4.1538 13.5 5.20251 14.8318 6.61272 15.6698C8.02292 16.5078 9.6941 16.7921 11.3021 16.4677C12.9101 16.1433 14.3403 15.2332 15.3152 13.9139C16.2902 12.5947 16.7404 10.9604 16.5785 9.32799C16.4167 7.6956 15.6544 6.18149 14.4394 5.07937ZM2.19043 10.0039C2.19043 5.68906 5.68809 2.19141 10.0029 2.19141C14.3178 2.19141 17.8154 5.68906 17.8154 10.0039C17.8154 14.3187 14.3178 17.8164 10.0029 17.8164C5.68809 17.8164 2.19043 14.3187 2.19043 10.0039ZM10.5857 6.1789C10.5857 5.8553 10.3234 5.59297 9.9998 5.59297C9.6762 5.59297 9.41386 5.8553 9.41386 6.1789V10.5867C9.41386 10.9096 9.67511 11.1717 9.99801 11.1727L13.1877 11.1824C13.5113 11.1834 13.7744 10.9219 13.7754 10.5983C13.7764 10.2747 13.5148 10.0115 13.1912 10.0105L10.5857 10.0026V6.1789Z" fill="#0E0E0E"/>
</svg>
