<svg width="20" height="20" viewBox="0 0 20 20" fill="none" xmlns="http://www.w3.org/2000/svg">
<path d="M8.83613 3.86055C9.50957 3.86055 10.1621 3.99199 10.7754 4.25156C11.3686 4.50254 11.9018 4.86211 12.36 5.32031C12.8182 5.77852 13.1777 6.31172 13.4287 6.90488C13.6881 7.51816 13.8197 8.1707 13.8197 8.84414C13.8197 9.51758 13.6883 10.1701 13.4287 10.7834C13.1777 11.3766 12.8182 11.9098 12.36 12.368C11.9018 12.8262 11.3686 13.1857 10.7754 13.4367C10.1621 13.6961 9.50957 13.8277 8.83613 13.8277C8.1627 13.8277 7.51016 13.6963 6.89687 13.4367C6.30371 13.1857 5.77051 12.8262 5.3123 12.368C4.8541 11.9098 4.49453 11.3766 4.24355 10.7834C3.98418 10.1701 3.85254 9.51758 3.85254 8.84414C3.85254 8.1707 3.98398 7.51816 4.24355 6.90488C4.49453 6.31172 4.8541 5.77852 5.3123 5.32031C5.77051 4.86211 6.30371 4.50254 6.89687 4.25156C7.51016 3.99199 8.1625 3.86055 8.83613 3.86055ZM8.83613 2.19922C5.16641 2.19922 2.19141 5.17422 2.19141 8.84395C2.19141 12.5137 5.16641 15.4887 8.83613 15.4887C12.5059 15.4887 15.4809 12.5137 15.4809 8.84395C15.4809 5.17422 12.5059 2.19922 8.83613 2.19922Z" fill="#919899"/>
<path d="M16.3452 17.5475L11.993 13.1952C11.9542 13.1563 11.9542 13.0932 11.993 13.0544L13.071 11.9764C13.1098 11.9375 13.1729 11.9375 13.2118 11.9764L17.5641 16.3288C17.9005 16.6651 17.9005 17.2104 17.5641 17.5468L17.5634 17.5475C17.2268 17.8839 16.6815 17.8839 16.3452 17.5475Z" fill="#919899"/>
</svg>
