<svg width="80" height="80" viewBox="0 0 80 80" fill="none" xmlns="http://www.w3.org/2000/svg">
<path fill-rule="evenodd" clip-rule="evenodd" d="M17.7177 14.124C18.1573 13.6844 18.7534 13.4375 19.375 13.4375H60.3125C60.9341 13.4375 61.5302 13.6844 61.9698 14.124C62.4093 14.5635 62.6562 15.1597 62.6562 15.7812V22.7266C62.6562 24.021 63.7056 25.0703 65 25.0703C66.2944 25.0703 67.3438 24.021 67.3438 22.7266V15.7812C67.3438 13.9164 66.603 12.128 65.2843 10.8094C63.9657 9.49079 62.1773 8.75 60.3125 8.75H19.375C17.5102 8.75 15.7218 9.49079 14.4032 10.8094C13.0845 12.128 12.3438 13.9164 12.3438 15.7812V64.2188C12.3438 66.0836 13.0845 67.872 14.4032 69.1906C15.7218 70.5092 17.5102 71.25 19.375 71.25H30C31.2944 71.25 32.3438 70.2007 32.3438 68.9062C32.3438 67.6118 31.2944 66.5625 30 66.5625H19.375C18.7534 66.5625 18.1573 66.3156 17.7177 65.876C17.2782 65.4365 17.0312 64.8404 17.0312 64.2188V15.7812C17.0312 15.1597 17.2782 14.5635 17.7177 14.124ZM43.7437 26.9313C45.9187 26.9255 48.0732 27.3511 50.0826 28.1834C52.0919 29.0158 53.9163 30.2384 55.45 31.7805C56.9922 33.3143 58.2149 35.1388 59.0473 37.1483C59.8796 39.1578 60.3052 41.3124 60.2992 43.4875C60.3052 45.6626 59.8797 47.8173 59.0473 49.8268C58.215 51.8363 56.9923 53.6608 55.45 55.1946C53.9163 56.7366 52.0919 57.9592 50.0826 58.7916C48.0732 59.624 45.9187 60.0496 43.7437 60.0438C41.5687 60.0497 39.414 59.6241 37.4045 58.7918C35.395 57.9594 33.5705 56.7367 32.0367 55.1946C30.4945 53.6608 29.2718 51.8363 28.4394 49.8268C27.607 47.8173 27.1815 45.6626 27.1875 43.4875C27.1815 41.3124 27.6071 39.1578 28.4394 37.1483C29.2718 35.1388 30.4945 33.3143 32.0367 31.7805C33.5705 30.2383 35.395 29.0156 37.4045 28.1833C39.414 27.3509 41.5687 26.9254 43.7437 26.9313ZM43.7437 22.2438C32.0109 22.2438 22.5 31.7555 22.5 43.4875C22.5 55.2196 32.0109 64.7313 43.7437 64.7313C48.776 64.7313 53.3995 62.9816 57.039 60.0574L67.5372 70.5557C68.4525 71.471 69.9365 71.471 70.8518 70.5557C71.7671 69.6404 71.7671 68.1564 70.8518 67.2411L60.349 56.7384C63.2515 53.1055 64.9867 48.4992 64.9867 43.4875C64.9867 31.7547 55.4758 22.2438 43.7437 22.2438Z" fill="#C7CBCB"/>
</svg>
