<svg width="20" height="20" viewBox="0 0 20 20" fill="none" xmlns="http://www.w3.org/2000/svg">
<path fill-rule="evenodd" clip-rule="evenodd" d="M12.1032 4.29688H7.89793C7.56453 4.29688 7.29403 4.03457 7.29403 3.71094C7.29403 3.3873 7.56453 3.125 7.89793 3.125H12.103C12.4364 3.125 12.7069 3.3873 12.7069 3.71094C12.7069 4.03457 12.4366 4.29688 12.1032 4.29688ZM5.03013 6.4621H3.90664C3.57324 6.4621 3.30273 6.19979 3.30273 5.87616C3.30273 5.55253 3.57324 5.29022 3.90664 5.29022H5.60542C5.6126 5.29009 5.61981 5.29009 5.62705 5.29022H16.1185C16.4519 5.29022 16.7224 5.55253 16.7224 5.87616C16.7224 6.19979 16.4519 6.4621 16.1185 6.4621H14.5944V15.7031C14.5944 16.0138 14.471 16.3118 14.2514 16.5316C14.0317 16.7513 13.7338 16.8749 13.4231 16.875H6.20201C5.89121 16.875 5.59313 16.7515 5.37337 16.5318C5.1536 16.312 5.03013 16.0139 5.03013 15.7031V6.4621ZM6.20142 6.4621V15.7031H13.4231V6.4621H6.20142Z" fill="#919899"/>
</svg>
