<svg width="64" height="64" viewBox="0 0 64 64" fill="none" xmlns="http://www.w3.org/2000/svg">
<path fill-rule="evenodd" clip-rule="evenodd" d="M14.5117 7.5525H49.5117C50.9159 7.55154 52.2694 8.0777 53.3042 9.02687C53.2337 7.70016 52.6574 6.45093 51.6938 5.53621C50.7303 4.62149 49.4528 4.11086 48.1242 4.10938H15.8548C14.5194 4.11108 13.2359 4.62733 12.2712 5.55081C11.3066 6.4743 10.7348 7.73401 10.6748 9.06812C11.7146 8.0935 13.0866 7.55155 14.5117 7.5525ZM49.5117 57H14.5117C13.0204 56.9983 11.5906 56.4052 10.5361 55.3506C9.48154 54.2961 8.88837 52.8663 8.88672 51.375V15.625C8.88837 14.1337 9.48154 12.7039 10.5361 11.6494C11.5906 10.5948 13.0204 10.0017 14.5117 10H49.5117C51.0031 10.0017 52.4328 10.5948 53.4874 11.6494C54.5419 12.7039 55.1351 14.1337 55.1367 15.625V51.375C55.1351 52.8663 54.5419 54.2961 53.4874 55.3506C52.4328 56.4052 51.0031 56.9983 49.5117 57ZM14.5117 13.75C14.0144 13.75 13.5375 13.9475 13.1859 14.2992C12.8343 14.6508 12.6367 15.1277 12.6367 15.625V51.375C12.6367 51.8723 12.8343 52.3492 13.1859 52.7008C13.5375 53.0525 14.0144 53.25 14.5117 53.25H49.5117C50.009 53.25 50.4859 53.0525 50.8375 52.7008C51.1892 52.3492 51.3867 51.8723 51.3867 51.375V15.625C51.3867 15.1277 51.1892 14.6508 50.8375 14.2992C50.4859 13.9475 50.009 13.75 49.5117 13.75H14.5117ZM40.358 40.6494V23.3287C40.358 23.0492 40.3028 22.7724 40.1957 22.5142C40.0885 22.2561 39.9315 22.0215 39.7336 21.8242C39.5357 21.6268 39.3008 21.4703 39.0423 21.3639C38.7838 21.2574 38.5069 21.203 38.2274 21.2037C37.6638 21.2037 37.1233 21.4276 36.7248 21.8261C36.3262 22.2247 36.1024 22.7652 36.1024 23.3287V34.3637L27.4917 22.1075C27.2952 21.8279 27.0343 21.5997 26.731 21.4422C26.4277 21.2846 26.091 21.2024 25.7492 21.2025C25.1852 21.2037 24.6447 21.4285 24.2464 21.8277C23.848 22.2269 23.6242 22.7679 23.6242 23.3319V40.6487C23.6242 41.2123 23.8481 41.7528 24.2466 42.1513C24.6451 42.5499 25.1856 42.7737 25.7492 42.7737C26.3128 42.7737 26.8533 42.5499 27.2518 42.1513C27.6503 41.7528 27.8742 41.2123 27.8742 40.6487V29.5862L36.4855 41.8712C36.6819 42.1512 36.9429 42.3798 37.2463 42.5376C37.5497 42.6955 37.8866 42.778 38.2286 42.7781C38.5082 42.7782 38.7851 42.7232 39.0434 42.6163C39.3018 42.5093 39.5365 42.3525 39.7343 42.1548C39.932 41.9572 40.0889 41.7225 40.1959 41.4642C40.3029 41.2058 40.358 40.929 40.358 40.6494Z" fill="#E5E3E9"/>
</svg>
