<svg width="14" height="14" viewBox="0 0 14 14" fill="none" xmlns="http://www.w3.org/2000/svg">
<path d="M11.2954 7.04676C11.1635 7.04676 11.037 6.99437 10.9438 6.90112C10.8505 6.80787 10.7981 6.68139 10.7981 6.54951V3.18213H7.4306C7.29871 3.18209 7.17223 3.12967 7.07898 3.0364C6.98574 2.94313 6.93335 2.81664 6.93335 2.68475C6.93335 2.55287 6.98574 2.42639 7.07899 2.33314C7.17224 2.23989 7.29872 2.1875 7.4306 2.1875H11.2954C11.3607 2.1875 11.4253 2.20036 11.4856 2.22535C11.546 2.25034 11.6008 2.28697 11.647 2.33314C11.6931 2.37931 11.7298 2.43413 11.7548 2.49446C11.7797 2.55479 11.7926 2.61945 11.7926 2.68475V6.54951C11.7926 6.68139 11.7402 6.80787 11.647 6.90112C11.5537 6.99437 11.4272 7.04676 11.2954 7.04676Z" fill="#919899"/>
<path d="M6.3253 7.65448C6.37147 7.70068 6.42629 7.73733 6.48663 7.76234C6.54696 7.78734 6.61164 7.80021 6.67695 7.80021C6.74226 7.80021 6.80693 7.78734 6.86727 7.76234C6.9276 7.73733 6.98242 7.70068 7.02859 7.65448L11.3987 3.28442C11.4919 3.19117 11.5443 3.06471 11.5443 2.93285C11.5443 2.80099 11.4919 2.67453 11.3987 2.58128C11.3525 2.53508 11.2977 2.49843 11.2373 2.47342C11.177 2.44842 11.1123 2.43555 11.047 2.43555C10.9817 2.43555 10.917 2.44842 10.8567 2.47342C10.7964 2.49843 10.7416 2.53508 10.6954 2.58128L6.3253 6.9512C6.23207 7.04448 6.17969 7.17096 6.17969 7.30284C6.17969 7.43473 6.23207 7.56121 6.3253 7.65448Z" fill="#919899"/>
<path d="M6.5018 3.51172H3.42262C3.26042 3.51172 3.09981 3.54367 2.94996 3.60574C2.80011 3.66781 2.66395 3.75878 2.54926 3.87348C2.43457 3.98817 2.34359 4.12433 2.28152 4.27418C2.21945 4.42403 2.1875 4.58464 2.1875 4.74684V10.5771C2.18748 10.7393 2.21942 10.8999 2.28148 11.0498C2.34354 11.1996 2.43452 11.3358 2.54922 11.4505C2.66391 11.5652 2.80007 11.6561 2.94993 11.7182C3.09979 11.7803 3.26041 11.8122 3.42262 11.8122H9.25285C9.41505 11.8122 9.57566 11.7802 9.72551 11.7182C9.87536 11.6561 10.0115 11.5651 10.1262 11.4504C10.2409 11.3357 10.3319 11.1996 10.3939 11.0497C10.456 10.8999 10.488 10.7393 10.488 10.5771V7.49789C10.488 7.36735 10.4361 7.24216 10.3438 7.14986C10.2515 7.05756 10.1263 7.0057 9.99578 7.0057C9.86525 7.0057 9.74005 7.05756 9.64775 7.14986C9.55545 7.24216 9.5036 7.36735 9.5036 7.49789V10.5771C9.5036 10.6436 9.47718 10.7073 9.43015 10.7544C9.38313 10.8014 9.31935 10.8278 9.25285 10.8278H3.42262C3.35611 10.8278 3.29234 10.8014 3.24531 10.7544C3.19829 10.7073 3.17188 10.6436 3.17188 10.5771V4.74684C3.17188 4.68033 3.19829 4.61656 3.24531 4.56953C3.29234 4.52251 3.35611 4.49609 3.42262 4.49609H6.5018C6.63233 4.49609 6.75752 4.44424 6.84983 4.35194C6.94213 4.25963 6.99399 4.13444 6.99399 4.00391C6.99399 3.93927 6.98125 3.87527 6.95652 3.81555C6.93178 3.75584 6.89553 3.70158 6.84983 3.65588C6.80412 3.61017 6.74986 3.57392 6.69015 3.54918C6.63043 3.52445 6.56643 3.51172 6.5018 3.51172Z" fill="#919899"/>
</svg>
