<svg width="8" height="8" viewBox="0 0 8 8" fill="none" xmlns="http://www.w3.org/2000/svg">
<path fill-rule="evenodd" clip-rule="evenodd" d="M6.03791 5.64293C6.03791 5.94314 6.28129 6.1865 6.58148 6.1865C6.88167 6.1865 7.12504 5.94314 7.12504 5.64291V1.41857C7.12504 1.11836 6.88169 0.875 6.58148 0.875H2.35713C2.05692 0.875 1.81357 1.11836 1.81357 1.41857C1.81357 1.71878 2.05692 1.96213 2.35713 1.96213H5.26925L1.0342 6.19716C0.821932 6.40943 0.821932 6.7536 1.0342 6.96587C1.14035 7.07202 1.27946 7.12508 1.41856 7.12508C1.55767 7.12508 1.69679 7.07202 1.80292 6.96587L6.03791 2.7309V5.64293Z" fill="#F36464"/>
</svg>
