<svg width="8" height="8" viewBox="0 0 8 8" fill="none" xmlns="http://www.w3.org/2000/svg">
<path fill-rule="evenodd" clip-rule="evenodd" d="M6.96568 1.03421C6.85953 0.928062 6.72043 0.875 6.58133 0.875C6.44222 0.875 6.3031 0.928062 6.19695 1.03421L1.9621 5.26908V2.35713C1.9621 2.05692 1.71873 1.81357 1.41854 1.81357C1.11833 1.81357 0.874979 2.05692 0.875 2.35715V6.58145C0.875 6.88166 1.11835 7.12501 1.41856 7.12501H5.64286C5.94307 7.12501 6.18642 6.88166 6.18642 6.58145C6.18642 6.28124 5.94307 6.03789 5.64286 6.03789H2.73071L6.96568 1.80292C7.17795 1.59065 7.17795 1.24648 6.96568 1.03421Z" fill="#1BC89E"/>
</svg>
