<svg width="1020" height="330" viewBox="0 0 1020 330" fill="none" xmlns="http://www.w3.org/2000/svg">
<path d="M452 119.64C453.58 121.238 455.47 122.495 457.555 123.335C459.639 124.174 461.874 124.577 464.12 124.52C466.365 124.577 468.597 124.173 470.68 123.333C472.763 122.494 474.652 121.237 476.23 119.64C477.811 118.044 479.058 116.15 479.9 114.068C480.741 111.985 481.159 109.756 481.13 107.51C481.185 105.263 480.779 103.03 479.936 100.947C479.093 98.8635 477.832 96.9756 476.23 95.3998C474.684 93.7451 472.806 92.4349 470.719 91.5544C468.633 90.674 466.384 90.2431 464.12 90.2898C461.854 90.2416 459.603 90.6719 457.515 91.5524C455.427 92.4329 453.547 93.7439 452 95.3998C450.399 96.9761 449.139 98.8643 448.298 100.947C447.457 103.03 447.053 105.264 447.11 107.51C447.079 109.755 447.495 111.984 448.335 114.067C449.174 116.149 450.42 118.044 452 119.64Z" fill="#171728"/>
<path d="M449 136.15C448.71 136.464 448.487 136.833 448.343 137.235C448.198 137.637 448.136 138.064 448.16 138.49V236.29C448.136 236.717 448.198 237.144 448.342 237.546C448.486 237.948 448.71 238.316 449 238.63C449.312 238.923 449.681 239.149 450.083 239.295C450.485 239.441 450.913 239.504 451.34 239.48H476.85C477.277 239.504 477.705 239.441 478.107 239.295C478.509 239.149 478.878 238.923 479.19 238.63C479.484 238.319 479.711 237.95 479.857 237.548C480.003 237.146 480.065 236.717 480.04 236.29V138.49C480.064 138.063 480.001 137.635 479.855 137.233C479.709 136.831 479.483 136.462 479.19 136.15C478.876 135.861 478.507 135.637 478.105 135.493C477.703 135.348 477.276 135.286 476.85 135.31H451.36C450.934 135.286 450.507 135.348 450.105 135.493C449.703 135.637 449.334 135.861 449.02 136.15" fill="#171728"/>
<path fill-rule="evenodd" clip-rule="evenodd" d="M719.52 165C723.585 161.845 728.616 160.192 733.76 160.32C738.776 160.193 743.673 161.852 747.58 165C751.407 167.973 753.817 172.363 754.81 178.17H711.86C713 172.37 715.553 167.98 719.52 165ZM781.6 195.4C782.593 193.273 783.087 189.873 783.08 185.2C783.171 176.161 781.057 167.237 776.92 159.2C772.949 151.419 766.92 144.875 759.49 140.28C751.683 135.532 742.686 133.104 733.55 133.28C724.057 133.165 714.715 135.667 706.55 140.51C698.543 145.113 691.93 151.796 687.41 159.85C682.849 168.191 680.507 177.564 680.61 187.07C680.502 196.599 682.917 205.986 687.61 214.28C692.233 222.451 698.991 229.213 707.16 233.84C715.935 238.734 725.844 241.231 735.89 241.08C743.086 241.148 750.223 239.788 756.89 237.08C763.488 234.289 769.482 230.244 774.54 225.17C774.912 224.852 775.217 224.462 775.437 224.024C775.657 223.586 775.787 223.109 775.82 222.62C775.829 222.226 775.758 221.834 775.612 221.468C775.466 221.102 775.248 220.77 774.97 220.49L763.97 209.87C763.386 209.155 762.547 208.696 761.63 208.59C760.771 208.589 759.939 208.89 759.28 209.44C756.118 211.525 752.686 213.171 749.08 214.33C745.819 215.2 742.456 215.631 739.08 215.61C732 215.61 726.12 214.193 721.44 211.36C716.869 208.328 713.606 203.687 712.3 198.36H775.44C778.56 198.36 780.62 197.36 781.61 195.36" fill="#171728"/>
<path fill-rule="evenodd" clip-rule="evenodd" d="M844.24 160.32C839.096 160.194 834.066 161.847 830 165C826 167.973 823.45 172.363 822.35 178.17H865.29C864.297 172.37 861.887 167.98 858.06 165C854.153 161.852 849.256 160.193 844.24 160.32ZM893.57 185.2C893.57 189.867 893.073 193.267 892.08 195.4C891.08 197.4 889.03 198.4 885.92 198.4H822.78C824.081 203.727 827.341 208.369 831.91 211.4C836.577 214.227 842.46 215.643 849.56 215.65C852.936 215.672 856.299 215.241 859.56 214.37C863.168 213.208 866.603 211.563 869.77 209.48C870.425 208.928 871.254 208.627 872.11 208.63C873.027 208.734 873.867 209.194 874.45 209.91L885.45 220.53C885.73 220.808 885.949 221.141 886.095 221.507C886.242 221.874 886.311 222.266 886.3 222.66C886.269 223.149 886.14 223.628 885.92 224.066C885.7 224.504 885.394 224.893 885.02 225.21C879.974 230.265 873.998 234.296 867.42 237.08C860.753 239.787 853.615 241.147 846.42 241.08C836.382 241.229 826.481 238.736 817.71 233.85C809.545 229.217 802.789 222.457 798.16 214.29C793.472 205.994 791.058 196.608 791.16 187.08C791.057 177.574 793.399 168.201 797.96 159.86C802.457 151.83 809.034 145.159 817 140.55C825.165 135.707 834.507 133.205 844 133.32C853.136 133.143 862.134 135.571 869.94 140.32C877.37 144.915 883.399 151.459 887.37 159.24C891.513 167.275 893.631 176.2 893.54 185.24" fill="#171728"/>
<path fill-rule="evenodd" clip-rule="evenodd" d="M973.62 205.18C969.22 209.72 963.62 211.987 956.82 211.98C949.88 211.98 944.213 209.713 939.82 205.18C935.573 200.64 933.447 194.757 933.44 187.53C933.44 180.45 935.567 174.5 939.82 169.68C941.96 167.314 944.589 165.442 947.524 164.194C950.46 162.946 953.632 162.35 956.82 162.45C959.957 162.356 963.078 162.931 965.975 164.138C968.872 165.345 971.478 167.156 973.62 169.45C978.147 174.117 980.413 180.14 980.42 187.52C980.42 194.753 978.153 200.637 973.62 205.17V205.18ZM986.37 140.54C978.671 135.706 969.74 133.196 960.65 133.31C948.463 133.31 938.463 138.27 930.65 148.19L929.58 138.63C929.3 136.503 928.237 135.44 926.39 135.44H904.73C904.303 135.416 903.875 135.479 903.473 135.625C903.071 135.771 902.702 135.997 902.39 136.29C902.099 136.603 901.875 136.972 901.73 137.374C901.586 137.776 901.525 138.203 901.55 138.63V276.82C901.527 277.248 901.589 277.676 901.733 278.08C901.877 278.483 902.101 278.854 902.39 279.17C902.704 279.461 903.072 279.686 903.474 279.832C903.876 279.978 904.303 280.042 904.73 280.02H930.24C930.667 280.043 931.095 279.98 931.497 279.834C931.899 279.688 932.268 279.462 932.58 279.17C932.873 278.856 933.1 278.486 933.246 278.082C933.392 277.678 933.454 277.249 933.43 276.82V230.27C940.383 237.477 949.457 241.08 960.65 241.08C969.71 241.204 978.623 238.779 986.37 234.08C994.043 229.392 1000.29 222.703 1004.45 214.73C1008.86 206.419 1011.13 197.138 1011.04 187.73C1011.16 178.184 1008.89 168.76 1004.45 160.31C1000.39 152.161 994.124 145.313 986.37 140.54Z" fill="#171728"/>
<path d="M557.16 135.31C557.586 135.286 558.013 135.349 558.415 135.493C558.817 135.637 559.186 135.861 559.5 136.15C559.793 136.462 560.019 136.831 560.165 137.233C560.311 137.635 560.374 138.063 560.35 138.49V157.84C560.375 158.266 560.313 158.693 560.166 159.093C560.02 159.494 559.793 159.861 559.5 160.17C559.19 160.466 558.822 160.695 558.419 160.843C558.017 160.991 557.588 161.055 557.16 161.03H540.16V236.29C540.183 236.718 540.119 237.147 539.971 237.549C539.823 237.951 539.595 238.319 539.3 238.63C538.988 238.923 538.619 239.149 538.217 239.295C537.815 239.441 537.387 239.504 536.96 239.48H511.45C511.023 239.504 510.595 239.441 510.193 239.295C509.791 239.149 509.422 238.923 509.11 238.63C508.816 238.319 508.589 237.95 508.443 237.548C508.297 237.146 508.235 236.718 508.26 236.29V161.08H491.26C490.832 161.105 490.403 161.041 490.001 160.893C489.598 160.745 489.23 160.516 488.92 160.22C488.629 159.909 488.403 159.543 488.257 159.142C488.111 158.742 488.047 158.316 488.07 157.89V138.54C488.048 138.113 488.112 137.686 488.258 137.284C488.404 136.882 488.629 136.514 488.92 136.2C489.234 135.911 489.603 135.687 490.005 135.543C490.407 135.399 490.834 135.336 491.26 135.36H508.26V106.65C508.236 106.223 508.299 105.795 508.445 105.393C508.591 104.991 508.817 104.622 509.11 104.31C509.423 104.019 509.791 103.794 510.194 103.65C510.596 103.505 511.023 103.444 511.45 103.47H537C537.427 103.444 537.854 103.505 538.256 103.65C538.659 103.794 539.027 104.019 539.34 104.31C539.635 104.622 539.863 104.99 540.01 105.392C540.158 105.794 540.223 106.222 540.2 106.65V135.36L557.16 135.31Z" fill="#171728"/>
<path fill-rule="evenodd" clip-rule="evenodd" d="M385.83 210.35C392.35 210.35 397.523 208.863 401.35 205.89C405.177 202.916 407.09 198.45 407.09 192.49C407.09 186.677 405.177 182.427 401.35 179.74C397.517 176.9 392.343 175.483 385.83 175.49H362V210.35H385.83ZM398.16 133.35C398.16 124.283 392.56 119.747 381.36 119.74H362V148.23H381.34C386.58 148.23 390.7 147.03 393.67 144.62C396.65 142.06 398.14 138.303 398.14 133.35H398.16ZM410.89 159.93C418.859 162.082 425.98 166.618 431.3 172.93C437.1 179.403 440.218 187.841 440.02 196.53C440.02 210.85 435.413 221.623 426.2 228.85C417.127 235.93 403.24 239.473 384.54 239.48H332.25C331.823 239.504 331.395 239.441 330.993 239.295C330.591 239.149 330.222 238.923 329.91 238.63C329.618 238.318 329.393 237.949 329.249 237.547C329.104 237.144 329.043 236.717 329.07 236.29V93.8498C329.044 93.4232 329.105 92.9957 329.249 92.5934C329.394 92.1912 329.619 91.8225 329.91 91.5098C330.222 91.2171 330.591 90.9908 330.993 90.8447C331.395 90.6986 331.823 90.6357 332.25 90.6598H384.34C393.673 90.6598 401.673 92.3598 408.34 95.7598C414.698 98.7513 420.025 103.561 423.65 109.58C427.232 115.469 429.086 122.247 429 129.14C429.153 135.971 427.304 142.697 423.68 148.49C420.28 154.01 416.027 157.837 410.92 159.97" fill="#171728"/>
<path d="M692.28 238.39C692.287 237.7 692.061 237.027 691.64 236.48L632.45 156.68L689.58 95.1801C690.161 94.6993 690.539 94.0174 690.64 93.2701C690.643 92.9949 690.564 92.7249 690.412 92.4951C690.261 92.2652 690.044 92.0858 689.79 91.9801C689.527 91.7537 689.222 91.5815 688.893 91.4734C688.563 91.3653 688.216 91.3234 687.87 91.3501H659C658.31 91.3464 657.627 91.4971 657.002 91.7913C656.378 92.0854 655.827 92.5155 655.39 93.0501L600.61 152.43V94.5501C600.633 94.1221 600.569 93.6938 600.421 93.2914C600.273 92.8891 600.045 92.5211 599.75 92.2101C599.441 91.9154 599.075 91.6871 598.674 91.5392C598.273 91.3913 597.846 91.3269 597.42 91.3501H571.87C571.442 91.3255 571.013 91.3892 570.611 91.5371C570.208 91.685 569.84 91.9141 569.53 92.2101C569.236 92.5216 569.009 92.8899 568.863 93.2923C568.717 93.6947 568.655 94.1228 568.68 94.5501V237.08C568.654 237.508 568.716 237.936 568.862 238.338C569.009 238.741 569.236 239.109 569.53 239.42C569.841 239.714 570.209 239.942 570.612 240.088C571.014 240.234 571.443 240.296 571.87 240.27H597.38C597.806 240.295 598.232 240.233 598.633 240.087C599.034 239.94 599.4 239.714 599.71 239.42C600.006 239.11 600.235 238.742 600.383 238.339C600.531 237.937 600.595 237.508 600.57 237.08V191.08L613.11 177.48L658.48 238.35C658.893 238.976 659.463 239.482 660.134 239.817C660.805 240.152 661.552 240.305 662.3 240.26H689.73C691.43 240.26 692.28 239.63 692.28 238.35" fill="#171728"/>
<path fill-rule="evenodd" clip-rule="evenodd" d="M265.28 101.27V115.82C265.28 117.225 264.911 118.605 264.209 119.821C263.507 121.038 262.496 122.048 261.28 122.75L214.4 149.81L256.27 173.91C259.008 175.491 261.281 177.765 262.861 180.504C264.441 183.242 265.272 186.349 265.27 189.51V228.28C265.274 231.444 264.444 234.552 262.864 237.292C261.284 240.033 259.01 242.309 256.27 243.89L146.12 307.08C143.384 308.66 140.28 309.492 137.12 309.492C133.96 309.492 130.856 308.66 128.12 307.08L92.12 286.27C91.5115 285.919 91.0062 285.414 90.6548 284.806C90.3034 284.198 90.1185 283.508 90.1185 282.805C90.1185 282.103 90.3034 281.413 90.6548 280.804C91.0062 280.196 91.5115 279.691 92.12 279.34L211.12 210.85C211.425 210.675 211.679 210.422 211.856 210.118C212.032 209.813 212.125 209.467 212.125 209.115C212.125 208.763 212.032 208.417 211.856 208.113C211.679 207.808 211.425 207.555 211.12 207.38L166.94 181.86C165.724 181.158 164.344 180.788 162.94 180.788C161.536 180.788 160.156 181.158 158.94 181.86L38 251.48C37.0879 252.007 36.0532 252.284 35 252.284C33.9468 252.284 32.9121 252.007 32 251.48L18.32 243.64C15.5664 242.064 13.2782 239.789 11.6871 237.044C10.0961 234.299 9.25877 231.183 9.26001 228.01V212.14C9.25934 211.086 9.53625 210.051 10.0629 209.138C10.5895 208.225 11.3473 207.467 12.26 206.94L185.6 107.37C185.905 107.195 186.159 106.942 186.336 106.638C186.512 106.333 186.605 105.987 186.605 105.635C186.605 105.283 186.512 104.937 186.336 104.633C186.159 104.328 185.905 104.075 185.6 103.9L141.35 78.3002C140.134 77.5981 138.754 77.2284 137.35 77.2284C135.946 77.2284 134.566 77.5981 133.35 78.3002L15.35 146.2C14.7415 146.552 14.0512 146.736 13.3485 146.736C12.6459 146.736 11.9557 146.55 11.3475 146.199C10.7392 145.847 10.2343 145.341 9.8837 144.732C9.53304 144.123 9.34897 143.433 9.35001 142.73V101.08C9.35128 97.912 10.1888 94.8002 11.7778 92.0593C13.3669 89.3184 15.6512 87.0455 18.4 85.4702L128.49 22.2902C131.22 20.7196 134.315 19.8931 137.465 19.8931C140.615 19.8931 143.71 20.7196 146.44 22.2902L256.32 85.6602C259.052 87.2469 261.318 89.5248 262.891 92.2649C264.464 95.005 265.288 98.1108 265.28 101.27Z" fill="#171728"/>
</svg>
