<svg width="24" height="24" viewBox="0 0 24 24" fill="none" xmlns="http://www.w3.org/2000/svg">
<path fill-rule="evenodd" clip-rule="evenodd" d="M12.9 17.5V19.3H16.5V21.1H7.50003V19.3H11.1V17.5H3.89283C3.77465 17.4993 3.65777 17.4752 3.54889 17.4293C3.44001 17.3833 3.34127 17.3163 3.25833 17.2321C3.17539 17.1479 3.10988 17.0482 3.06556 16.9386C3.02123 16.8291 2.99897 16.7119 3.00004 16.5937V4.9063C3.00004 4.4059 3.40954 4 3.89283 4H20.1072C20.6004 4 21 4.4041 21 4.9063V16.5937C21 17.0941 20.5905 17.5 20.1072 17.5H12.9ZM7.5 8H16.5V9.8H7.5V8ZM12 12H7.5V13.8H12V12Z" fill="#919899"/>
</svg>
