<svg width="20" height="20" viewBox="0 0 20 20" fill="none" xmlns="http://www.w3.org/2000/svg">
<path fill-rule="evenodd" clip-rule="evenodd" d="M18.3333 10.0003C18.3333 14.6027 14.6023 18.3337 9.99996 18.3337C5.39759 18.3337 1.66663 14.6027 1.66663 10.0003C1.66663 5.39795 5.39759 1.66699 9.99996 1.66699C14.6023 1.66699 18.3333 5.39795 18.3333 10.0003ZM13.7499 14.1221V8.62533H11.25C11.1394 8.62533 11.0335 8.57704 10.9553 8.49108C10.8772 8.40513 10.8333 8.28855 10.8333 8.16699V5.41699H6.66579C6.43621 5.41699 6.24996 5.62553 6.24996 5.87166V14.129C6.25007 14.2496 6.29371 14.3653 6.37129 14.4505C6.44887 14.5358 6.55405 14.5837 6.66371 14.5837H13.3362C13.3909 14.5832 13.445 14.571 13.4954 14.5475C13.5458 14.5241 13.5916 14.49 13.63 14.4472C13.6684 14.4043 13.6988 14.3535 13.7194 14.2978C13.7399 14.242 13.7503 14.1823 13.7499 14.1221ZM11.6666 7.70866H13.7499L11.6666 5.41837V7.70866ZM8.33329 8.62533V7.70866H9.58329V8.62533H8.33329ZM11.6666 10.4587H8.33329V9.54199H11.6666V10.4587ZM8.33329 12.292V11.3753H11.6666V12.292H8.33329Z" fill="#1BC89E"/>
</svg>
