<svg width="14" height="14" viewBox="0 0 14 14" fill="none" xmlns="http://www.w3.org/2000/svg">
<path fill-rule="evenodd" clip-rule="evenodd" d="M4.37504 1.58398C4.14851 1.58398 3.96488 1.76762 3.96488 1.99414C3.96488 2.22066 4.14851 2.4043 4.37504 2.4043H9.6439C9.90577 2.4043 10.1651 2.45588 10.407 2.55611C10.6489 2.65633 10.8687 2.80323 11.0539 2.98842C11.239 3.17361 11.3859 3.39345 11.486 3.6354C11.5862 3.87735 11.6377 4.13666 11.6377 4.39852V9.66734C11.6377 9.89387 11.8213 10.0775 12.0478 10.0775C12.2744 10.0775 12.458 9.89387 12.458 9.66734V4.39871V4.39861C12.4581 4.02904 12.3853 3.66307 12.244 3.32161C12.1026 2.98011 11.8953 2.66982 11.634 2.40844C11.3727 2.14706 11.0624 1.93972 10.721 1.79825C10.3795 1.65679 10.0135 1.58398 9.6439 1.58398H4.37504ZM2.36609 4.71649C2.36609 4.33895 2.67214 4.03289 3.04968 4.03289H9.31373C9.69126 4.03289 9.99732 4.33895 9.99732 4.71649V10.9805C9.99732 11.3581 9.69126 11.6641 9.31373 11.6641H3.04968C2.67214 11.6641 2.36609 11.3581 2.36609 10.9805V4.71649ZM3.04968 3.21258C2.2191 3.21258 1.54578 3.8859 1.54578 4.71649V10.9805C1.54578 11.8111 2.2191 12.4844 3.04968 12.4844H9.31373C10.1443 12.4844 10.8176 11.8111 10.8176 10.9805V4.71649C10.8176 3.8859 10.1443 3.21258 9.31373 3.21258H3.04968Z" fill="#919899"/>
</svg>
