<svg width="14" height="14" viewBox="0 0 14 14" fill="none" xmlns="http://www.w3.org/2000/svg">
<rect x="0.5" y="0.5" width="13" height="13" rx="6.5" fill="#F2F2F5"/>
<path d="M7.03687 3.63965C7.18178 3.87961 7.321 4.10981 7.45991 4.34019C8.00033 5.23646 8.53949 6.1335 9.08298 7.0279C9.1344 7.11252 9.12073 7.1433 9.0379 7.19152C8.39079 7.56829 7.74687 7.95049 7.10291 8.33263C7.06217 8.35681 7.03258 8.37236 6.98451 8.34379C6.3178 7.94736 5.64975 7.55321 4.98213 7.15831C4.96859 7.1503 4.95625 7.14028 4.93579 7.12589C5.63443 5.96666 6.33207 4.8091 7.03687 3.63965ZM9.12759 7.42582C9.10027 7.42124 9.08409 7.42822 9.06904 7.43711C8.4254 7.81757 7.78115 8.197 7.13928 8.58039C7.06289 8.62602 7.00845 8.63254 6.92682 8.5835C6.30563 8.21033 5.68049 7.84375 5.05651 7.47523C5.02844 7.45865 4.99969 7.44321 4.97125 7.42725C4.96754 7.43264 4.96382 7.43803 4.96011 7.44342C5.65041 8.41621 6.34072 9.389 7.0372 10.3705C7.73741 9.38412 8.4325 8.40497 9.12759 7.42582Z" fill="#8F95AA"/>
<rect x="0.5" y="0.5" width="13" height="13" rx="6.5" stroke="white"/>
</svg>
