<svg width="19" height="19" viewBox="0 0 19 19" fill="none" xmlns="http://www.w3.org/2000/svg">
<path fill-rule="evenodd" clip-rule="evenodd" d="M11.5965 0.746094C11.2081 0.746094 10.8933 1.06089 10.8933 1.44922C10.8933 1.83754 11.2081 2.15234 11.5965 2.15234H15.9264L9.39349 8.68523C9.11891 8.95982 9.11891 9.40501 9.39349 9.6796C9.66808 9.95418 10.1133 9.95418 10.3879 9.6796L16.8915 3.17603V7.50617C16.8915 7.8945 17.2063 8.2093 17.5946 8.2093C17.9829 8.2093 18.2977 7.8945 18.2977 7.50617V1.44922C18.2977 1.06089 17.9829 0.746094 17.5946 0.746094H11.5965ZM8.02543 1.42498C8.12839 1.79941 7.90832 2.18641 7.53389 2.28936C4.35971 3.16216 2.02271 6.0748 2.02271 9.51921C2.02271 13.6525 5.38643 17.0162 9.51942 17.0162C12.3595 17.0162 14.8382 15.4288 16.1107 13.0896L16.1107 13.0894C16.4026 12.5531 16.6274 11.9828 16.7799 11.3915C16.8769 11.0155 17.2604 10.7893 17.6364 10.8863C18.0124 10.9834 18.2386 11.3668 18.1416 11.7428C17.9602 12.4459 17.693 13.1239 17.3459 13.7616C15.8378 16.534 12.8964 18.4224 9.51942 18.4224C4.60976 18.4224 0.616455 14.4291 0.616455 9.51921C0.616455 5.42425 3.39351 1.96939 7.16105 0.933436C7.53548 0.83048 7.92248 1.05055 8.02543 1.42498Z" fill="#0E0E0E"/>
</svg>
