<svg width="64" height="64" viewBox="0 0 64 64" fill="none" xmlns="http://www.w3.org/2000/svg">
<path fill-rule="evenodd" clip-rule="evenodd" d="M10.875 8.91797C10.875 7.88243 10.0355 7.04297 9 7.04297C7.96447 7.04297 7.125 7.88243 7.125 8.91797V54.8923C7.125 55.9279 7.96447 56.7673 9 56.7673H55C56.0355 56.7673 56.875 55.9279 56.875 54.8923C56.875 53.8568 56.0355 53.0173 55 53.0173H10.875V8.91797ZM56.3258 17.1694C57.058 16.4372 57.0581 15.25 56.3259 14.5178C55.5936 13.7855 54.4064 13.7855 53.6742 14.5177L39.4305 28.7608L33.2614 23.0327C32.5224 22.3465 31.3729 22.3678 30.6598 23.0809L15.6742 38.0665C14.9419 38.7987 14.9419 39.9859 15.6742 40.7182C16.4064 41.4504 17.5936 41.4504 18.3258 40.7182L32.0339 27.0101L38.2029 32.7382C38.942 33.4244 40.0914 33.4032 40.8045 32.6901L56.3258 17.1694Z" fill="#2E2D38"/>
</svg>
