<svg width="123" height="36" viewBox="0 0 123 36" fill="none" xmlns="http://www.w3.org/2000/svg">
<path d="M54.3922 12.6049C54.5858 12.7986 54.8174 12.951 55.0729 13.0528C55.3283 13.1545 55.6022 13.2034 55.8775 13.1964C56.1526 13.2033 56.4262 13.1543 56.6814 13.0526C56.9366 12.9509 57.1681 12.7985 57.3615 12.6049C57.5553 12.4115 57.7081 12.1819 57.8112 11.9295C57.9143 11.677 57.9656 11.4068 57.962 11.1346C57.9688 10.8623 57.919 10.5915 57.8157 10.339C57.7124 10.0866 57.5578 9.85772 57.3615 9.66671C57.172 9.46615 56.9419 9.30733 56.6862 9.20061C56.4305 9.09389 56.1549 9.04165 55.8775 9.04732C55.5998 9.04148 55.324 9.09363 55.068 9.20036C54.8121 9.30709 54.5818 9.466 54.3922 9.66671C54.196 9.85778 54.0416 10.0867 53.9385 10.3391C53.8354 10.5916 53.7859 10.8624 53.7929 11.1346C53.7891 11.4067 53.8401 11.6769 53.943 11.9294C54.0459 12.1818 54.1986 12.4114 54.3922 12.6049Z" fill="#E5E3E9"/>
<path d="M54.0245 14.6063C53.989 14.6444 53.9616 14.6891 53.9439 14.7378C53.9262 14.7865 53.9186 14.8383 53.9215 14.89V26.7445C53.9186 26.7962 53.9261 26.848 53.9438 26.8967C53.9615 26.9454 53.9889 26.9901 54.0245 27.0281C54.0627 27.0636 54.1079 27.0911 54.1572 27.1088C54.2065 27.1265 54.2589 27.1341 54.3112 27.1312H57.4375C57.4898 27.1341 57.5422 27.1265 57.5915 27.1088C57.6408 27.0911 57.686 27.0636 57.7242 27.0281C57.7602 26.9904 57.788 26.9458 57.8059 26.897C57.8239 26.8482 57.8315 26.7963 57.8284 26.7445V14.89C57.8313 14.8382 57.8236 14.7863 57.8057 14.7376C57.7878 14.6888 57.7601 14.6442 57.7242 14.6063C57.6857 14.5712 57.6405 14.5441 57.5913 14.5266C57.542 14.5092 57.4897 14.5016 57.4375 14.5045H54.3137C54.2614 14.5016 54.2091 14.5092 54.1599 14.5266C54.1106 14.5441 54.0654 14.5712 54.0269 14.6063" fill="#E5E3E9"/>
<path fill-rule="evenodd" clip-rule="evenodd" d="M87.1765 18.1037C87.6747 17.7213 88.2912 17.5209 88.9216 17.5365C89.5363 17.5211 90.1365 17.7221 90.6153 18.1037C91.0842 18.4642 91.3796 18.9963 91.5013 19.7001H86.2378C86.3775 18.9971 86.6904 18.465 87.1765 18.1037ZM94.7844 21.7886C94.9061 21.5308 94.9666 21.1187 94.9657 20.5522C94.977 19.4566 94.7178 18.3749 94.2108 17.4007C93.7241 16.4575 92.9854 15.6644 92.0748 15.1074C91.1181 14.5318 90.0155 14.2375 88.8959 14.2589C87.7325 14.245 86.5877 14.5482 85.5871 15.1353C84.6058 15.6932 83.7954 16.5032 83.2415 17.4795C82.6825 18.4905 82.3955 19.6266 82.4081 20.7789C82.3949 21.9339 82.6908 23.0718 83.266 24.0771C83.8326 25.0676 84.6607 25.8871 85.6618 26.448C86.7372 27.0412 87.9515 27.3439 89.1827 27.3256C90.0645 27.3338 90.9392 27.169 91.7562 26.8407C92.5648 26.5024 93.2994 26.0121 93.9192 25.3971C93.9648 25.3585 94.0022 25.3113 94.0291 25.2582C94.0561 25.2051 94.072 25.1472 94.076 25.088C94.0771 25.0402 94.0685 24.9928 94.0506 24.9484C94.0327 24.904 94.0059 24.8637 93.9719 24.8298L92.6238 23.5425C92.5523 23.4559 92.4494 23.4003 92.3371 23.3874C92.2318 23.3872 92.1299 23.4237 92.0491 23.4904C91.6616 23.7432 91.241 23.9426 90.7991 24.0831C90.3994 24.1886 89.9872 24.2408 89.5736 24.2383C88.7059 24.2383 87.9854 24.0666 87.4118 23.7231C86.8516 23.3556 86.4518 22.7931 86.2917 22.1474H94.0295C94.4118 22.1474 94.6643 22.0262 94.7856 21.7837" fill="#E5E3E9"/>
<path fill-rule="evenodd" clip-rule="evenodd" d="M102.461 17.5365C101.83 17.5213 101.214 17.7217 100.716 18.1038C100.226 18.4642 99.9131 18.9963 99.7783 19.7002H105.041C104.919 18.9971 104.623 18.465 104.154 18.1038C103.676 17.7222 103.076 17.5211 102.461 17.5365ZM108.506 20.5523C108.506 21.1179 108.445 21.5301 108.324 21.7886C108.201 22.0311 107.95 22.1523 107.569 22.1523H99.831C99.9904 22.798 100.39 23.3606 100.95 23.728C101.522 24.0707 102.243 24.2424 103.113 24.2432C103.526 24.2458 103.939 24.1936 104.338 24.088C104.781 23.9472 105.201 23.7478 105.59 23.4953C105.67 23.4284 105.771 23.3919 105.876 23.3923C105.989 23.4049 106.092 23.4606 106.163 23.5474L107.511 24.8347C107.545 24.8684 107.572 24.9087 107.59 24.9531C107.608 24.9975 107.617 25.0451 107.615 25.0929C107.612 25.1522 107.596 25.2101 107.569 25.2633C107.542 25.3164 107.504 25.3636 107.458 25.402C106.84 26.0147 106.108 26.5033 105.302 26.8408C104.484 27.1689 103.61 27.3337 102.728 27.3256C101.498 27.3437 100.284 27.0414 99.2096 26.4492C98.209 25.8877 97.3811 25.0683 96.8138 24.0783C96.2394 23.0728 95.9434 21.9351 95.956 20.7802C95.9434 19.6279 96.2303 18.4918 96.7893 17.4808C97.3403 16.5074 98.1464 15.6988 99.1226 15.1402C100.123 14.5531 101.268 14.2499 102.431 14.2638C103.551 14.2423 104.654 14.5366 105.61 15.1123C106.521 15.6692 107.26 16.4624 107.746 17.4056C108.254 18.3796 108.514 19.4614 108.503 20.5571" fill="#E5E3E9"/>
<path fill-rule="evenodd" clip-rule="evenodd" d="M118.316 22.9737C117.777 23.524 117.091 23.7987 116.257 23.7979C115.407 23.7979 114.712 23.5232 114.174 22.9737C113.654 22.4234 113.393 21.7102 113.392 20.8343C113.392 19.9761 113.653 19.2549 114.174 18.6707C114.436 18.3839 114.758 18.157 115.118 18.0057C115.478 17.8544 115.867 17.7822 116.257 17.7943C116.642 17.7829 117.024 17.8527 117.379 17.999C117.734 18.1453 118.054 18.3648 118.316 18.6428C118.871 19.2084 119.149 19.9385 119.15 20.8331C119.15 21.7098 118.872 22.423 118.316 22.9725V22.9737ZM119.879 15.1385C118.935 14.5526 117.841 14.2484 116.727 14.2622C115.233 14.2622 114.008 14.8634 113.05 16.0658L112.919 14.907C112.885 14.6492 112.755 14.5204 112.528 14.5204H109.874C109.821 14.5174 109.769 14.525 109.72 14.5428C109.67 14.5605 109.625 14.5879 109.587 14.6234C109.551 14.6613 109.524 14.706 109.506 14.7548C109.488 14.8035 109.481 14.8553 109.484 14.907V31.6573C109.481 31.7092 109.489 31.7611 109.507 31.81C109.524 31.8589 109.552 31.9039 109.587 31.9422C109.625 31.9774 109.671 32.0047 109.72 32.0224C109.769 32.0401 109.821 32.0478 109.874 32.0452H113C113.052 32.0481 113.105 32.0404 113.154 32.0227C113.203 32.005 113.248 31.9776 113.287 31.9422C113.323 31.9041 113.35 31.8592 113.368 31.8103C113.386 31.7613 113.394 31.7093 113.391 31.6573V26.0149C114.243 26.8884 115.355 27.3252 116.727 27.3252C117.837 27.3403 118.929 27.0463 119.879 26.4767C120.819 25.9085 121.585 25.0977 122.094 24.1313C122.635 23.1239 122.913 21.999 122.902 20.8585C122.916 19.7015 122.639 18.5591 122.094 17.5349C121.596 16.5472 120.829 15.7171 119.879 15.1385Z" fill="#E5E3E9"/>
<path d="M67.2795 14.5046C67.3317 14.5018 67.3841 14.5093 67.4333 14.5268C67.4826 14.5443 67.5278 14.5714 67.5663 14.6065C67.6021 14.6443 67.6299 14.6889 67.6478 14.7377C67.6657 14.7865 67.6734 14.8383 67.6704 14.8901V17.2355C67.6735 17.2872 67.6658 17.3389 67.6479 17.3874C67.63 17.436 67.6022 17.4804 67.5663 17.518C67.5282 17.5538 67.4831 17.5816 67.4338 17.5995C67.3845 17.6175 67.332 17.6252 67.2795 17.6222H65.1961V26.7446C65.199 26.7965 65.1912 26.8484 65.173 26.8972C65.1549 26.946 65.1269 26.9906 65.0908 27.0283C65.0525 27.0638 65.0074 27.0912 64.9581 27.1089C64.9088 27.1266 64.8564 27.1342 64.804 27.1313H61.6778C61.6254 27.1342 61.573 27.1266 61.5237 27.1089C61.4744 27.0912 61.4293 27.0638 61.391 27.0283C61.355 26.9905 61.3272 26.9459 61.3093 26.8971C61.2914 26.8483 61.2837 26.7964 61.2868 26.7446V17.6283H59.2035C59.151 17.6313 59.0985 17.6235 59.0492 17.6056C58.9998 17.5877 58.9548 17.5599 58.9167 17.524C58.881 17.4863 58.8534 17.4419 58.8355 17.3933C58.8176 17.3448 58.8098 17.2932 58.8126 17.2416V14.8962C58.8099 14.8444 58.8177 14.7926 58.8356 14.7439C58.8535 14.6952 58.8811 14.6505 58.9167 14.6125C58.9552 14.5774 59.0004 14.5503 59.0497 14.5328C59.0989 14.5153 59.1512 14.5078 59.2035 14.5107H61.2868V11.0307C61.2839 10.9789 61.2916 10.9271 61.3095 10.8783C61.3274 10.8295 61.3551 10.7849 61.391 10.7471C61.4293 10.7117 61.4745 10.6845 61.5238 10.667C61.5731 10.6495 61.6255 10.6421 61.6778 10.6452H64.8089C64.8612 10.6421 64.9136 10.6495 64.9629 10.667C65.0122 10.6845 65.0574 10.7117 65.0957 10.7471C65.1318 10.7848 65.1597 10.8294 65.1778 10.8782C65.1959 10.9269 65.2039 10.9788 65.2011 11.0307V14.5107L67.2795 14.5046Z" fill="#E5E3E9"/>
<path fill-rule="evenodd" clip-rule="evenodd" d="M46.283 23.6003C47.0821 23.6003 47.7161 23.4201 48.185 23.0597C48.654 22.6993 48.8884 22.1579 48.8884 21.4354C48.8884 20.7308 48.654 20.2156 48.185 19.89C47.7152 19.5457 47.0812 19.374 46.283 19.3748H43.3627V23.6003H46.283ZM47.7941 14.267C47.7941 13.168 47.1078 12.6181 45.7353 12.6173H43.3627V16.0706H45.7328C46.375 16.0706 46.8799 15.9251 47.2438 15.633C47.609 15.3227 47.7916 14.8674 47.7916 14.267H47.7941ZM49.3541 17.4888C50.3307 17.7496 51.2034 18.2994 51.8554 19.0645C52.5661 19.8491 52.9482 20.8719 52.924 21.9251C52.924 23.6609 52.3594 24.9668 51.2304 25.8427C50.1184 26.7009 48.4166 27.1304 46.125 27.1312H39.7169C39.6645 27.1341 39.6121 27.1265 39.5628 27.1088C39.5135 27.0911 39.4684 27.0636 39.4301 27.0282C39.3943 26.9903 39.3667 26.9456 39.349 26.8969C39.3313 26.8481 39.3239 26.7962 39.3272 26.7445V9.47907C39.324 9.42736 39.3314 9.37555 39.3491 9.32679C39.3668 9.27802 39.3944 9.23333 39.4301 9.19544C39.4684 9.15995 39.5135 9.13252 39.5628 9.11481C39.6121 9.0971 39.6645 9.08948 39.7169 9.09241H46.1004C47.2442 9.09241 48.2246 9.29847 49.0416 9.71059C49.8207 10.0732 50.4737 10.6561 50.9179 11.3857C51.3568 12.0996 51.584 12.9212 51.5735 13.7567C51.5923 14.5847 51.3657 15.4 50.9215 16.1021C50.5049 16.7712 49.9836 17.235 49.3578 17.4936" fill="#E5E3E9"/>
<path d="M83.8382 26.9988C83.839 26.9151 83.8114 26.8336 83.7598 26.7673L76.5061 17.0945L83.5073 9.64C83.5785 9.58172 83.6249 9.49906 83.6372 9.40848C83.6376 9.37512 83.6279 9.3424 83.6093 9.31453C83.5908 9.28667 83.5642 9.26493 83.533 9.25212C83.5009 9.22468 83.4635 9.2038 83.4231 9.1907C83.3827 9.17759 83.3401 9.17251 83.2978 9.17576H79.7598C79.6752 9.1753 79.5915 9.19358 79.515 9.22923C79.4384 9.26488 79.3709 9.31702 79.3174 9.38182L72.6041 16.5794V9.56364C72.607 9.51175 72.5991 9.45984 72.581 9.41107C72.5629 9.3623 72.5349 9.3177 72.4987 9.28C72.4608 9.24427 72.416 9.21659 72.3669 9.19867C72.3178 9.18074 72.2655 9.17294 72.2132 9.17576H69.0821C69.0296 9.17277 68.9771 9.18049 68.9277 9.19842C68.8784 9.21635 68.8333 9.24412 68.7953 9.28C68.7593 9.31776 68.7315 9.36239 68.7136 9.41117C68.6957 9.45995 68.688 9.51183 68.6911 9.56364V26.84C68.688 26.8918 68.6956 26.9437 68.7135 26.9925C68.7314 27.0413 68.7592 27.0859 68.7953 27.1236C68.8334 27.1593 68.8786 27.1868 68.9279 27.2046C68.9772 27.2223 69.0297 27.2298 69.0821 27.2267H72.2083C72.2605 27.2297 72.3127 27.2221 72.3619 27.2044C72.411 27.1867 72.4559 27.1592 72.4938 27.1236C72.5301 27.086 72.5582 27.0414 72.5763 26.9926C72.5944 26.9438 72.6022 26.8919 72.5992 26.84V21.2642L74.136 19.6158L79.696 26.9939C79.7466 27.0698 79.8166 27.1311 79.8987 27.1717C79.9809 27.2124 80.0725 27.2309 80.1642 27.2254H83.5257C83.734 27.2254 83.8382 27.1491 83.8382 26.9939" fill="#E5E3E9"/>
<path fill-rule="evenodd" clip-rule="evenodd" d="M31.5098 10.3785V12.1422C31.5098 12.3124 31.4645 12.4797 31.3785 12.6272C31.2924 12.7746 31.1686 12.8971 31.0196 12.9822L25.2745 16.2622L30.4056 19.1834C30.7411 19.375 31.0197 19.6507 31.2134 19.9826C31.407 20.3145 31.5088 20.6911 31.5085 21.0743V25.7737C31.509 26.1571 31.4073 26.5339 31.2137 26.8661C31.02 27.1983 30.7413 27.4741 30.4056 27.6658L16.9068 35.3252C16.5715 35.5167 16.1911 35.6175 15.8039 35.6175C15.4167 35.6175 15.0363 35.5167 14.7009 35.3252L10.2892 32.8028C10.2146 32.7602 10.1527 32.699 10.1096 32.6253C10.0666 32.5516 10.0439 32.4679 10.0439 32.3828C10.0439 32.2976 10.0666 32.214 10.1096 32.1403C10.1527 32.0665 10.2146 32.0053 10.2892 31.9628L24.8725 23.661C24.9099 23.6397 24.941 23.6091 24.9627 23.5722C24.9843 23.5353 24.9957 23.4933 24.9957 23.4507C24.9957 23.408 24.9843 23.3661 24.9627 23.3291C24.941 23.2922 24.9099 23.2616 24.8725 23.2404L19.4583 20.147C19.3093 20.0619 19.1402 20.0171 18.9681 20.0171C18.796 20.0171 18.6269 20.0619 18.4779 20.147L3.65682 28.5858C3.54505 28.6496 3.41825 28.6833 3.28918 28.6833C3.16011 28.6833 3.03331 28.6496 2.92153 28.5858L1.24506 27.6355C0.907606 27.4445 0.627185 27.1687 0.432205 26.836C0.237225 26.5033 0.134613 26.1255 0.134766 25.741V23.8173C0.134683 23.6896 0.168619 23.5641 0.233159 23.4534C0.297698 23.3428 0.390565 23.2509 0.502413 23.187L21.7451 11.1179C21.7825 11.0967 21.8136 11.0661 21.8352 11.0292C21.8568 10.9922 21.8682 10.9503 21.8682 10.9076C21.8682 10.865 21.8568 10.823 21.8352 10.7861C21.8136 10.7492 21.7825 10.7186 21.7451 10.6973L16.3223 7.5943C16.1732 7.50919 16.0042 7.46439 15.8321 7.46439C15.66 7.46439 15.4909 7.50919 15.3419 7.5943L0.881089 15.8246C0.806517 15.8672 0.721919 15.8896 0.63581 15.8896C0.549702 15.8895 0.465121 15.8671 0.39058 15.8244C0.316039 15.7818 0.25417 15.7205 0.211198 15.6467C0.168226 15.5729 0.145668 15.4892 0.145795 15.404V10.3555C0.145951 9.97149 0.248582 9.5943 0.443319 9.26207C0.638056 8.92984 0.917999 8.65434 1.25486 8.46339L14.7463 0.805209C15.0809 0.614838 15.4601 0.514648 15.8462 0.514648C16.2322 0.514648 16.6114 0.614838 16.946 0.805209L30.4117 8.48642C30.7465 8.67875 31.0243 8.95486 31.217 9.28699C31.4098 9.61912 31.5107 9.99559 31.5098 10.3785Z" fill="#E5E3E9"/>
</svg>
