<svg width="30" height="30" viewBox="0 0 30 30" fill="none" xmlns="http://www.w3.org/2000/svg">
<path d="M15 30C23.2843 30 30 23.2843 30 15C30 6.71573 23.2843 0 15 0C6.71573 0 0 6.71573 0 15C0 23.2843 6.71573 30 15 30Z" fill="white"/>
<path d="M16.4648 20.2116V9.6709C16.4648 9.08848 16.9371 8.61621 17.5195 8.61621C18.102 8.61621 18.5742 9.08848 18.5742 9.6709V17.9481L20.9174 15.605C21.3293 15.1931 21.997 15.1931 22.4089 15.605C22.8208 16.0169 22.8208 16.6846 22.4089 17.0965L18.4655 21.0404C17.7272 21.7787 16.4648 21.2558 16.4648 20.2116Z" fill="#7524F9"/>
<path d="M13.5352 9.7913V20.332C13.5352 20.9144 13.063 21.3867 12.4805 21.3867C11.8981 21.3867 11.4258 20.9144 11.4258 20.332V12.0548L9.08267 14.3979C8.67076 14.8099 8.00308 14.8099 7.59116 14.3979C7.17925 13.986 7.17925 13.3183 7.59116 12.9064L11.5348 8.96278C12.2728 8.2245 13.5352 8.74745 13.5352 9.7913Z" fill="#7524F9"/>
</svg>
