<svg width="24" height="24" viewBox="0 0 24 24" fill="none" xmlns="http://www.w3.org/2000/svg">
<path fill-rule="evenodd" clip-rule="evenodd" d="M5.32031 6C5.32031 5.61167 5.63511 5.29688 6.02344 5.29688H17.9766C18.3649 5.29688 18.6797 5.61167 18.6797 6C18.6797 6.38833 18.3649 6.70312 17.9766 6.70312H6.02344C5.63511 6.70312 5.32031 6.38833 5.32031 6Z" fill="#E5E5E5"/>
<path fill-rule="evenodd" clip-rule="evenodd" d="M12 8.29688C12.3883 8.29688 12.7031 8.61167 12.7031 9V20.25C12.7031 20.6383 12.3883 20.9531 12 20.9531C11.6117 20.9531 11.2969 20.6383 11.2969 20.25V9C11.2969 8.61167 11.6117 8.29688 12 8.29688Z" fill="#E5E5E5"/>
<path fill-rule="evenodd" clip-rule="evenodd" d="M11.5028 8.50282C11.7774 8.22823 12.2226 8.22823 12.4972 8.50282L19.2472 15.2528C19.5218 15.5274 19.5218 15.9726 19.2472 16.2472C18.9726 16.5218 18.5274 16.5218 18.2528 16.2472L12 9.99437L5.74718 16.2472C5.4726 16.5218 5.0274 16.5218 4.75282 16.2472C4.47823 15.9726 4.47823 15.5274 4.75282 15.2528L11.5028 8.50282Z" fill="#E5E5E5"/>
</svg>
