<svg width="1272" height="220" viewBox="0 0 1272 220" fill="none" xmlns="http://www.w3.org/2000/svg">
<rect width="1272" height="220" rx="10" fill="#F8F8F9"/>
<path d="M139.631 101H131.896V79.1818H139.695C141.889 79.1818 143.778 79.6186 145.362 80.4922C146.946 81.3587 148.164 82.6051 149.016 84.2315C149.876 85.858 150.305 87.804 150.305 90.0696C150.305 92.3423 149.876 94.2955 149.016 95.929C148.164 97.5625 146.939 98.8161 145.341 99.6896C143.75 100.563 141.847 101 139.631 101ZM136.509 97.0476H139.439C140.803 97.0476 141.95 96.8061 142.88 96.3232C143.817 95.8331 144.521 95.0767 144.989 94.054C145.465 93.0241 145.703 91.696 145.703 90.0696C145.703 88.4574 145.465 87.1399 144.989 86.1172C144.521 85.0945 143.821 84.3416 142.891 83.8587C141.96 83.3757 140.813 83.1342 139.45 83.1342H136.509V97.0476ZM164.131 94.0327V84.6364H168.669V101H164.312V98.0277H164.142C163.772 98.9865 163.158 99.7571 162.298 100.339C161.446 100.922 160.406 101.213 159.177 101.213C158.083 101.213 157.121 100.964 156.29 100.467C155.459 99.9702 154.809 99.2635 154.34 98.3473C153.879 97.4311 153.644 96.3338 153.637 95.0554V84.6364H158.176V94.2457C158.183 95.2116 158.442 95.9751 158.953 96.5362C159.465 97.0973 160.15 97.3778 161.009 97.3778C161.556 97.3778 162.068 97.2536 162.544 97.005C163.019 96.7493 163.403 96.3729 163.694 95.8757C163.992 95.3786 164.138 94.7642 164.131 94.0327ZM176.966 101.309C175.922 101.309 174.991 101.128 174.174 100.766C173.358 100.396 172.711 99.853 172.235 99.1357C171.767 98.4112 171.532 97.5092 171.532 96.4297C171.532 95.5206 171.699 94.7571 172.033 94.1392C172.367 93.5213 172.821 93.0241 173.397 92.6477C173.972 92.2713 174.625 91.9872 175.357 91.7955C176.096 91.6037 176.87 91.4688 177.679 91.3906C178.631 91.2912 179.398 91.1989 179.98 91.1136C180.563 91.0213 180.985 90.8864 181.248 90.7088C181.511 90.5312 181.642 90.2685 181.642 89.9205V89.8565C181.642 89.1818 181.429 88.6598 181.003 88.2905C180.584 87.9212 179.988 87.7365 179.213 87.7365C178.397 87.7365 177.747 87.9176 177.264 88.2798C176.781 88.6349 176.461 89.0824 176.305 89.6222L172.108 89.2812C172.321 88.2869 172.74 87.4276 173.365 86.7031C173.99 85.9716 174.796 85.4105 175.783 85.0199C176.777 84.6222 177.928 84.4233 179.235 84.4233C180.144 84.4233 181.014 84.5298 181.845 84.7429C182.683 84.956 183.425 85.2862 184.071 85.7337C184.725 86.1811 185.24 86.7564 185.616 87.4595C185.993 88.1555 186.181 88.9901 186.181 89.9631V101H181.877V98.7308H181.749C181.486 99.2422 181.135 99.6932 180.694 100.084C180.254 100.467 179.725 100.769 179.107 100.989C178.489 101.202 177.775 101.309 176.966 101.309ZM178.265 98.1768C178.933 98.1768 179.522 98.0455 180.034 97.7827C180.545 97.5128 180.946 97.1506 181.238 96.696C181.529 96.2415 181.674 95.7266 181.674 95.1513V93.4148C181.532 93.5071 181.337 93.5923 181.088 93.6705C180.847 93.7415 180.574 93.8089 180.268 93.8729C179.963 93.9297 179.657 93.983 179.352 94.0327C179.047 94.0753 178.77 94.1143 178.521 94.1499C177.988 94.228 177.523 94.3523 177.125 94.5227C176.728 94.6932 176.419 94.924 176.199 95.2152C175.978 95.4993 175.868 95.8544 175.868 96.2805C175.868 96.8984 176.092 97.3707 176.539 97.6974C176.994 98.017 177.569 98.1768 178.265 98.1768ZM194.24 79.1818V101H189.702V79.1818H194.24ZM204.819 101V84.6364H209.219V87.4915H209.389C209.688 86.4759 210.188 85.7088 210.891 85.1903C211.594 84.6648 212.404 84.402 213.32 84.402C213.548 84.402 213.793 84.4162 214.055 84.4446C214.318 84.473 214.549 84.5121 214.748 84.5618V88.5888C214.535 88.5249 214.24 88.468 213.864 88.4183C213.487 88.3686 213.143 88.3438 212.83 88.3438C212.163 88.3438 211.566 88.4893 211.04 88.7805C210.522 89.0646 210.11 89.4624 209.805 89.9737C209.506 90.4851 209.357 91.0746 209.357 91.7422V101H204.819ZM223.79 101.32C222.107 101.32 220.658 100.979 219.443 100.297C218.236 99.608 217.306 98.6349 216.652 97.3778C215.999 96.1136 215.672 94.6186 215.672 92.8928C215.672 91.2095 215.999 89.7322 216.652 88.4609C217.306 87.1896 218.225 86.1989 219.411 85.4886C220.605 84.7784 222.004 84.4233 223.609 84.4233C224.688 84.4233 225.693 84.5973 226.624 84.9453C227.561 85.2862 228.378 85.8011 229.074 86.4901C229.777 87.179 230.324 88.0455 230.715 89.0895C231.105 90.1264 231.301 91.3409 231.301 92.733V93.9794H217.483V91.1669H227.029C227.029 90.5135 226.887 89.9347 226.602 89.4304C226.318 88.9261 225.924 88.532 225.42 88.2479C224.923 87.9567 224.344 87.8111 223.683 87.8111C222.994 87.8111 222.384 87.9709 221.851 88.2905C221.325 88.603 220.914 89.0256 220.615 89.5582C220.317 90.0838 220.164 90.6697 220.157 91.3161V93.9901C220.157 94.7997 220.306 95.4993 220.605 96.0888C220.91 96.6783 221.34 97.1328 221.894 97.4524C222.448 97.772 223.105 97.9318 223.865 97.9318C224.369 97.9318 224.83 97.8608 225.249 97.7188C225.669 97.5767 226.027 97.3636 226.325 97.0795C226.624 96.7955 226.851 96.4474 227.007 96.0355L231.205 96.3125C230.992 97.321 230.555 98.2017 229.894 98.9545C229.241 99.7003 228.396 100.283 227.359 100.702C226.329 101.114 225.139 101.32 223.79 101.32ZM237.373 101L232.92 84.6364H237.512L240.047 95.6307H240.196L242.838 84.6364H247.345L250.029 95.5668H250.168L252.661 84.6364H257.242L252.799 101H247.994L245.182 90.7088H244.98L242.167 101H237.373ZM264.329 101.309C263.285 101.309 262.354 101.128 261.538 100.766C260.721 100.396 260.075 99.853 259.599 99.1357C259.13 98.4112 258.896 97.5092 258.896 96.4297C258.896 95.5206 259.063 94.7571 259.396 94.1392C259.73 93.5213 260.185 93.0241 260.76 92.6477C261.335 92.2713 261.989 91.9872 262.72 91.7955C263.459 91.6037 264.233 91.4688 265.043 91.3906C265.994 91.2912 266.761 91.1989 267.344 91.1136C267.926 91.0213 268.349 90.8864 268.612 90.7088C268.874 90.5312 269.006 90.2685 269.006 89.9205V89.8565C269.006 89.1818 268.793 88.6598 268.366 88.2905C267.947 87.9212 267.351 87.7365 266.577 87.7365C265.76 87.7365 265.11 87.9176 264.627 88.2798C264.144 88.6349 263.825 89.0824 263.668 89.6222L259.471 89.2812C259.684 88.2869 260.103 87.4276 260.728 86.7031C261.353 85.9716 262.159 85.4105 263.146 85.0199C264.141 84.6222 265.291 84.4233 266.598 84.4233C267.507 84.4233 268.377 84.5298 269.208 84.7429C270.046 84.956 270.788 85.2862 271.435 85.7337C272.088 86.1811 272.603 86.7564 272.979 87.4595C273.356 88.1555 273.544 88.9901 273.544 89.9631V101H269.24V98.7308H269.112C268.849 99.2422 268.498 99.6932 268.058 100.084C267.617 100.467 267.088 100.769 266.47 100.989C265.852 101.202 265.138 101.309 264.329 101.309ZM265.629 98.1768C266.296 98.1768 266.886 98.0455 267.397 97.7827C267.908 97.5128 268.31 97.1506 268.601 96.696C268.892 96.2415 269.038 95.7266 269.038 95.1513V93.4148C268.896 93.5071 268.7 93.5923 268.452 93.6705C268.21 93.7415 267.937 93.8089 267.631 93.8729C267.326 93.9297 267.021 93.983 266.715 94.0327C266.41 94.0753 266.133 94.1143 265.884 94.1499C265.352 94.228 264.886 94.3523 264.489 94.5227C264.091 94.6932 263.782 94.924 263.562 95.2152C263.342 95.4993 263.232 95.8544 263.232 96.2805C263.232 96.8984 263.455 97.3707 263.903 97.6974C264.357 98.017 264.933 98.1768 265.629 98.1768ZM277.065 101V84.6364H281.465V87.4915H281.635C281.934 86.4759 282.434 85.7088 283.137 85.1903C283.841 84.6648 284.65 84.402 285.566 84.402C285.794 84.402 286.039 84.4162 286.301 84.4446C286.564 84.473 286.795 84.5121 286.994 84.5618V88.5888C286.781 88.5249 286.486 88.468 286.11 88.4183C285.733 88.3686 285.389 88.3438 285.076 88.3438C284.409 88.3438 283.812 88.4893 283.287 88.7805C282.768 89.0646 282.356 89.4624 282.051 89.9737C281.752 90.4851 281.603 91.0746 281.603 91.7422V101H277.065ZM294.608 101.266C293.366 101.266 292.24 100.947 291.231 100.308C290.23 99.6612 289.434 98.7131 288.845 97.4631C288.263 96.206 287.971 94.6648 287.971 92.8395C287.971 90.9645 288.273 89.4055 288.877 88.1626C289.481 86.9126 290.283 85.9787 291.285 85.3608C292.293 84.7358 293.398 84.4233 294.598 84.4233C295.514 84.4233 296.278 84.5795 296.888 84.892C297.506 85.1974 298.003 85.581 298.38 86.0426C298.763 86.4972 299.055 86.9446 299.253 87.3849H299.392V79.1818H303.92V101H299.445V98.3793H299.253C299.04 98.8338 298.738 99.2848 298.348 99.7322C297.964 100.173 297.464 100.538 296.846 100.83C296.235 101.121 295.489 101.266 294.608 101.266ZM296.047 97.6548C296.778 97.6548 297.396 97.456 297.9 97.0582C298.412 96.6534 298.802 96.0888 299.072 95.3643C299.349 94.6399 299.488 93.7912 299.488 92.8182C299.488 91.8452 299.353 91 299.083 90.2827C298.813 89.5653 298.422 89.0114 297.911 88.6207C297.4 88.2301 296.778 88.0348 296.047 88.0348C295.301 88.0348 294.672 88.2372 294.161 88.642C293.65 89.0469 293.263 89.608 293 90.3253C292.737 91.0426 292.606 91.8736 292.606 92.8182C292.606 93.7699 292.737 94.6115 293 95.343C293.27 96.0675 293.657 96.6357 294.161 97.0476C294.672 97.4524 295.301 97.6548 296.047 97.6548ZM314.594 107.136V84.6364H319.069V87.3849H319.271C319.47 86.9446 319.758 86.4972 320.134 86.0426C320.518 85.581 321.015 85.1974 321.626 84.892C322.243 84.5795 323.01 84.4233 323.927 84.4233C325.12 84.4233 326.221 84.7358 327.229 85.3608C328.238 85.9787 329.044 86.9126 329.648 88.1626C330.251 89.4055 330.553 90.9645 330.553 92.8395C330.553 94.6648 330.258 96.206 329.669 97.4631C329.086 98.7131 328.291 99.6612 327.282 100.308C326.281 100.947 325.159 101.266 323.916 101.266C323.035 101.266 322.286 101.121 321.668 100.83C321.057 100.538 320.557 100.173 320.166 99.7322C319.775 99.2848 319.477 98.8338 319.271 98.3793H319.133V107.136H314.594ZM319.037 92.8182C319.037 93.7912 319.172 94.6399 319.442 95.3643C319.711 96.0888 320.102 96.6534 320.613 97.0582C321.125 97.456 321.746 97.6548 322.478 97.6548C323.216 97.6548 323.841 97.4524 324.353 97.0476C324.864 96.6357 325.251 96.0675 325.514 95.343C325.784 94.6115 325.919 93.7699 325.919 92.8182C325.919 91.8736 325.787 91.0426 325.525 90.3253C325.262 89.608 324.875 89.0469 324.363 88.642C323.852 88.2372 323.224 88.0348 322.478 88.0348C321.739 88.0348 321.114 88.2301 320.603 88.6207C320.099 89.0114 319.711 89.5653 319.442 90.2827C319.172 91 319.037 91.8452 319.037 92.8182ZM340.972 101.32C339.317 101.32 337.886 100.968 336.679 100.265C335.479 99.5547 334.552 98.5675 333.898 97.3033C333.245 96.032 332.918 94.5582 332.918 92.8821C332.918 91.1918 333.245 89.7145 333.898 88.4503C334.552 87.179 335.479 86.1918 336.679 85.4886C337.886 84.7784 339.317 84.4233 340.972 84.4233C342.627 84.4233 344.055 84.7784 345.255 85.4886C346.462 86.1918 347.393 87.179 348.046 88.4503C348.699 89.7145 349.026 91.1918 349.026 92.8821C349.026 94.5582 348.699 96.032 348.046 97.3033C347.393 98.5675 346.462 99.5547 345.255 100.265C344.055 100.968 342.627 101.32 340.972 101.32ZM340.993 97.804C341.746 97.804 342.375 97.5909 342.879 97.1648C343.383 96.7315 343.763 96.142 344.019 95.3963C344.282 94.6506 344.413 93.8018 344.413 92.8501C344.413 91.8984 344.282 91.0497 344.019 90.304C343.763 89.5582 343.383 88.9687 342.879 88.5355C342.375 88.1023 341.746 87.8857 340.993 87.8857C340.233 87.8857 339.594 88.1023 339.076 88.5355C338.564 88.9687 338.177 89.5582 337.915 90.304C337.659 91.0497 337.531 91.8984 337.531 92.8501C337.531 93.8018 337.659 94.6506 337.915 95.3963C338.177 96.142 338.564 96.7315 339.076 97.1648C339.594 97.5909 340.233 97.804 340.993 97.804ZM359.371 101.32C357.716 101.32 356.285 100.968 355.077 100.265C353.877 99.5547 352.95 98.5675 352.297 97.3033C351.643 96.032 351.317 94.5582 351.317 92.8821C351.317 91.1918 351.643 89.7145 352.297 88.4503C352.95 87.179 353.877 86.1918 355.077 85.4886C356.285 84.7784 357.716 84.4233 359.371 84.4233C361.025 84.4233 362.453 84.7784 363.653 85.4886C364.861 86.1918 365.791 87.179 366.444 88.4503C367.098 89.7145 367.425 91.1918 367.425 92.8821C367.425 94.5582 367.098 96.032 366.444 97.3033C365.791 98.5675 364.861 99.5547 363.653 100.265C362.453 100.968 361.025 101.32 359.371 101.32ZM359.392 97.804C360.145 97.804 360.773 97.5909 361.278 97.1648C361.782 96.7315 362.162 96.142 362.417 95.3963C362.68 94.6506 362.812 93.8018 362.812 92.8501C362.812 91.8984 362.68 91.0497 362.417 90.304C362.162 89.5582 361.782 88.9687 361.278 88.5355C360.773 88.1023 360.145 87.8857 359.392 87.8857C358.632 87.8857 357.993 88.1023 357.474 88.5355C356.963 88.9687 356.576 89.5582 356.313 90.304C356.057 91.0497 355.93 91.8984 355.93 92.8501C355.93 93.8018 356.057 94.6506 356.313 95.3963C356.576 96.142 356.963 96.7315 357.474 97.1648C357.993 97.5909 358.632 97.804 359.392 97.804ZM374.914 79.1818V101H370.376V79.1818H374.914ZM392.164 89.3026L388.01 89.5582C387.939 89.2031 387.786 88.8835 387.551 88.5994C387.317 88.3082 387.008 88.0774 386.625 87.907C386.248 87.7294 385.797 87.6406 385.272 87.6406C384.569 87.6406 383.975 87.7898 383.493 88.0881C383.01 88.3793 382.768 88.7699 382.768 89.2599C382.768 89.6506 382.924 89.9808 383.237 90.2507C383.549 90.5206 384.086 90.7372 384.846 90.9006L387.807 91.4972C389.398 91.8239 390.584 92.3494 391.365 93.0739C392.147 93.7983 392.537 94.75 392.537 95.929C392.537 97.0014 392.221 97.9425 391.589 98.7521C390.964 99.5618 390.105 100.194 389.011 100.648C387.924 101.096 386.671 101.32 385.25 101.32C383.084 101.32 381.358 100.869 380.073 99.9666C378.794 99.0575 378.045 97.8217 377.825 96.2592L382.289 96.0249C382.424 96.6854 382.75 97.1896 383.269 97.5376C383.787 97.8786 384.451 98.049 385.261 98.049C386.056 98.049 386.696 97.8963 387.179 97.5909C387.669 97.2784 387.917 96.8771 387.924 96.3871C387.917 95.9751 387.743 95.6378 387.402 95.375C387.061 95.1051 386.536 94.8991 385.826 94.7571L382.992 94.1925C381.394 93.8729 380.204 93.3189 379.423 92.5305C378.649 91.7422 378.262 90.7372 378.262 89.5156C378.262 88.4645 378.546 87.5589 379.114 86.799C379.689 86.0391 380.495 85.4531 381.532 85.0412C382.576 84.6293 383.798 84.4233 385.197 84.4233C387.264 84.4233 388.89 84.8601 390.076 85.7337C391.27 86.6072 391.966 87.7969 392.164 89.3026ZM407.005 101.309C405.961 101.309 405.03 101.128 404.213 100.766C403.397 100.396 402.75 99.853 402.275 99.1357C401.806 98.4112 401.571 97.5092 401.571 96.4297C401.571 95.5206 401.738 94.7571 402.072 94.1392C402.406 93.5213 402.86 93.0241 403.436 92.6477C404.011 92.2713 404.664 91.9872 405.396 91.7955C406.135 91.6037 406.909 91.4688 407.718 91.3906C408.67 91.2912 409.437 91.1989 410.02 91.1136C410.602 91.0213 411.025 90.8864 411.287 90.7088C411.55 90.5312 411.681 90.2685 411.681 89.9205V89.8565C411.681 89.1818 411.468 88.6598 411.042 88.2905C410.623 87.9212 410.027 87.7365 409.252 87.7365C408.436 87.7365 407.786 87.9176 407.303 88.2798C406.82 88.6349 406.5 89.0824 406.344 89.6222L402.147 89.2812C402.36 88.2869 402.779 87.4276 403.404 86.7031C404.029 85.9716 404.835 85.4105 405.822 85.0199C406.816 84.6222 407.967 84.4233 409.274 84.4233C410.183 84.4233 411.053 84.5298 411.884 84.7429C412.722 84.956 413.464 85.2862 414.11 85.7337C414.764 86.1811 415.279 86.7564 415.655 87.4595C416.032 88.1555 416.22 88.9901 416.22 89.9631V101H411.916V98.7308H411.788C411.525 99.2422 411.174 99.6932 410.733 100.084C410.293 100.467 409.764 100.769 409.146 100.989C408.528 101.202 407.814 101.309 407.005 101.309ZM408.304 98.1768C408.972 98.1768 409.561 98.0455 410.073 97.7827C410.584 97.5128 410.985 97.1506 411.277 96.696C411.568 96.2415 411.713 95.7266 411.713 95.1513V93.4148C411.571 93.5071 411.376 93.5923 411.127 93.6705C410.886 93.7415 410.613 93.8089 410.307 93.8729C410.002 93.9297 409.696 93.983 409.391 94.0327C409.086 94.0753 408.809 94.1143 408.56 94.1499C408.027 94.228 407.562 94.3523 407.164 94.5227C406.767 94.6932 406.458 94.924 406.238 95.2152C406.017 95.4993 405.907 95.8544 405.907 96.2805C405.907 96.8984 406.131 97.3707 406.578 97.6974C407.033 98.017 407.608 98.1768 408.304 98.1768ZM424.279 91.5398V101H419.741V84.6364H424.066V87.5234H424.258C424.62 86.5717 425.227 85.8189 426.08 85.2649C426.932 84.7038 427.965 84.4233 429.18 84.4233C430.316 84.4233 431.307 84.6719 432.152 85.169C432.997 85.6662 433.654 86.3764 434.123 87.2997C434.592 88.2159 434.826 89.3097 434.826 90.581V101H430.288V91.3906C430.295 90.3892 430.039 89.608 429.521 89.0469C429.002 88.4787 428.288 88.1946 427.379 88.1946C426.768 88.1946 426.229 88.326 425.76 88.5888C425.298 88.8516 424.936 89.2351 424.673 89.7393C424.418 90.2365 424.286 90.8366 424.279 91.5398ZM444.433 101.266C443.19 101.266 442.064 100.947 441.056 100.308C440.054 99.6612 439.259 98.7131 438.669 97.4631C438.087 96.206 437.796 94.6648 437.796 92.8395C437.796 90.9645 438.097 89.4055 438.701 88.1626C439.305 86.9126 440.107 85.9787 441.109 85.3608C442.117 84.7358 443.222 84.4233 444.422 84.4233C445.338 84.4233 446.102 84.5795 446.713 84.892C447.33 85.1974 447.828 85.581 448.204 86.0426C448.588 86.4972 448.879 86.9446 449.078 87.3849H449.216V79.1818H453.744V101H449.269V98.3793H449.078C448.865 98.8338 448.563 99.2848 448.172 99.7322C447.789 100.173 447.288 100.538 446.67 100.83C446.059 101.121 445.313 101.266 444.433 101.266ZM445.871 97.6548C446.602 97.6548 447.22 97.456 447.725 97.0582C448.236 96.6534 448.627 96.0888 448.896 95.3643C449.173 94.6399 449.312 93.7912 449.312 92.8182C449.312 91.8452 449.177 91 448.907 90.2827C448.637 89.5653 448.247 89.0114 447.735 88.6207C447.224 88.2301 446.602 88.0348 445.871 88.0348C445.125 88.0348 444.497 88.2372 443.985 88.642C443.474 89.0469 443.087 89.608 442.824 90.3253C442.561 91.0426 442.43 91.8736 442.43 92.8182C442.43 93.7699 442.561 94.6115 442.824 95.343C443.094 96.0675 443.481 96.6357 443.985 97.0476C444.497 97.4524 445.125 97.6548 445.871 97.6548ZM197.376 150V128.182H203.242V131.989H203.469C203.867 130.634 204.535 129.612 205.472 128.92C206.41 128.22 207.489 127.869 208.711 127.869C209.014 127.869 209.341 127.888 209.691 127.926C210.041 127.964 210.349 128.016 210.614 128.082V133.452C210.33 133.366 209.937 133.291 209.435 133.224C208.933 133.158 208.474 133.125 208.058 133.125C207.167 133.125 206.372 133.319 205.671 133.707C204.98 134.086 204.431 134.616 204.023 135.298C203.626 135.98 203.427 136.766 203.427 137.656V150H197.376ZM222.67 150.426C220.426 150.426 218.494 149.972 216.875 149.062C215.265 148.144 214.025 146.847 213.153 145.17C212.282 143.485 211.847 141.491 211.847 139.19C211.847 136.946 212.282 134.976 213.153 133.281C214.025 131.586 215.251 130.265 216.832 129.318C218.423 128.371 220.289 127.898 222.429 127.898C223.868 127.898 225.208 128.13 226.449 128.594C227.699 129.048 228.788 129.735 229.716 130.653C230.653 131.572 231.383 132.727 231.903 134.119C232.424 135.502 232.685 137.121 232.685 138.977V140.639H214.261V136.889H226.989C226.989 136.018 226.799 135.246 226.42 134.574C226.042 133.902 225.516 133.376 224.844 132.997C224.181 132.609 223.409 132.415 222.528 132.415C221.61 132.415 220.795 132.628 220.085 133.054C219.384 133.471 218.835 134.034 218.438 134.744C218.04 135.445 217.836 136.226 217.827 137.088V140.653C217.827 141.733 218.026 142.666 218.423 143.452C218.83 144.238 219.403 144.844 220.142 145.27C220.881 145.696 221.757 145.909 222.77 145.909C223.442 145.909 224.058 145.814 224.616 145.625C225.175 145.436 225.653 145.152 226.051 144.773C226.449 144.394 226.752 143.93 226.96 143.381L232.557 143.75C232.273 145.095 231.69 146.269 230.81 147.273C229.938 148.267 228.812 149.044 227.429 149.602C226.056 150.152 224.47 150.426 222.67 150.426ZM240.781 150L234.844 128.182H240.966L244.347 142.841H244.545L248.068 128.182H254.077L257.656 142.756H257.841L261.165 128.182H267.273L261.349 150H254.943L251.193 136.278H250.923L247.173 150H240.781ZM276.722 150.412C275.33 150.412 274.09 150.17 273.001 149.688C271.912 149.195 271.05 148.471 270.415 147.514C269.79 146.548 269.478 145.346 269.478 143.906C269.478 142.694 269.701 141.676 270.146 140.852C270.591 140.028 271.197 139.366 271.964 138.864C272.731 138.362 273.602 137.983 274.577 137.727C275.562 137.472 276.594 137.292 277.674 137.188C278.943 137.055 279.966 136.932 280.742 136.818C281.519 136.695 282.082 136.515 282.433 136.278C282.783 136.042 282.958 135.691 282.958 135.227V135.142C282.958 134.242 282.674 133.546 282.106 133.054C281.547 132.562 280.752 132.315 279.719 132.315C278.63 132.315 277.764 132.557 277.12 133.04C276.476 133.513 276.05 134.11 275.842 134.83L270.245 134.375C270.529 133.049 271.088 131.903 271.921 130.938C272.754 129.962 273.829 129.214 275.146 128.693C276.471 128.163 278.005 127.898 279.748 127.898C280.96 127.898 282.12 128.04 283.228 128.324C284.345 128.608 285.335 129.048 286.197 129.645C287.068 130.241 287.754 131.009 288.256 131.946C288.758 132.874 289.009 133.987 289.009 135.284V150H283.271V146.974H283.1C282.75 147.656 282.281 148.258 281.694 148.778C281.107 149.29 280.401 149.692 279.577 149.986C278.754 150.27 277.802 150.412 276.722 150.412ZM278.455 146.236C279.345 146.236 280.131 146.061 280.813 145.71C281.495 145.35 282.03 144.867 282.418 144.261C282.807 143.655 283.001 142.969 283.001 142.202V139.886C282.811 140.009 282.551 140.123 282.219 140.227C281.897 140.322 281.533 140.412 281.126 140.497C280.719 140.573 280.311 140.644 279.904 140.71C279.497 140.767 279.128 140.819 278.796 140.866C278.086 140.971 277.466 141.136 276.935 141.364C276.405 141.591 275.993 141.899 275.7 142.287C275.406 142.666 275.259 143.139 275.259 143.707C275.259 144.531 275.558 145.161 276.154 145.597C276.76 146.023 277.527 146.236 278.455 146.236ZM293.704 150V128.182H299.57V131.989H299.798C300.195 130.634 300.863 129.612 301.8 128.92C302.738 128.22 303.817 127.869 305.039 127.869C305.342 127.869 305.669 127.888 306.019 127.926C306.37 127.964 306.677 128.016 306.942 128.082V133.452C306.658 133.366 306.265 133.291 305.763 133.224C305.262 133.158 304.802 133.125 304.386 133.125C303.496 133.125 302.7 133.319 301.999 133.707C301.308 134.086 300.759 134.616 300.352 135.298C299.954 135.98 299.755 136.766 299.755 137.656V150H293.704ZM317.095 150.355C315.438 150.355 313.937 149.929 312.592 149.077C311.257 148.215 310.196 146.951 309.411 145.284C308.634 143.608 308.246 141.553 308.246 139.119C308.246 136.619 308.648 134.541 309.453 132.884C310.258 131.217 311.328 129.972 312.663 129.148C314.008 128.314 315.481 127.898 317.081 127.898C318.303 127.898 319.321 128.106 320.135 128.523C320.959 128.93 321.622 129.441 322.124 130.057C322.635 130.663 323.023 131.259 323.288 131.847H323.473V120.909H329.51V150H323.544V146.506H323.288C323.004 147.112 322.602 147.713 322.081 148.31C321.57 148.897 320.902 149.384 320.078 149.773C319.264 150.161 318.269 150.355 317.095 150.355ZM319.013 145.54C319.988 145.54 320.812 145.275 321.484 144.744C322.166 144.205 322.687 143.452 323.047 142.486C323.416 141.52 323.601 140.388 323.601 139.091C323.601 137.794 323.421 136.667 323.061 135.71C322.701 134.754 322.18 134.015 321.499 133.494C320.817 132.973 319.988 132.713 319.013 132.713C318.018 132.713 317.18 132.983 316.499 133.523C315.817 134.062 315.301 134.811 314.95 135.767C314.6 136.723 314.425 137.831 314.425 139.091C314.425 140.36 314.6 141.482 314.95 142.457C315.31 143.423 315.826 144.181 316.499 144.73C317.18 145.27 318.018 145.54 319.013 145.54ZM352.638 134.403L347.099 134.744C347.004 134.271 346.8 133.845 346.488 133.466C346.175 133.078 345.763 132.77 345.252 132.543C344.75 132.306 344.149 132.188 343.448 132.188C342.511 132.188 341.72 132.386 341.076 132.784C340.432 133.172 340.11 133.693 340.11 134.347C340.11 134.867 340.318 135.308 340.735 135.668C341.152 136.027 341.867 136.316 342.88 136.534L346.829 137.33C348.95 137.765 350.531 138.466 351.573 139.432C352.615 140.398 353.136 141.667 353.136 143.239C353.136 144.669 352.714 145.923 351.871 147.003C351.038 148.082 349.892 148.925 348.434 149.531C346.985 150.128 345.314 150.426 343.42 150.426C340.531 150.426 338.23 149.825 336.516 148.622C334.812 147.41 333.813 145.762 333.519 143.679L339.471 143.366C339.651 144.247 340.086 144.92 340.778 145.384C341.469 145.838 342.354 146.065 343.434 146.065C344.495 146.065 345.347 145.862 345.991 145.455C346.644 145.038 346.976 144.503 346.985 143.849C346.976 143.3 346.744 142.85 346.289 142.5C345.835 142.14 345.134 141.866 344.187 141.676L340.408 140.923C338.278 140.497 336.692 139.759 335.65 138.707C334.618 137.656 334.102 136.316 334.102 134.688C334.102 133.286 334.48 132.079 335.238 131.065C336.005 130.052 337.08 129.271 338.462 128.722C339.854 128.172 341.483 127.898 343.349 127.898C346.104 127.898 348.273 128.48 349.854 129.645C351.445 130.81 352.373 132.396 352.638 134.403ZM366.204 150V128.182H372.255V150H366.204ZM369.244 125.369C368.344 125.369 367.572 125.071 366.928 124.474C366.294 123.868 365.977 123.144 365.977 122.301C365.977 121.468 366.294 120.753 366.928 120.156C367.572 119.55 368.344 119.247 369.244 119.247C370.143 119.247 370.91 119.55 371.545 120.156C372.189 120.753 372.511 121.468 372.511 122.301C372.511 123.144 372.189 123.868 371.545 124.474C370.91 125.071 370.143 125.369 369.244 125.369ZM383.153 137.386V150H377.102V128.182H382.869V132.031H383.125C383.608 130.762 384.418 129.759 385.554 129.02C386.69 128.272 388.068 127.898 389.688 127.898C391.203 127.898 392.524 128.229 393.651 128.892C394.777 129.555 395.653 130.502 396.278 131.733C396.903 132.955 397.216 134.413 397.216 136.108V150H391.165V137.188C391.174 135.852 390.833 134.811 390.142 134.062C389.451 133.305 388.499 132.926 387.287 132.926C386.473 132.926 385.753 133.101 385.128 133.452C384.512 133.802 384.029 134.313 383.679 134.986C383.338 135.649 383.163 136.449 383.153 137.386ZM411.357 150V120.909H423.004C425.144 120.909 426.929 121.226 428.359 121.861C429.789 122.495 430.864 123.376 431.584 124.503C432.304 125.62 432.663 126.908 432.663 128.366C432.663 129.503 432.436 130.502 431.982 131.364C431.527 132.216 430.902 132.917 430.107 133.466C429.321 134.006 428.421 134.389 427.408 134.616V134.901C428.516 134.948 429.553 135.26 430.518 135.838C431.494 136.416 432.285 137.225 432.891 138.267C433.497 139.299 433.8 140.53 433.8 141.96C433.8 143.504 433.416 144.882 432.649 146.094C431.892 147.296 430.769 148.248 429.283 148.949C427.796 149.65 425.964 150 423.786 150H411.357ZM417.507 144.972H422.521C424.235 144.972 425.485 144.645 426.271 143.991C427.057 143.329 427.45 142.448 427.45 141.349C427.45 140.545 427.256 139.834 426.868 139.219C426.48 138.603 425.926 138.12 425.206 137.77C424.496 137.42 423.648 137.244 422.663 137.244H417.507V144.972ZM417.507 133.082H422.067C422.91 133.082 423.658 132.936 424.311 132.642C424.974 132.339 425.495 131.913 425.874 131.364C426.262 130.814 426.456 130.156 426.456 129.389C426.456 128.338 426.082 127.491 425.334 126.847C424.595 126.203 423.544 125.881 422.18 125.881H417.507V133.082ZM437.802 150V120.909H443.952V133.736H444.336L454.805 120.909H462.177L451.381 133.935L462.305 150H454.947L446.978 138.04L443.952 141.733V150H437.802ZM465.38 150V120.909H477.028C479.168 120.909 480.953 121.226 482.383 121.861C483.813 122.495 484.888 123.376 485.607 124.503C486.327 125.62 486.687 126.908 486.687 128.366C486.687 129.503 486.46 130.502 486.005 131.364C485.55 132.216 484.925 132.917 484.13 133.466C483.344 134.006 482.444 134.389 481.431 134.616V134.901C482.539 134.948 483.576 135.26 484.542 135.838C485.517 136.416 486.308 137.225 486.914 138.267C487.52 139.299 487.823 140.53 487.823 141.96C487.823 143.504 487.44 144.882 486.673 146.094C485.915 147.296 484.793 148.248 483.306 148.949C481.819 149.65 479.987 150 477.809 150H465.38ZM471.531 144.972H476.545C478.259 144.972 479.509 144.645 480.295 143.991C481.081 143.329 481.474 142.448 481.474 141.349C481.474 140.545 481.28 139.834 480.891 139.219C480.503 138.603 479.949 138.12 479.229 137.77C478.519 137.42 477.672 137.244 476.687 137.244H471.531V144.972ZM471.531 133.082H476.09C476.933 133.082 477.681 132.936 478.335 132.642C478.997 132.339 479.518 131.913 479.897 131.364C480.285 130.814 480.479 130.156 480.479 129.389C480.479 128.338 480.105 127.491 479.357 126.847C478.619 126.203 477.567 125.881 476.204 125.881H471.531V133.082Z" fill="#0E0E0E"/>
<path d="M131.918 144.886V140.043L144.062 120.909H148.239V127.614H145.767L138.111 139.73V139.957H155.369V144.886H131.918ZM145.881 150V143.409L145.994 141.264V120.909H151.761V150H145.881ZM165.405 120.909L171.271 130.824H171.499L177.393 120.909H184.339L175.462 135.455L184.538 150H177.464L171.499 140.071H171.271L165.305 150H158.26L167.365 135.455L158.43 120.909H165.405Z" fill="#7524F9"/>
</svg>
