<svg width="14" height="14" viewBox="0 0 14 14" fill="none" xmlns="http://www.w3.org/2000/svg">
<path d="M7 14C10.866 14 14 10.866 14 7C14 3.13401 10.866 0 7 0C3.13401 0 0 3.13401 0 7C0 10.866 3.13401 14 7 14Z" fill="#53AE94"/>
<path d="M7.82691 6.03023V5.03461H10.1038V3.51758H3.90379V5.03461H6.18082V6.02945C4.3302 6.11429 2.93848 6.48101 2.93848 6.91992C2.93848 7.35882 4.33082 7.72554 6.18082 7.81132V11.0007H7.8277V7.81086C9.67488 7.72554 11.0636 7.35929 11.0636 6.9207C11.0636 6.48211 9.67488 6.11586 7.8277 6.03054L7.82691 6.03023ZM7.8277 7.54086V7.54007C7.78129 7.54304 7.54254 7.55742 7.01113 7.55742C6.58629 7.55742 6.28738 7.54539 6.18223 7.53992V7.54133C4.54676 7.46883 3.32645 7.18414 3.32645 6.84351C3.32645 6.50289 4.54707 6.21851 6.18176 6.14601V7.25773C6.28895 7.26508 6.5952 7.2832 7.01785 7.2832C7.52566 7.2832 7.78098 7.26211 7.8277 7.25773V6.14601C9.45957 6.21867 10.6771 6.50367 10.6771 6.8432C10.6771 7.18273 9.45895 7.46742 7.8277 7.54007" fill="white"/>
</svg>
