<svg width="16" height="16" viewBox="0 0 16 16" fill="none" xmlns="http://www.w3.org/2000/svg">
<circle cx="8" cy="8" r="7.5" fill="#677DE3" stroke="#F8F8F9"/>
<path d="M8.04305 4.07812C8.21212 4.35808 8.37454 4.62665 8.5366 4.89543C9.1671 5.94107 9.79611 6.98762 10.4302 8.03109C10.4902 8.12981 10.4742 8.16572 10.3776 8.22197C9.62263 8.66154 8.87138 9.10744 8.1201 9.55327C8.07257 9.58148 8.03806 9.59963 7.98197 9.56629C7.20414 9.10379 6.42475 8.64395 5.64586 8.18323C5.63007 8.17389 5.61566 8.16219 5.5918 8.1454C6.40688 6.79297 7.22079 5.44248 8.04305 4.07812ZM10.4822 8.49533C10.4504 8.48999 10.4315 8.49812 10.4139 8.50849C9.66301 8.95237 8.91138 9.39503 8.16253 9.84232C8.07342 9.89555 8.0099 9.90316 7.91466 9.84595C7.18995 9.41058 6.46062 8.98291 5.73264 8.55297C5.69989 8.53363 5.66634 8.51561 5.63317 8.497C5.62884 8.50328 5.6245 8.50957 5.62017 8.51586C6.42552 9.65078 7.23088 10.7857 8.04345 11.9308C8.86036 10.78 9.67129 9.63767 10.4822 8.49533Z" fill="white"/>
</svg>
