<svg width="26" height="26" viewBox="0 0 26 26" fill="none" xmlns="http://www.w3.org/2000/svg">
<path d="M13 26C20.1797 26 26 20.1797 26 13C26 5.8203 20.1797 0 13 0C5.8203 0 0 5.8203 0 13C0 20.1797 5.8203 26 13 26Z" fill="#919899"/>
<path d="M11.2657 12.4194H8.37537C7.73957 12.4194 7.22217 11.902 7.22217 11.2662V8.37586C7.22217 7.74005 7.73957 7.22266 8.37537 7.22266H11.2657C11.9015 7.22266 12.4189 7.74005 12.4189 8.37586V11.2662C12.4187 11.902 11.9015 12.4194 11.2657 12.4194Z" fill="white"/>
<path d="M16.1792 12.4194C14.7441 12.4194 13.5808 11.2561 13.5808 9.82105C13.5808 8.38596 14.7441 7.22266 16.1792 7.22266C17.6142 7.22266 18.7775 8.38596 18.7775 9.82105C18.7775 11.2561 17.6142 12.4194 16.1792 12.4194Z" fill="white"/>
<path d="M11.2657 18.7778H8.37537C7.73957 18.7778 7.22217 18.2604 7.22217 17.6246V14.7342C7.22217 14.0984 7.73957 13.5811 8.37537 13.5811H11.2657C11.9015 13.5811 12.4189 14.0984 12.4189 14.7342V17.6246C12.4187 18.2604 11.9015 18.7778 11.2657 18.7778Z" fill="white"/>
<path d="M17.6244 18.7778H14.734C14.0982 18.7778 13.5808 18.2604 13.5808 17.6246V14.7342C13.5808 14.0984 14.0982 13.5811 14.734 13.5811H17.6244C18.2601 13.5811 18.7775 14.0984 18.7775 14.7342V17.6246C18.7775 18.2604 18.2601 18.7778 17.6244 18.7778Z" fill="white"/>
</svg>
