<svg width="24" height="24" viewBox="0 0 24 24" fill="none" xmlns="http://www.w3.org/2000/svg">
<circle cx="12" cy="12" r="12" fill="#F89022"/>
<g clip-path="url(#clip0_7993_21494)">
<path fill-rule="evenodd" clip-rule="evenodd" d="M15.7906 12.3976C16.5514 12.206 17.0281 11.7257 17.2295 10.9603C17.4902 9.96981 17.2239 9.19471 16.4024 8.59136C15.9706 8.27422 15.4861 8.06075 14.9856 7.88217C14.89 7.84811 14.8684 7.80654 14.8916 7.717C14.978 7.38241 15.0624 7.04731 15.1464 6.71212C15.1954 6.51641 15.2435 6.32047 15.2929 6.11968C15.3153 6.02859 15.3379 5.93649 15.361 5.84296L14.1558 5.5429L13.6703 7.48318L12.6927 7.25079L13.1779 5.29868L11.9796 5C11.9735 5.01817 11.9677 5.03447 11.9623 5.04961C11.9519 5.07882 11.943 5.10368 11.9366 5.12918C11.9059 5.25221 11.875 5.37521 11.8442 5.49821C11.7302 5.95242 11.6163 6.40662 11.508 6.86215C11.4821 6.97075 11.4462 6.98967 11.3412 6.96196C11.0122 6.87516 10.6818 6.79398 10.3514 6.71281C10.2621 6.69087 10.1728 6.66894 10.0835 6.64689C9.83695 6.58598 9.59025 6.52569 9.34026 6.4646C9.23598 6.43911 9.13112 6.41348 9.02547 6.38762L8.7046 7.67294C8.73891 7.68127 8.77241 7.6891 8.80529 7.69678C8.87486 7.71303 8.94168 7.72864 9.00774 7.74706C9.08307 7.7681 9.15906 7.78758 9.23507 7.80706C9.4255 7.85588 9.61603 7.90472 9.79648 7.97816C10.0838 8.09514 10.2017 8.38806 10.1273 8.6879C10.0643 8.94199 10.0013 9.19609 9.93838 9.4502C9.80455 9.99032 9.67073 10.5304 9.53614 11.0703C9.45739 11.3862 9.37814 11.702 9.29889 12.0177C9.13199 12.6826 8.9651 13.3475 8.80288 14.0136C8.74962 14.2322 8.50862 14.4391 8.25128 14.3643C8.04551 14.3045 7.83578 14.2583 7.62388 14.2116C7.53123 14.1912 7.43816 14.1706 7.34483 14.1489L6.75 15.52L9.19414 16.1383L8.69304 18.1576L9.89163 18.4554C9.89786 18.4323 9.90357 18.4115 9.90887 18.3921C9.91917 18.3546 9.92793 18.3226 9.93601 18.2905C9.96483 18.1757 9.99368 18.061 10.0225 17.9462C10.1373 17.4897 10.2521 17.0331 10.3643 16.576C10.3817 16.5052 10.4016 16.46 10.4841 16.482C10.7089 16.5418 10.9337 16.6016 11.1672 16.6636C11.2333 16.6811 11.3001 16.6989 11.3678 16.7168L10.876 18.7021L12.0721 19C12.078 18.9827 12.0836 18.967 12.0889 18.9523C12.0994 18.9231 12.1084 18.8979 12.1149 18.8719C12.1436 18.7569 12.1723 18.642 12.201 18.527C12.3177 18.0603 12.4343 17.5936 12.5462 17.1258C12.572 17.0181 12.6116 16.9819 12.7228 17.0094C12.8025 17.0293 12.8844 17.0405 12.9663 17.0517C13.0056 17.057 13.0449 17.0624 13.084 17.0687C13.7079 17.1697 14.3336 17.2064 14.9588 17.0905C15.5234 16.9858 16.0066 16.7331 16.3686 16.2737C16.7579 15.7796 16.958 15.2103 17.0436 14.5943C17.1314 13.9623 16.972 13.4047 16.5094 12.9603C16.3599 12.8167 16.191 12.6933 16.0212 12.5693C15.9439 12.5129 15.8665 12.4563 15.7906 12.3976ZM12.3693 11.2694C12.9069 11.3966 13.4472 11.4947 14.0032 11.4052C14.809 11.2755 15.0472 10.5659 14.9124 10.0489C14.8174 9.68429 14.5482 9.45711 14.2341 9.27826C13.7443 8.99936 13.2042 8.87383 12.6642 8.74831C12.5955 8.73235 12.5267 8.71636 12.4582 8.70009C12.3658 8.67818 12.3496 8.73683 12.3324 8.80814C12.2838 9.00954 12.2333 9.21049 12.1827 9.41143C12.1552 9.52065 12.1278 9.62987 12.1006 9.73917C12.0232 10.0508 11.946 10.3626 11.8677 10.6794L11.7603 11.1132C11.83 11.1311 11.8973 11.1488 11.9633 11.1661C12.1028 11.2028 12.2356 11.2377 12.3693 11.2694ZM11.2376 13.2026C11.0942 13.7748 10.9509 14.347 10.8062 14.9189C10.7843 15.0054 10.8216 15.0206 10.8949 15.0366C11.0639 15.0734 11.2324 15.1131 11.4009 15.1529C11.7173 15.2275 12.0336 15.3021 12.3533 15.357C12.7916 15.4323 13.2372 15.4433 13.6785 15.3406C14.5467 15.1385 14.7978 14.1708 14.3671 13.5859C14.165 13.3115 13.8913 13.1256 13.5904 12.9766C12.9937 12.6812 12.3521 12.5341 11.7122 12.3875C11.6318 12.369 11.5515 12.3506 11.4712 12.3319C11.4675 12.3365 11.4639 12.3403 11.4607 12.3437C11.4548 12.3501 11.4502 12.355 11.4487 12.3607C11.3784 12.641 11.3081 12.9212 11.2379 13.2015L11.2376 13.2026Z" fill="white"/>
</g>
<defs>
<clipPath id="clip0_7993_21494">
<rect width="14" height="14" fill="white" transform="translate(5 5)"/>
</clipPath>
</defs>
</svg>
