<svg width="14" height="14" viewBox="0 0 14 14" fill="none" xmlns="http://www.w3.org/2000/svg">
<path d="M7 14C10.866 14 14 10.866 14 7C14 3.13401 10.866 0 7 0C3.13401 0 0 3.13401 0 7C0 10.866 3.13401 14 7 14Z" fill="#000D2B"/>
<path d="M6.96541 2.57227L4.98861 3.73055L6.96541 4.88884L8.97931 3.73055L6.96541 2.57227ZM7.29049 8.75611V11.0726L9.97541 9.54095V7.22396L7.29049 8.75611ZM9.30411 4.45897V6.77596L7.29021 7.93424V5.61725L9.30411 4.45897ZM4.45605 6.77596L6.46995 7.93424V5.61725L4.45605 4.45897V6.77596ZM4.45605 9.91439L6.46995 11.0727V8.75611L4.45605 7.59783V9.91432V9.91439Z" fill="white"/>
</svg>
