<svg width="34" height="34" viewBox="0 0 34 34" fill="none" xmlns="http://www.w3.org/2000/svg">
<path d="M17 33.5C26.1127 33.5 33.5 26.1127 33.5 17C33.5 7.8873 26.1127 0.5 17 0.5C7.8873 0.5 0.5 7.8873 0.5 17C0.5 26.1127 7.8873 33.5 17 33.5Z" fill="#53AE94" stroke="#F2F2F5"/>
<path d="M18.8913 14.7823V12.5066H24.0956V9.03906H9.9242V12.5066H15.1288V14.7805C10.8988 14.9744 7.71777 15.8126 7.71777 16.8158C7.71777 17.8191 10.9003 18.6573 15.1288 18.8533V26.1433H18.8931V18.8523C23.1153 18.6573 26.2896 17.8201 26.2896 16.8176C26.2896 15.8151 23.1153 14.978 18.8931 14.783L18.8913 14.7823ZM18.8931 18.2351V18.2333C18.7871 18.2401 18.2413 18.273 17.0267 18.273C16.0556 18.273 15.3724 18.2455 15.1321 18.233V18.2362C11.3938 18.0705 8.60456 17.4198 8.60456 16.6412C8.60456 15.8626 11.3946 15.2126 15.131 15.0469V17.588C15.376 17.6048 16.076 17.6462 17.0421 17.6462C18.2028 17.6462 18.7863 17.598 18.8931 17.588V15.0469C22.6231 15.213 25.406 15.8644 25.406 16.6405C25.406 17.4166 22.6217 18.0673 18.8931 18.2333" fill="white"/>
</svg>
