<svg width="24" height="24" viewBox="0 0 24 24" fill="none" xmlns="http://www.w3.org/2000/svg">
<path fill-rule="evenodd" clip-rule="evenodd" d="M20.3147 17.5557C21.4135 15.9112 22 13.9778 22 12C22 9.34783 20.9464 6.8043 19.0711 4.92893C17.1957 3.05357 14.6522 2 12 2C10.0222 2 8.08879 2.58649 6.4443 3.6853C4.79981 4.78412 3.51809 6.3459 2.76121 8.17316C2.00433 10.0004 1.8063 12.0111 2.19215 13.9509C2.578 15.8907 3.53041 17.6725 4.92894 19.0711C6.32746 20.4696 8.10929 21.422 10.0491 21.8078C11.9889 22.1937 13.9996 21.9957 15.8268 21.2388C17.6541 20.4819 19.2159 19.2002 20.3147 17.5557ZM18.528 13.0919V13.7359C18.5283 13.7537 18.5233 13.7711 18.5137 13.7861C18.5041 13.801 18.4902 13.8128 18.474 13.8199C18.274 13.9059 17.582 14.2199 17.296 14.6199C17.1372 14.8412 16.9863 15.083 16.8346 15.3259C16.2873 16.2031 15.7301 17.0959 14.756 17.0959H9.54396C9.10396 17.0954 8.66837 17.0081 8.26211 16.8391C7.85586 16.6702 7.48689 16.4227 7.17632 16.1111C6.86575 15.7994 6.61966 15.4295 6.45213 15.0227C6.2846 14.6158 6.19891 14.1799 6.19996 13.7399V13.6799C6.20048 13.6564 6.2102 13.634 6.22702 13.6176C6.24384 13.6011 6.26643 13.5919 6.28996 13.5919H9.19996C9.21364 13.5924 9.22707 13.5957 9.23943 13.6015C9.25179 13.6074 9.26281 13.6158 9.27181 13.6261C9.28081 13.6364 9.2876 13.6485 9.29175 13.6615C9.2959 13.6745 9.29734 13.6883 9.29596 13.7019C9.2747 13.8941 9.31089 14.0883 9.39996 14.2599C9.48437 14.4307 9.61492 14.5744 9.77681 14.6748C9.9387 14.7752 10.1255 14.8282 10.316 14.8279H11.754V13.7059H10.326C10.3094 13.7056 10.2932 13.7007 10.2791 13.692C10.265 13.6832 10.2536 13.6707 10.246 13.656C10.2384 13.6412 10.235 13.6247 10.236 13.6081C10.2371 13.5916 10.2426 13.5756 10.252 13.5619L10.304 13.4859C10.438 13.2859 10.63 12.9979 10.822 12.6599C10.9556 12.4287 11.0751 12.1896 11.18 11.9439C11.1926 11.9161 11.2037 11.8874 11.2146 11.859C11.221 11.8425 11.2273 11.8261 11.234 11.8099L11.2479 11.7714L11.2479 11.7714C11.271 11.7074 11.2933 11.646 11.31 11.5859C11.3194 11.5519 11.3284 11.5219 11.337 11.4934L11.337 11.4934L11.337 11.4933C11.3465 11.4615 11.3555 11.4315 11.364 11.3999C11.4113 11.1845 11.4341 10.9644 11.432 10.7439C11.432 10.6539 11.432 10.5599 11.42 10.4719C11.4138 10.4268 11.4098 10.3755 11.4057 10.3234C11.4018 10.2739 11.3978 10.2238 11.392 10.1779C11.38 10.0839 11.368 10.0059 11.352 9.91791C11.33 9.78791 11.302 9.65791 11.27 9.51791L11.258 9.46791L11.252 9.44543L11.252 9.44538C11.2302 9.36378 11.2096 9.28636 11.184 9.20391C11.102 8.92391 11.01 8.64991 10.91 8.40391C10.874 8.30191 10.834 8.20391 10.792 8.10791C10.732 7.95991 10.67 7.82591 10.614 7.70791C10.584 7.64991 10.56 7.59791 10.536 7.54391C10.512 7.48991 10.48 7.42391 10.45 7.36591C10.42 7.30791 10.406 7.27991 10.39 7.23991L10.214 6.91591C10.2087 6.9061 10.2064 6.89498 10.2072 6.88388C10.2081 6.87278 10.2122 6.86216 10.2189 6.8533C10.2257 6.84445 10.2348 6.83772 10.2453 6.83392C10.2558 6.83013 10.2671 6.82943 10.278 6.83191L11.378 7.12991L11.522 7.17191L11.682 7.21591L11.74 7.23191V6.57191C11.7394 6.49648 11.7539 6.42169 11.7826 6.35192C11.8113 6.28215 11.8536 6.21879 11.907 6.16554C11.9604 6.11229 12.024 6.07022 12.0938 6.04178C12.1637 6.01335 12.2385 5.99911 12.314 5.99991C12.3885 5.99933 12.4625 6.01392 12.5312 6.0428C12.6 6.07168 12.6622 6.11425 12.714 6.16791C12.8194 6.27445 12.879 6.41802 12.88 6.56791V7.53791L12.998 7.56991L13.024 7.58391L13.146 7.67591C13.1698 7.69411 13.1944 7.7149 13.2207 7.73717L13.2207 7.73718C13.2406 7.75407 13.2615 7.7718 13.284 7.78991C13.3804 7.86816 13.4951 7.96958 13.6189 8.07913L13.656 8.11191L13.656 8.11191C13.692 8.14391 13.728 8.17591 13.762 8.20991C13.94 8.37591 14.14 8.56991 14.332 8.78591C14.386 8.84791 14.438 8.90791 14.492 8.97391L14.5278 9.01725C14.5702 9.06835 14.6125 9.1193 14.65 9.17391C14.6737 9.20848 14.7066 9.25184 14.7419 9.29819L14.7419 9.29824L14.7419 9.29825C14.7781 9.34573 14.8166 9.39635 14.85 9.44391C14.8615 9.46201 14.874 9.48045 14.8866 9.49894L14.8866 9.49895C14.9046 9.52542 14.9227 9.55201 14.938 9.57791C15.0153 9.69491 15.0867 9.81573 15.152 9.93991C15.18 9.99591 15.208 10.0579 15.232 10.1179C15.3053 10.2768 15.3617 10.4431 15.4 10.6139C15.4118 10.6496 15.4198 10.6865 15.424 10.7239C15.4349 10.7746 15.4416 10.8261 15.444 10.8779C15.4594 11.0526 15.4479 11.2287 15.41 11.3999C15.394 11.4719 15.374 11.5399 15.35 11.6139C15.326 11.6879 15.3 11.7559 15.268 11.8259C15.2062 11.971 15.1326 12.1108 15.048 12.2439C15.0237 12.2873 14.9948 12.3322 14.9667 12.376L14.9667 12.3761L14.954 12.3959C14.9365 12.4232 14.916 12.4512 14.8958 12.4787L14.8957 12.4788L14.8957 12.4788C14.879 12.5016 14.8624 12.5242 14.848 12.5459C14.816 12.5939 14.754 12.6719 14.704 12.7299C14.6613 12.7905 14.6152 12.8486 14.566 12.9039C14.498 12.9859 14.432 13.0619 14.366 13.1359C14.3253 13.1856 14.2819 13.233 14.236 13.2779C14.2006 13.3181 14.1639 13.3544 14.1301 13.3879L14.1301 13.3879L14.106 13.4119C14.0722 13.4457 14.0055 13.5095 13.9567 13.5562L13.9567 13.5562L13.932 13.5799L13.818 13.6819C13.81 13.6897 13.8007 13.6958 13.7904 13.6999C13.7801 13.704 13.769 13.7061 13.758 13.7059H12.878V14.8279H13.98C14.2258 14.8284 14.4636 14.7403 14.65 14.5799C14.8895 14.3707 15.1165 14.1477 15.33 13.9119C15.3408 13.8989 15.3555 13.8898 15.372 13.8859L18.414 12.9999C18.4278 12.9961 18.4423 12.9956 18.4563 12.9985C18.4703 13.0014 18.4835 13.0076 18.4946 13.0166C18.5058 13.0256 18.5146 13.0371 18.5204 13.0502C18.5262 13.0633 18.5288 13.0776 18.528 13.0919ZM6.93409 12.336L6.97609 12.268L9.57809 8.20003C9.58699 8.18686 9.59922 8.17628 9.61353 8.16936C9.62784 8.16245 9.64373 8.15945 9.65958 8.16067C9.67543 8.16188 9.69068 8.16728 9.70376 8.1763C9.71685 8.18533 9.72732 8.19765 9.73409 8.21203C10.1681 9.18603 10.5341 10.398 10.3681 11.152C10.2491 11.5463 10.0768 11.9224 9.85609 12.27C9.82609 12.326 9.79409 12.382 9.75809 12.436C9.74985 12.448 9.73878 12.4577 9.72587 12.4643C9.71296 12.471 9.6986 12.4743 9.68409 12.474H7.01009C6.99374 12.4747 6.97752 12.4708 6.96326 12.4628C6.94901 12.4547 6.93727 12.4429 6.92937 12.4286C6.92148 12.4142 6.91774 12.398 6.91857 12.3816C6.9194 12.3653 6.92478 12.3495 6.93409 12.336Z" fill="#919899"/>
</svg>
