<svg width="24" height="24" viewBox="0 0 24 24" fill="none" xmlns="http://www.w3.org/2000/svg">
<path d="M12 2C6.47712 2 2 6.4772 2 12C2 17.5228 6.4772 22 12 22C17.5228 22 22 17.5228 22 12C22 6.4772 17.5229 2 12 2ZM16.7688 8.50288C16.7398 8.90752 16.5086 10.3237 16.2774 11.8555C15.9306 14.0235 15.5549 16.393 15.5549 16.393C15.5549 16.393 15.4971 17.0578 15.0058 17.1734C14.5144 17.289 13.7052 16.7688 13.5607 16.6534C13.4451 16.5667 11.3931 15.2661 10.6417 14.6303C10.4394 14.4569 10.2082 14.1103 10.6706 13.7054C11.711 12.7517 12.9538 11.5667 13.7052 10.8153C14.0521 10.4685 14.3988 9.6592 12.9538 10.6418C10.9018 12.0578 8.87864 13.3875 8.87864 13.3875C8.87864 13.3875 8.416 13.6763 7.5492 13.416C6.6824 13.1557 5.67056 12.809 5.67056 12.809C5.67056 12.809 4.97696 12.3755 6.16184 11.913C6.16184 11.913 11.1618 9.86104 12.8959 9.13848C13.5607 8.84944 15.815 7.92456 15.815 7.92456C15.815 7.92456 16.8555 7.52 16.7688 8.50288Z" fill="#919899"/>
</svg>
