<svg width="24" height="24" viewBox="0 0 24 24" fill="none" xmlns="http://www.w3.org/2000/svg">
<path d="M21.9549 5.9296C21.2054 6.26368 20.4108 6.48039 19.5982 6.57971C20.456 6.06504 21.0971 5.26143 21.4041 4.31334C20.6095 4.77384 19.7336 5.10793 18.7946 5.29754C17.5305 3.94314 15.5079 3.60906 13.8646 4.4849C12.2212 5.36075 11.3815 7.22982 11.8059 9.03569C8.41084 8.87316 5.386 7.22982 3.36343 4.75578C3.00226 5.38784 2.80361 6.10116 2.81264 6.8235C2.81264 8.25014 3.53499 9.49619 4.63657 10.2366C3.98646 10.2185 3.34537 10.038 2.77652 9.72192V9.7761C2.77652 11.7264 4.14898 13.4059 6.06321 13.7942C5.45824 13.9567 4.83521 13.9838 4.22122 13.8664C4.76298 15.5368 6.29797 16.6835 8.05869 16.7106C6.60497 17.8483 4.81716 18.4623 2.97517 18.4623C2.65011 18.4623 2.32506 18.4443 2 18.4082C3.8781 19.6091 6.06321 20.2501 8.29345 20.2501C15.833 20.2501 19.9594 14.0018 19.9594 8.59325C19.9594 8.4217 19.9594 8.24111 19.9503 8.06955C20.7539 7.49167 21.4492 6.76933 22 5.94766L21.9549 5.9296Z" fill="#919899"/>
</svg>
