<svg width="24" height="24" viewBox="0 0 24 24" fill="none" xmlns="http://www.w3.org/2000/svg">
<path fill-rule="evenodd" clip-rule="evenodd" d="M6.70005 3C6.20298 3 5.80005 3.40294 5.80005 3.9V20.1C5.80005 20.5971 6.20298 21 6.70005 21H19.3C19.7971 21 20.2 20.5971 20.2 20.1V3.9C20.2 3.40294 19.7971 3 19.3 3H6.70005ZM17.5234 19.1971L17.4769 4.79718L15.677 4.80299L15.7234 19.2029L17.5234 19.1971Z" fill="#919899"/>
<path fill-rule="evenodd" clip-rule="evenodd" d="M4 7.49961C4 7.00255 4.40294 6.59961 4.9 6.59961H8.5C8.99706 6.59961 9.4 7.00255 9.4 7.49961C9.4 7.99667 8.99706 8.39961 8.5 8.39961H4.9C4.40294 8.39961 4 7.99667 4 7.49961Z" fill="#919899"/>
<path fill-rule="evenodd" clip-rule="evenodd" d="M4 11.9996C4 11.5026 4.40294 11.0996 4.9 11.0996H8.5C8.99706 11.0996 9.4 11.5026 9.4 11.9996C9.4 12.4967 8.99706 12.8996 8.5 12.8996H4.9C4.40294 12.8996 4 12.4967 4 11.9996Z" fill="#919899"/>
<path fill-rule="evenodd" clip-rule="evenodd" d="M4 16.4996C4 16.0026 4.40294 15.5996 4.9 15.5996H8.5C8.99706 15.5996 9.4 16.0026 9.4 16.4996C9.4 16.9967 8.99706 17.3996 8.5 17.3996H4.9C4.40294 17.3996 4 16.9967 4 16.4996Z" fill="#919899"/>
</svg>
