<svg width="24" height="24" viewBox="0 0 24 24" fill="none" xmlns="http://www.w3.org/2000/svg">
<path d="M20.6512 21.3531C20.4671 21.3533 20.2903 21.2812 20.159 21.1522L15.9358 17.0166C14.3183 18.3547 12.2466 19.0168 10.1528 18.8646C8.059 18.7125 6.10478 17.758 4.69778 16.2002C3.29079 14.6423 2.53969 12.6015 2.60115 10.5034C2.66261 8.40532 3.53189 6.41195 5.02766 4.93913C6.52343 3.46631 8.53018 2.62778 10.6293 2.59845C12.7284 2.56912 14.7578 3.35126 16.2942 4.78171C17.8305 6.21216 18.7552 8.18045 18.8753 10.276C18.9953 12.3716 18.3016 14.4326 16.9387 16.0291L21.1434 20.1474C21.2431 20.2451 21.3116 20.3704 21.3398 20.5071C21.3682 20.6439 21.3551 20.786 21.3023 20.9153C21.2494 21.0446 21.1593 21.1553 21.0434 21.2332C20.9274 21.311 20.7909 21.3526 20.6512 21.3526V21.3531ZM10.7582 4.04318C9.65641 4.04312 8.57153 4.31406 7.59918 4.83211C6.62682 5.35017 5.79686 6.09943 5.18245 7.01385C4.56804 7.92827 4.18804 8.97978 4.07596 10.0757C3.96388 11.1716 4.12315 12.2782 4.53973 13.2981C4.95632 14.3179 5.61743 15.2196 6.46478 15.9237C7.31214 16.6278 8.31972 17.1127 9.39872 17.3356C10.4777 17.5585 11.595 17.5126 12.652 17.2019C13.7091 16.8913 14.6735 16.3254 15.4602 15.5541C15.4628 15.5515 15.4654 15.549 15.4682 15.5466L15.5076 15.5073C16.4469 14.5681 17.0866 13.3715 17.3458 12.0688C17.605 10.7661 17.472 9.41582 16.9636 8.1887C16.4552 6.96159 15.5943 5.91277 14.4898 5.17487C13.3852 4.43697 12.0866 4.04314 10.7582 4.04318Z" fill="#0E0E0E"/>
</svg>
