<svg width="24" height="24" viewBox="0 0 24 24" fill="none" xmlns="http://www.w3.org/2000/svg">
<path d="M20.6502 21.3531C20.4661 21.3533 20.2893 21.2812 20.158 21.1522L15.9348 17.0166C14.3174 18.3547 12.2456 19.0168 10.1518 18.8646C8.05802 18.7125 6.1038 17.758 4.69681 16.2002C3.28982 14.6423 2.53871 12.6015 2.60017 10.5034C2.66164 8.40532 3.53092 6.41195 5.02668 4.93913C6.52245 3.46631 8.5292 2.62778 10.6283 2.59845C12.7275 2.56912 14.7569 3.35126 16.2932 4.78171C17.8296 6.21216 18.7542 8.18045 18.8743 10.276C18.9944 12.3716 18.3006 14.4326 16.9377 16.0291L21.1424 20.1474C21.2422 20.2451 21.3106 20.3704 21.3389 20.5071C21.3672 20.6439 21.3541 20.786 21.3013 20.9153C21.2485 21.0446 21.1583 21.1553 21.0424 21.2332C20.9264 21.311 20.7899 21.3526 20.6502 21.3526V21.3531ZM10.7572 4.04318C9.65544 4.04312 8.57055 4.31406 7.5982 4.83211C6.62585 5.35017 5.79589 6.09943 5.18147 7.01385C4.56706 7.92827 4.18707 8.97978 4.07498 10.0757C3.9629 11.1716 4.12217 12.2782 4.53876 13.2981C4.95534 14.3179 5.61645 15.2196 6.46381 15.9237C7.31116 16.6278 8.31875 17.1127 9.39774 17.3356C10.4767 17.5585 11.594 17.5126 12.6511 17.2019C13.7081 16.8913 14.6725 16.3254 15.4593 15.5541C15.4618 15.5515 15.4644 15.549 15.4672 15.5466L15.5066 15.5073C16.446 14.5681 17.0857 13.3715 17.3448 12.0688C17.604 10.7661 17.471 9.41582 16.9626 8.1887C16.4543 6.96159 15.5934 5.91277 14.4888 5.17487C13.3843 4.43697 12.0856 4.04314 10.7572 4.04318Z" fill="#0E0E0E"/>
</svg>
