<svg width="80" height="80" viewBox="0 0 80 80" fill="none" xmlns="http://www.w3.org/2000/svg">
<path d="M62.4102 10.5664H17.5664C15.7022 10.5685 13.915 11.3099 12.5968 12.6281C11.2787 13.9463 10.5372 15.7335 10.5352 17.5977V62.4414C10.5372 64.3056 11.2787 66.0928 12.5968 67.411C13.915 68.7291 15.7022 69.4706 17.5664 69.4727H62.4102C64.2744 69.4706 66.0616 68.7291 67.3798 67.411C68.698 66.0928 69.4394 64.3056 69.4415 62.4414V17.5977C69.4394 15.7335 68.698 13.9463 67.3798 12.6281C66.0616 11.3099 64.2744 10.5685 62.4102 10.5664ZM17.5664 15.2539H62.4102C63.0318 15.2539 63.628 15.5008 64.0675 15.9404C64.5071 16.3799 64.754 16.9761 64.754 17.5977V42.4594L52.5665 42.4812C52.0252 42.4824 51.5009 42.6708 51.0828 43.0146C50.6647 43.3584 50.3785 43.8363 50.2727 44.3672C49.2969 49.2773 44.9501 52.8406 39.9352 52.8406C34.961 52.8406 30.618 49.2617 29.6094 44.3305C29.5014 43.8012 29.2138 43.3255 28.7954 42.9839C28.377 42.6422 27.8535 42.4555 27.3133 42.4555H15.2227V17.5977C15.2227 16.9761 15.4696 16.3799 15.9091 15.9404C16.3487 15.5008 16.9448 15.2539 17.5664 15.2539ZM62.4102 64.7852H17.5664C16.9448 64.7852 16.3487 64.5382 15.9091 64.0987C15.4696 63.6592 15.2227 63.063 15.2227 62.4414V47.1437H25.5258C27.611 53.2617 33.3938 57.5281 39.9352 57.5281C46.5212 57.5281 52.311 53.2711 54.368 47.1656L64.754 47.1469V62.4414C64.754 62.7492 64.6934 63.054 64.5756 63.3383C64.4578 63.6227 64.2852 63.8811 64.0675 64.0987C63.8499 64.3163 63.5915 64.489 63.3072 64.6068C63.0228 64.7245 62.718 64.7852 62.4102 64.7852Z" fill="#49494D"/>
</svg>
