<svg width="40" height="40" viewBox="0 0 40 40" fill="none" xmlns="http://www.w3.org/2000/svg">
<path d="M35.1122 29.6884L30.0175 30.7118C29.7996 30.7556 29.5973 30.8574 29.4315 31.0066C29.2656 31.1558 29.1422 31.347 29.074 31.5604L27.4818 36.5531C27.4259 36.7306 27.3317 36.8934 27.206 37.0298C27.0803 37.1661 26.9262 37.2726 26.7548 37.3415C26.5835 37.4105 26.3991 37.4403 26.2149 37.4286C26.0308 37.417 25.8515 37.3643 25.69 37.2742L21.1349 34.7551C20.9401 34.6472 20.7203 34.5939 20.4982 34.6005C20.2761 34.6072 20.0599 34.6736 19.8717 34.7928L15.4741 37.5844C15.3185 37.6834 15.1431 37.7464 14.9605 37.7689C14.7779 37.7914 14.5927 37.7729 14.418 37.7147C14.2433 37.6565 14.0836 37.56 13.9502 37.4321C13.8168 37.3042 13.7131 37.1482 13.6464 36.9751L11.7642 32.0942C11.6831 31.8858 11.5484 31.703 11.3741 31.5646C11.1998 31.4263 10.9921 31.3373 10.7724 31.3069L5.6262 30.5921C5.44394 30.5669 5.26945 30.5014 5.11522 30.4001C4.961 30.2988 4.83087 30.1644 4.73414 30.0064C4.63742 29.8484 4.5765 29.6708 4.55575 29.4862C4.53501 29.3017 4.55494 29.1148 4.61413 28.9389L6.28429 23.973C6.35764 23.7592 6.37259 23.5294 6.32759 23.3077C6.28259 23.0861 6.17929 22.8808 6.02854 22.7134L2.54162 18.826C2.4182 18.6884 2.32642 18.525 2.27286 18.3474C2.2193 18.1698 2.20528 17.9824 2.2318 17.7987C2.25832 17.615 2.32474 17.4395 2.42628 17.2848C2.52783 17.13 2.66201 16.9998 2.8192 16.9035L7.2605 14.1828C7.45046 14.0663 7.60612 13.9006 7.7114 13.703C7.81668 13.5054 7.86775 13.2829 7.85933 13.0586L7.6644 7.81876C7.65744 7.63327 7.69117 7.44851 7.76317 7.27772C7.83518 7.10693 7.94368 6.95434 8.08091 6.83082C8.21815 6.70731 8.38072 6.61594 8.55701 6.56326C8.7333 6.51059 8.91894 6.49789 9.10065 6.52609L14.2343 7.32437C14.4542 7.35866 14.6792 7.33295 14.886 7.24989C15.0927 7.16684 15.2737 7.02947 15.4102 6.85202L18.5961 2.70954C18.7089 2.56299 18.8523 2.44341 19.0161 2.35934C19.18 2.27527 19.3602 2.22879 19.5439 2.22322C19.7276 2.21766 19.9103 2.25314 20.0788 2.32714C20.2474 2.40114 20.3976 2.51183 20.5189 2.65129L23.9497 6.5875C24.0964 6.75613 24.2851 6.88212 24.4962 6.95243C24.7073 7.02274 24.9332 7.03483 25.1504 6.98743L30.228 5.88529C30.4076 5.84629 30.5935 5.84781 30.7725 5.88976C30.9514 5.93172 31.119 6.01306 31.2632 6.12797C31.4074 6.24289 31.5247 6.38855 31.6067 6.55454C31.6887 6.72053 31.7334 6.90276 31.7375 7.0882L31.8514 12.3328C31.8562 12.5572 31.9203 12.7763 32.0371 12.9673C32.1539 13.1583 32.3191 13.3143 32.5157 13.4192L37.1098 15.8612C37.2723 15.948 37.4138 16.0699 37.5242 16.2183C37.6346 16.3666 37.7112 16.5378 37.7484 16.7195C37.7857 16.9012 37.7827 17.089 37.7397 17.2694C37.6967 17.4499 37.6147 17.6185 37.4997 17.7632L34.2482 21.8569C34.1098 22.0315 34.0199 22.2403 33.9878 22.4617C33.9557 22.683 33.9827 22.9091 34.0658 23.1165L36.0245 27.9848C36.0926 28.1563 36.1225 28.3409 36.112 28.5254C36.1015 28.71 36.051 28.8899 35.9639 29.0525C35.8768 29.2151 35.7554 29.3563 35.6082 29.4662C35.461 29.5761 35.2917 29.652 35.1122 29.6884Z" fill="#F04E98"/>
<path d="M17.6482 25.0918C18.0826 25.71 18.9816 25.71 19.4159 25.0918L26.6175 14.8881C26.7476 14.7031 26.6175 14.4443 26.3953 14.4443H24.7914C24.4426 14.4443 24.1099 14.6155 23.9058 14.9089L18.5338 22.5265L16.0992 19.0744C15.9926 18.9278 15.8576 18.8098 15.7042 18.7294C15.5509 18.6489 15.3831 18.6079 15.2135 18.6095H13.6099C13.3877 18.6095 13.2576 18.868 13.3877 19.0533L17.6482 25.0918Z" fill="white"/>
</svg>
