<svg width="64" height="64" viewBox="0 0 64 64" fill="none" xmlns="http://www.w3.org/2000/svg">
<path fill-rule="evenodd" clip-rule="evenodd" d="M9.16755 6.13992C8.48973 5.35704 7.30561 5.27188 6.52273 5.9497C5.73986 6.62751 5.65469 7.81164 6.33251 8.59451L9.79033 12.5883C7.92304 14.1262 6.9363 15.8882 6.9363 17.7653V46.3279C6.9363 49.4685 9.7588 52.2854 14.8838 54.2592C19.4751 56.0285 25.5276 57.0023 31.9269 57.0023C37.274 57.0023 42.3688 56.322 46.568 55.0661L50.415 59.5094C51.0928 60.2923 52.277 60.3775 53.0598 59.6997C53.8427 59.0218 53.9279 57.8377 53.2501 57.0548L50.3247 53.6761C50.3261 53.6754 50.3275 53.6748 50.3288 53.6742L47.8838 50.8542C47.8832 50.8544 47.8827 50.8546 47.8821 50.8549L40.847 42.7294C40.8476 42.7293 40.8482 42.7292 40.8488 42.7291L38.0863 39.5385C38.0857 39.5386 38.0851 39.5386 38.0845 39.5387L28.4674 28.4311C28.4704 28.4313 28.4734 28.4314 28.4763 28.4316L25.1638 24.6066C25.161 24.6063 25.1581 24.6059 25.1552 24.6056L15.4318 13.3751C15.4335 13.3743 15.4352 13.3736 15.4369 13.3728L13.0119 10.5716C13.0102 10.5724 13.0085 10.5733 13.0067 10.5741L9.16755 6.13992ZM12.155 15.3195C11.2043 16.1296 10.6869 16.9684 10.6869 17.7653C10.6869 19.3685 12.7794 21.141 16.2844 22.5079C17.1932 22.8621 18.1708 23.1813 19.2065 23.4638L12.155 15.3195ZM23.0147 27.8623C19.9959 27.3927 17.2207 26.6828 14.8463 25.7572C13.2219 25.1241 11.8301 24.4041 10.6876 23.6154V32.7516C10.6876 34.3123 12.8126 36.0479 16.3751 37.3948C20.5626 38.9791 26.1513 39.8491 32.1138 39.851C32.5371 39.8514 32.9603 39.8471 33.3833 39.838L23.0147 27.8623ZM36.3164 43.2257C34.9182 43.3236 33.5164 43.3711 32.1138 43.3679C25.6826 43.3679 19.5963 42.4085 14.9713 40.6585C13.2926 40.0241 11.8576 39.3041 10.6826 38.5091V46.3266C10.6826 47.8992 12.7838 49.6467 16.3038 51.0029C20.4544 52.6042 26.0069 53.4823 31.9232 53.4823C36.2964 53.4823 40.4617 53.0025 44.005 52.106L36.3164 43.2257ZM31.9563 10.5197C37.9357 10.5197 43.5276 11.4091 47.7063 13.0247C51.2482 14.3947 53.3632 16.1659 53.3645 17.7634V17.7678C53.3645 19.3653 51.2476 21.1359 47.7063 22.5059C43.5663 24.1041 38.0382 24.9934 32.1251 25.0097L35.1038 28.4503C40.3788 28.1841 45.2751 27.2522 49.1357 25.7591C50.7645 25.1291 52.1613 24.4141 53.3101 23.6303L53.2257 32.6697H53.2201C53.2201 34.2516 51.147 36.0053 47.6751 37.3609C46.4271 37.8403 45.1489 38.2369 43.8488 38.5484L46.4201 41.5172C47.3651 41.2428 48.2657 40.9391 49.1151 40.6072C50.6932 39.9916 52.0526 39.2947 53.1707 38.5297L53.0982 46.309V46.324C53.0982 46.9328 52.7857 47.5665 52.2007 48.194L54.582 50.944C56.0651 49.5472 56.8457 47.9847 56.8482 46.3322L57.1145 17.7772V17.7622C57.1145 14.5972 54.2813 11.7585 49.1357 9.76783C44.5176 7.98158 38.4176 6.99783 31.9594 6.99783C26.9069 6.99783 22.0844 7.60158 18.0263 8.72221L20.6132 11.7097C23.9863 10.9353 27.8751 10.5197 31.9563 10.5197Z" fill="#E5E3E9"/>
</svg>
