<svg width="64" height="64" viewBox="0 0 64 64" fill="none" xmlns="http://www.w3.org/2000/svg">
<path fill-rule="evenodd" clip-rule="evenodd" d="M14.1742 11.2992C14.5258 10.9475 15.0027 10.75 15.5 10.75H48.25C48.7473 10.75 49.2242 10.9475 49.5758 11.2992C49.9275 11.6508 50.125 12.1277 50.125 12.625V18.1806C50.125 19.2162 50.9645 20.0556 52 20.0556C53.0355 20.0556 53.875 19.2162 53.875 18.1806V12.625C53.875 11.1332 53.2824 9.70242 52.2275 8.64752C51.1726 7.59263 49.7418 7 48.25 7H15.5C14.0082 7 12.5774 7.59263 11.5225 8.64752C10.4676 9.70242 9.875 11.1332 9.875 12.625V51.375C9.875 52.8668 10.4676 54.2976 11.5225 55.3525C12.5774 56.4074 14.0082 57 15.5 57H24C25.0355 57 25.875 56.1605 25.875 55.125C25.875 54.0895 25.0355 53.25 24 53.25H15.5C15.0027 53.25 14.5258 53.0525 14.1742 52.7008C13.8225 52.3492 13.625 51.8723 13.625 51.375V12.625C13.625 12.1277 13.8225 11.6508 14.1742 11.2992ZM43.25 27.28C46.2721 27.2797 49.2008 28.3273 51.5371 30.2443C53.8734 32.1613 55.4728 34.8291 56.0626 37.7931C56.6524 40.7571 56.1963 43.8339 54.7719 46.4992C53.3474 49.1646 51.0429 51.2536 48.2509 52.4103C45.4589 53.567 42.3522 53.7198 39.4602 52.8427C36.5682 51.9656 34.0697 50.1129 32.3906 47.6002C30.7115 45.0875 29.9555 42.0703 30.2516 39.0627C30.5477 36.0551 31.8775 33.2433 34.0144 31.1062C35.2244 29.8896 36.6637 28.925 38.249 28.2682C39.8343 27.6114 41.5341 27.2755 43.25 27.28ZM43.25 23.53C33.9644 23.53 26.4375 31.0575 26.4375 40.3425C26.4375 49.6275 33.965 57.155 43.25 57.155C52.535 57.155 60.0625 49.6275 60.0625 40.3425C60.0625 31.0575 52.5356 23.53 43.25 23.53ZM43.2444 30.2369C44.2799 30.2369 45.1194 31.0763 45.1194 32.1119V39.7283L50.1152 39.7438C51.1508 39.747 51.9876 40.5891 51.9844 41.6246C51.9812 42.6601 51.1391 43.497 50.1036 43.4938L43.2386 43.4725C42.2053 43.4693 41.3694 42.6308 41.3694 41.5975V32.1119C41.3694 31.0763 42.2089 30.2369 43.2444 30.2369Z" fill="#E5E3E9"/>
</svg>
