<svg width="14" height="14" viewBox="0 0 14 14" fill="none" xmlns="http://www.w3.org/2000/svg">
<path fill-rule="evenodd" clip-rule="evenodd" d="M7 2.35254C7.62147 2.35124 8.23682 2.47535 8.8092 2.71744C9.36163 2.95088 9.86351 3.28932 10.287 3.71398C10.7117 4.13745 11.0501 4.63933 11.2835 5.19178C11.5256 5.76416 11.6497 6.3795 11.6484 7.00098C11.6497 7.62245 11.5256 8.2378 11.2835 8.81018C11.0501 9.36261 10.7117 9.86449 10.287 10.288C9.8635 10.7126 9.36162 11.051 8.8092 11.2844C8.23685 11.5266 7.62149 11.6507 7 11.6494C6.37851 11.6507 5.76315 11.5266 5.1908 11.2844C4.63838 11.051 4.1365 10.7126 3.71301 10.288C3.28834 9.86449 2.94991 9.36261 2.71646 8.81018C2.47437 8.2378 2.35026 7.62245 2.35156 7.00098C2.35026 6.3795 2.47437 5.76416 2.71646 5.19178C2.94988 4.63933 3.28832 4.13745 3.71301 3.71398C4.13649 3.28932 4.63837 2.95088 5.1908 2.71744C5.76318 2.47535 6.37853 2.35124 7 2.35254ZM7 1.53223C3.97961 1.53223 1.53125 3.98059 1.53125 7.00098C1.53125 10.0214 3.97961 12.4697 7 12.4697C10.0204 12.4697 12.4688 10.0211 12.4688 7.00098C12.4688 3.98086 10.0204 1.53223 7 1.53223ZM8.38086 4.43968C8.0109 4.11484 7.52199 3.93711 7.00328 3.93711C6.48457 3.93711 5.99567 4.11621 5.62516 4.43968C5.23989 4.77683 5.02756 5.23006 5.02756 5.71527V5.8092C5.02763 5.83535 5.03806 5.86042 5.05655 5.87892C5.07505 5.89741 5.10011 5.90783 5.12627 5.90791H5.71908C5.74524 5.90783 5.77031 5.89741 5.7888 5.87892C5.8073 5.86042 5.81772 5.83535 5.8178 5.8092V5.71527C5.8178 5.17072 6.35004 4.72748 7.00328 4.72748C7.65653 4.72748 8.18946 5.17072 8.18946 5.71527C8.18946 6.09931 7.9178 6.45136 7.4967 6.6131C7.23615 6.71261 7.01184 6.88868 6.8533 7.11814C6.69214 7.35427 6.60633 7.6337 6.60721 7.91959V8.1851C6.60728 8.21127 6.6177 8.23635 6.63619 8.25486C6.65468 8.27338 6.67975 8.28383 6.70592 8.28394H7.29873C7.3249 8.28383 7.34997 8.27338 7.36846 8.25486C7.38695 8.23635 7.39737 8.21127 7.39744 8.1851V7.90482C7.3981 7.7849 7.43488 7.66796 7.503 7.56925C7.57112 7.47055 7.66741 7.39467 7.7793 7.35152C8.50787 7.07125 8.97846 6.42908 8.97846 5.71527C8.97969 5.23006 8.76723 4.77683 8.38195 4.43968H8.38086ZM6.65404 9.91739C6.56141 9.82476 6.50935 9.69914 6.50932 9.56814C6.50935 9.43715 6.56141 9.31153 6.65404 9.2189C6.74666 9.12627 6.87229 9.07422 7.00328 9.07418C7.13429 9.07418 7.25993 9.12622 7.35257 9.21886C7.4452 9.31149 7.49725 9.43714 7.49725 9.56814C7.49725 9.69915 7.4452 9.82479 7.35257 9.91743C7.25993 10.0101 7.13429 10.0621 7.00328 10.0621C6.87229 10.0621 6.74666 10.01 6.65404 9.91739Z" fill="#F36464"/>
</svg>
