<svg width="14" height="14" viewBox="0 0 14 14" fill="none" xmlns="http://www.w3.org/2000/svg">
<path d="M7 14C10.866 14 14 10.8659 14 7C14 3.13413 10.866 0 7 0C3.13398 0 0 3.13398 0 7C0 10.866 3.13398 14 7 14Z" fill="#F36464"/>
<path d="M10.2162 4.06366C10.2161 4.02464 10.2005 3.98726 10.1729 3.95969C10.1453 3.93211 10.1079 3.91659 10.0689 3.9165L9.12375 3.9207C9.03943 3.92109 8.95621 3.93986 8.87989 3.9757C8.80356 4.01154 8.73597 4.06358 8.68181 4.12821L7.02608 6.10204L5.37205 4.12992C5.31789 4.06531 5.25029 4.01328 5.17397 3.97744C5.09765 3.9416 5.01443 3.92283 4.93012 3.92241L3.98325 3.91806C3.96388 3.91796 3.94467 3.9217 3.92676 3.92906C3.90884 3.93643 3.89256 3.94728 3.87886 3.96098C3.86516 3.97468 3.85431 3.99096 3.84694 4.00887C3.83958 4.02679 3.83584 4.046 3.83594 4.06537C3.8363 4.10035 3.84871 4.13414 3.87109 4.16104L6.26463 7.01235L3.87109 9.8621C3.84878 9.88903 3.83637 9.9228 3.83594 9.95777C3.83606 9.9968 3.85162 10.0342 3.87922 10.0618C3.90682 10.0894 3.94422 10.105 3.98325 10.1051L4.93012 10.1007C5.01448 10.1003 5.09773 10.0816 5.17409 10.0457C5.25044 10.0098 5.31805 9.95774 5.37221 9.89306L7.02639 7.91954L8.68041 9.89166C8.73455 9.95626 8.80212 10.0083 8.87842 10.0441C8.95472 10.0799 9.03791 10.0986 9.12219 10.099L10.0675 10.1034C10.0869 10.1035 10.106 10.0997 10.1239 10.0924C10.1418 10.085 10.1581 10.0742 10.1718 10.0605C10.1855 10.0468 10.1963 10.0305 10.2037 10.0126C10.211 9.99475 10.2148 9.97557 10.2147 9.95621C10.2144 9.92119 10.202 9.88735 10.1797 9.86039L7.78955 7.01079L10.1831 4.15932C10.205 4.13229 10.2167 4.09844 10.2162 4.06366Z" fill="white"/>
</svg>
