<svg width="64" height="64" viewBox="0 0 64 64" fill="none" xmlns="http://www.w3.org/2000/svg">
<path fill-rule="evenodd" clip-rule="evenodd" d="M14.5156 7.5525H49.5156C50.9198 7.55154 52.2733 8.0777 53.3081 9.02687C53.2376 7.70016 52.6613 6.45093 51.6977 5.53621C50.7342 4.62149 49.4567 4.11086 48.1281 4.10938H15.8588C14.5233 4.11108 13.2398 4.62733 12.2751 5.55081C11.3105 6.4743 10.7387 7.73401 10.6788 9.06812C11.7185 8.0935 13.0905 7.55155 14.5156 7.5525ZM49.5156 57H14.5156C13.0243 56.9983 11.5945 56.4052 10.54 55.3506C9.48544 54.2961 8.89228 52.8663 8.89062 51.375V15.625C8.89228 14.1337 9.48544 12.7039 10.54 11.6494C11.5945 10.5948 13.0243 10.0017 14.5156 10H49.5156C51.007 10.0017 52.4367 10.5948 53.4913 11.6494C54.5458 12.7039 55.139 14.1337 55.1406 15.625V51.375C55.139 52.8663 54.5458 54.2961 53.4913 55.3506C52.4367 56.4052 51.007 56.9983 49.5156 57ZM14.5156 13.75C14.0183 13.75 13.5414 13.9475 13.1898 14.2992C12.8382 14.6508 12.6406 15.1277 12.6406 15.625V51.375C12.6406 51.8723 12.8382 52.3492 13.1898 52.7008C13.5414 53.0525 14.0183 53.25 14.5156 53.25H49.5156C50.0129 53.25 50.4898 53.0525 50.8414 52.7008C51.1931 52.3492 51.3906 51.8723 51.3906 51.375V15.625C51.3906 15.1277 51.1931 14.6508 50.8414 14.2992C50.4898 13.9475 50.0129 13.75 49.5156 13.75H14.5156ZM40.3619 40.6494V23.3287C40.3619 23.0492 40.3067 22.7724 40.1996 22.5142C40.0924 22.2561 39.9354 22.0215 39.7375 21.8242C39.5396 21.6268 39.3047 21.4703 39.0462 21.3639C38.7877 21.2574 38.5108 21.203 38.2313 21.2037C37.6677 21.2037 37.1272 21.4276 36.7287 21.8261C36.3301 22.2247 36.1063 22.7652 36.1063 23.3287V34.3637L27.4956 22.1075C27.2991 21.8279 27.0382 21.5997 26.7349 21.4422C26.4316 21.2846 26.0949 21.2024 25.7531 21.2025C25.1891 21.2037 24.6487 21.4285 24.2503 21.8277C23.8519 22.2269 23.6281 22.7679 23.6281 23.3319V40.6487C23.6281 41.2123 23.852 41.7528 24.2505 42.1513C24.649 42.5499 25.1895 42.7737 25.7531 42.7737C26.3167 42.7737 26.8572 42.5499 27.2557 42.1513C27.6543 41.7528 27.8781 41.2123 27.8781 40.6487V29.5862L36.4894 41.8712C36.6858 42.1512 36.9468 42.3798 37.2502 42.5376C37.5536 42.6955 37.8905 42.778 38.2325 42.7781C38.5121 42.7782 38.789 42.7232 39.0473 42.6163C39.3057 42.5093 39.5404 42.3525 39.7382 42.1548C39.9359 41.9572 40.0928 41.7225 40.1998 41.4642C40.3068 41.2058 40.3619 40.929 40.3619 40.6494Z" fill="#E5E3E9"/>
</svg>
