<svg width="14" height="14" viewBox="0 0 14 14" fill="none" xmlns="http://www.w3.org/2000/svg">
<g clip-path="url(#clip0_6154_57230)">
<path d="M7 14C10.866 14 14 10.866 14 7C14 3.13398 10.866 0 7 0C3.13398 0 0 3.13444 0 7C0 10.8656 3.13398 14 7 14Z" fill="#1CBDB5"/>
<path d="M5.76392 9.60813C5.99196 9.90027 6.46392 9.90027 6.69196 9.60813L10.4727 4.78684C10.541 4.69941 10.4727 4.57715 10.3561 4.57715H9.51405C9.33096 4.57715 9.15628 4.65804 9.0491 4.79664L6.22888 8.39604L4.95068 6.76488C4.89472 6.69562 4.82384 6.63989 4.74333 6.60185C4.66282 6.56382 4.57476 6.54447 4.48572 6.54524H3.64385C3.52719 6.54524 3.4589 6.66735 3.52719 6.75493L5.76392 9.60813Z" fill="white"/>
</g>
<defs>
<clipPath id="clip0_6154_57230">
<rect width="14" height="14" fill="white"/>
</clipPath>
</defs>
</svg>
