<svg width="24" height="24" viewBox="0 0 24 24" fill="none" xmlns="http://www.w3.org/2000/svg">
<path fill-rule="evenodd" clip-rule="evenodd" d="M12.7109 3.75C12.7109 3.36167 12.3961 3.04688 12.0078 3.04688C11.6195 3.04688 11.3047 3.36167 11.3047 3.75V11.2969H3.75781C3.36949 11.2969 3.05469 11.6117 3.05469 12C3.05469 12.3883 3.36949 12.7031 3.75781 12.7031H11.3047V20.25C11.3047 20.6383 11.6195 20.9531 12.0078 20.9531C12.3961 20.9531 12.7109 20.6383 12.7109 20.25V12.7031H20.2578C20.6461 12.7031 20.9609 12.3883 20.9609 12C20.9609 11.6117 20.6461 11.2969 20.2578 11.2969H12.7109V3.75Z" fill="#919899"/>
</svg>
