<svg width="13" height="13" viewBox="0 0 13 13" fill="none" xmlns="http://www.w3.org/2000/svg">
<path fill-rule="evenodd" clip-rule="evenodd" d="M11.3588 3.29404L9.70598 1.64126L8.25944 3.08823C8.17783 3.16987 8.08094 3.23463 7.97429 3.27882C7.86765 3.323 7.75334 3.34575 7.63791 3.34575C7.52248 3.34577 7.40819 3.32304 7.30154 3.27888C7.1949 3.23472 7.098 3.16999 7.01638 3.08838L5.77609 1.8481L4.50447 3.11963L9.8804 8.49555L11.1521 7.22393L9.91179 5.98364C9.83016 5.90203 9.7654 5.80513 9.72122 5.69849C9.67705 5.59184 9.65431 5.47754 9.65431 5.36211C9.65431 5.24668 9.67705 5.13238 9.72122 5.02573C9.7654 4.91909 9.83016 4.82219 9.91179 4.74058L11.3588 3.29404ZM9.25891 9.11702L3.88296 3.74109L1.64113 5.98276L7.01711 11.3587L9.25891 9.11702ZM9.48214 0.685027C9.55308 0.655651 9.62912 0.640562 9.7059 0.640625C9.78271 0.640543 9.85878 0.655622 9.92974 0.684999C10.0007 0.714384 10.0652 0.757498 10.1195 0.811866L12.1884 2.88096C12.2981 2.99067 12.3597 3.13944 12.3597 3.29456C12.3597 3.44967 12.2981 3.59844 12.1884 3.70815L10.5332 5.36255L11.981 6.81055C12.0907 6.92026 12.1524 7.06907 12.1524 7.22422C12.1524 7.37937 12.0907 7.52817 11.981 7.63789L7.43078 12.1881C7.32107 12.2978 7.1723 12.3594 7.01718 12.3594C6.86206 12.3594 6.71329 12.2978 6.60358 12.1881L0.811884 6.39644C0.702226 6.28672 0.640625 6.13796 0.640625 5.98284C0.640625 5.82772 0.702226 5.67895 0.811884 5.56924L5.36271 1.01973C5.417 0.965252 5.48152 0.922051 5.55256 0.892612C5.62361 0.863173 5.69978 0.848077 5.77668 0.848194C5.85346 0.848081 5.9295 0.863138 6.00044 0.892499C6.07138 0.921861 6.13582 0.964949 6.19006 1.01929L7.63806 2.46714L9.29245 0.811866C9.34672 0.757515 9.41118 0.714412 9.48214 0.685027ZM9.7059 0.640625C9.70593 0.640625 9.70595 0.640625 9.70598 0.640625H9.70583C9.70585 0.640625 9.70588 0.640625 9.7059 0.640625Z" fill="#919899"/>
</svg>
