<svg width="24" height="24" viewBox="0 0 24 24" fill="none" xmlns="http://www.w3.org/2000/svg">
<path d="M12 24C18.6274 24 24 18.6274 24 12C24 5.37258 18.6274 0 12 0C5.37258 0 0 5.37258 0 12C0 18.6274 5.37258 24 12 24Z" fill="#7524F9"/>
<path fill-rule="evenodd" clip-rule="evenodd" d="M17.5583 8.77445C17.9271 9.13243 17.9266 9.70665 17.5578 10.0641L11.0182 16.4004C10.6515 16.7556 10.0514 16.7554 9.68498 16.3999L6.44417 13.2657C6.0759 12.9082 6.0759 12.3342 6.44417 11.9767C6.821 11.6108 7.4385 11.6108 7.81534 11.9767L10.3511 14.427L16.1874 8.7737C16.5648 8.40852 17.1817 8.40877 17.5583 8.77445Z" fill="white"/>
</svg>
