<svg width="16" height="16" viewBox="0 0 16 16" fill="none" xmlns="http://www.w3.org/2000/svg">
<rect width="16" height="16" rx="8" fill="#C7CBCB"/>
<path fill-rule="evenodd" clip-rule="evenodd" d="M5.36129 5.36031C5.55655 5.16505 5.87313 5.16505 6.0684 5.36031L8.00056 7.29247L9.93272 5.36031C10.128 5.16505 10.4446 5.16505 10.6398 5.36031C10.8351 5.55558 10.8351 5.87216 10.6398 6.06742L8.70766 7.99958L10.6398 9.93174C10.8351 10.127 10.8351 10.4436 10.6398 10.6388C10.4446 10.8341 10.128 10.8341 9.93272 10.6388L8.00056 8.70669L6.0684 10.6388C5.87313 10.8341 5.55655 10.8341 5.36129 10.6388C5.16603 10.4436 5.16603 10.127 5.36129 9.93174L7.29345 7.99958L5.36129 6.06742C5.16603 5.87216 5.16603 5.55558 5.36129 5.36031Z" fill="white"/>
</svg>
