<svg width="17" height="14" viewBox="0 0 17 14" fill="none" xmlns="http://www.w3.org/2000/svg">
<path fill-rule="evenodd" clip-rule="evenodd" d="M0.220805 7.48916C0.0848576 7.36095 7.54188e-08 7.17915 7.7823e-08 6.97754C7.78239e-08 6.97747 1.10181e-07 6.9774 1.10182e-07 6.97732C-5.43644e-05 6.79731 0.068589 6.61728 0.205931 6.47994L6.0257 0.659936C6.30028 0.385344 6.74547 0.385334 7.02006 0.659916C7.29466 0.934498 7.29467 1.37969 7.02008 1.65428L2.40014 6.27441L15.6937 6.27441C16.0821 6.27441 16.3969 6.58921 16.3969 6.97754C16.3969 7.36586 16.0821 7.68066 15.6937 7.68066L2.40105 7.68066L7.02007 12.2997C7.29466 12.5743 7.29466 13.0195 7.02007 13.2941C6.74549 13.5686 6.30029 13.5686 6.0257 13.2941L0.220805 7.48916Z" fill="#515556"/>
</svg>
