<svg width="125" height="40" viewBox="0 0 125 40" fill="none" xmlns="http://www.w3.org/2000/svg">
<path d="M55.3919 14.6068C55.5855 14.8006 55.8172 14.953 56.0726 15.0547C56.3281 15.1564 56.6019 15.2053 56.8772 15.1984C57.1523 15.2052 57.4259 15.1563 57.6812 15.0546C57.9364 14.9528 58.1679 14.8005 58.3613 14.6068C58.555 14.4135 58.7079 14.1839 58.811 13.9314C58.9141 13.679 58.9654 13.4088 58.9618 13.1365C58.9686 12.8643 58.9188 12.5935 58.8155 12.341C58.7122 12.0885 58.5576 11.8597 58.3613 11.6687C58.1718 11.4681 57.9417 11.3093 57.686 11.2026C57.4303 11.0958 57.1547 11.0436 56.8772 11.0493C56.5995 11.0434 56.3237 11.0956 56.0678 11.2023C55.8119 11.309 55.5816 11.4679 55.3919 11.6687C55.1958 11.8597 55.0414 12.0886 54.9383 12.3411C54.8352 12.5936 54.7856 12.8643 54.7926 13.1365C54.7888 13.4087 54.8399 13.6789 54.9427 13.9313C55.0456 14.1838 55.1983 14.4134 55.3919 14.6068Z" fill="#E5E5E5"/>
<path d="M55.0245 16.6083C54.989 16.6463 54.9616 16.691 54.9439 16.7398C54.9262 16.7885 54.9186 16.8402 54.9215 16.8919V28.7465C54.9186 28.7982 54.9261 28.8499 54.9438 28.8986C54.9615 28.9474 54.9889 28.9921 55.0245 29.0301C55.0627 29.0656 55.1079 29.093 55.1572 29.1107C55.2065 29.1284 55.2589 29.1361 55.3112 29.1331H58.4375C58.4898 29.1361 58.5422 29.1284 58.5915 29.1107C58.6408 29.093 58.686 29.0656 58.7242 29.0301C58.7602 28.9923 58.788 28.9477 58.8059 28.8989C58.8239 28.8502 58.8315 28.7983 58.8284 28.7465V16.8919C58.8313 16.8401 58.8236 16.7883 58.8057 16.7395C58.7878 16.6908 58.7601 16.6461 58.7242 16.6083C58.6857 16.5732 58.6405 16.5461 58.5913 16.5286C58.542 16.5111 58.4897 16.5036 58.4375 16.5065H55.3137C55.2614 16.5036 55.2091 16.5111 55.1599 16.5286C55.1106 16.5461 55.0654 16.5732 55.0269 16.6083" fill="#E5E5E5"/>
<path fill-rule="evenodd" clip-rule="evenodd" d="M88.176 20.1037C88.6742 19.7213 89.2907 19.5209 89.9211 19.5365C90.5358 19.5211 91.136 19.7221 91.6148 20.1037C92.0837 20.4642 92.3791 20.9963 92.5008 21.7001H87.2373C87.377 20.9971 87.6899 20.465 88.176 20.1037ZM95.7839 23.7886C95.9056 23.5308 95.9661 23.1187 95.9653 22.5522C95.9765 21.4566 95.7173 20.3749 95.2104 19.4007C94.7237 18.4575 93.9849 17.6644 93.0743 17.1074C92.1176 16.5318 91.015 16.2375 89.8954 16.2589C88.732 16.245 87.5872 16.5482 86.5866 17.1353C85.6053 17.6932 84.7949 18.5032 84.241 19.4795C83.682 20.4905 83.395 21.6266 83.4077 22.7789C83.3944 23.9339 83.6903 25.0718 84.2655 26.0771C84.8321 27.0676 85.6602 27.8871 86.6613 28.448C87.7367 29.0412 88.951 29.3439 90.1822 29.3256C91.064 29.3338 91.9387 29.169 92.7557 28.8407C93.5643 28.5024 94.2989 28.0121 94.9187 27.3971C94.9643 27.3585 95.0017 27.3113 95.0286 27.2582C95.0556 27.2051 95.0715 27.1472 95.0756 27.088C95.0766 27.0402 95.068 26.9928 95.0501 26.9484C95.0322 26.904 95.0054 26.8637 94.9714 26.8298L93.6233 25.5425C93.5518 25.4559 93.4489 25.4003 93.3366 25.3874C93.2313 25.3872 93.1294 25.4237 93.0486 25.4904C92.6611 25.7432 92.2405 25.9426 91.7986 26.0831C91.3989 26.1886 90.9868 26.2408 90.5731 26.2383C89.7055 26.2383 88.9849 26.0666 88.4113 25.7231C87.8512 25.3556 87.4513 24.7931 87.2912 24.1474H95.029C95.4113 24.1474 95.6638 24.0262 95.7851 23.7837" fill="#E5E5E5"/>
<path fill-rule="evenodd" clip-rule="evenodd" d="M103.46 19.5375C102.83 19.5223 102.214 19.7226 101.715 20.1048C101.225 20.4652 100.913 20.9973 100.778 21.7011H106.04C105.918 20.9981 105.623 20.466 105.154 20.1048C104.675 19.7231 104.075 19.5221 103.46 19.5375ZM109.506 22.5533C109.506 23.1189 109.445 23.531 109.323 23.7896C109.201 24.032 108.949 24.1533 108.568 24.1533H100.83C100.99 24.799 101.389 25.3616 101.949 25.729C102.521 26.0716 103.242 26.2434 104.112 26.2442C104.526 26.2468 104.938 26.1946 105.338 26.089C105.78 25.9482 106.201 25.7488 106.589 25.4963C106.669 25.4294 106.771 25.3929 106.876 25.3933C106.988 25.4059 107.091 25.4616 107.163 25.5484L108.511 26.8357C108.545 26.8694 108.572 26.9097 108.59 26.9541C108.608 26.9985 108.616 27.0461 108.615 27.0939C108.611 27.1532 108.595 27.2111 108.568 27.2642C108.541 27.3174 108.504 27.3645 108.458 27.4029C107.84 28.0157 107.107 28.5043 106.301 28.8417C105.484 29.1699 104.609 29.3347 103.728 29.3266C102.497 29.3446 101.284 29.0424 100.209 28.4502C99.2086 27.8886 98.3806 27.0693 97.8133 26.0793C97.2389 25.0738 96.9429 23.936 96.9555 22.7811C96.9429 21.6289 97.2298 20.4928 97.7888 19.4817C98.3399 18.5084 99.1459 17.6998 100.122 17.1411C101.123 16.5541 102.268 16.2509 103.431 16.2648C104.551 16.2433 105.653 16.5376 106.61 17.1133C107.52 17.6702 108.259 18.4634 108.746 19.4066C109.254 20.3805 109.513 21.4624 109.502 22.5581" fill="#E5E5E5"/>
<path fill-rule="evenodd" clip-rule="evenodd" d="M119.316 24.9737C118.777 25.524 118.091 25.7987 117.257 25.7979C116.407 25.7979 115.712 25.5232 115.174 24.9737C114.654 24.4234 114.393 23.7102 114.392 22.8343C114.392 21.9761 114.653 21.2549 115.174 20.6707C115.436 20.3839 115.758 20.157 116.118 20.0057C116.478 19.8544 116.867 19.7822 117.257 19.7943C117.642 19.7829 118.024 19.8527 118.379 19.999C118.734 20.1453 119.054 20.3648 119.316 20.6428C119.871 21.2084 120.149 21.9385 120.15 22.8331C120.15 23.7098 119.872 24.423 119.316 24.9725V24.9737ZM120.879 17.1385C119.935 16.5526 118.841 16.2484 117.727 16.2622C116.233 16.2622 115.008 16.8634 114.05 18.0658L113.919 16.907C113.885 16.6492 113.755 16.5204 113.528 16.5204H110.874C110.821 16.5174 110.769 16.525 110.72 16.5428C110.67 16.5605 110.625 16.5879 110.587 16.6234C110.551 16.6613 110.524 16.706 110.506 16.7548C110.488 16.8035 110.481 16.8553 110.484 16.907V33.6573C110.481 33.7092 110.489 33.7611 110.507 33.81C110.524 33.8589 110.552 33.9039 110.587 33.9422C110.625 33.9774 110.671 34.0047 110.72 34.0224C110.769 34.0401 110.821 34.0478 110.874 34.0452H114C114.052 34.0481 114.105 34.0404 114.154 34.0227C114.203 34.005 114.248 33.9776 114.287 33.9422C114.323 33.9041 114.35 33.8592 114.368 33.8103C114.386 33.7613 114.394 33.7093 114.391 33.6573V28.0149C115.243 28.8884 116.355 29.3252 117.727 29.3252C118.837 29.3403 119.929 29.0463 120.879 28.4767C121.819 27.9085 122.585 27.0977 123.094 26.1313C123.635 25.1239 123.913 23.999 123.902 22.8585C123.916 21.7015 123.639 20.5591 123.094 19.5349C122.596 18.5472 121.829 17.7171 120.879 17.1385Z" fill="#E5E5E5"/>
<path d="M68.279 16.5046C68.3313 16.5018 68.3836 16.5093 68.4328 16.5268C68.4821 16.5443 68.5273 16.5714 68.5658 16.6065C68.6016 16.6443 68.6294 16.6889 68.6473 16.7377C68.6652 16.7865 68.6729 16.8383 68.6699 16.8901V19.2355C68.673 19.2872 68.6654 19.3389 68.6474 19.3874C68.6295 19.436 68.6017 19.4804 68.5658 19.518C68.5277 19.5538 68.4827 19.5816 68.4333 19.5995C68.384 19.6175 68.3315 19.6252 68.279 19.6222H66.1957V28.7446C66.1985 28.7965 66.1907 28.8484 66.1725 28.8972C66.1544 28.946 66.1264 28.9906 66.0903 29.0283C66.052 29.0638 66.0069 29.0912 65.9576 29.1089C65.9083 29.1266 65.8559 29.1342 65.8035 29.1313H62.6773C62.6249 29.1342 62.5725 29.1266 62.5232 29.1089C62.4739 29.0912 62.4288 29.0638 62.3905 29.0283C62.3545 28.9905 62.3267 28.9459 62.3088 28.8971C62.2909 28.8483 62.2832 28.7964 62.2863 28.7446V19.6283H60.203C60.1505 19.6313 60.098 19.6235 60.0487 19.6056C59.9993 19.5877 59.9543 19.5599 59.9162 19.524C59.8805 19.4863 59.8529 19.4419 59.835 19.3933C59.8171 19.3448 59.8093 19.2932 59.8121 19.2416V16.8962C59.8094 16.8444 59.8172 16.7926 59.8351 16.7439C59.853 16.6952 59.8806 16.6505 59.9162 16.6125C59.9547 16.5774 59.9999 16.5503 60.0492 16.5328C60.0984 16.5153 60.1508 16.5078 60.203 16.5107H62.2863V13.0307C62.2834 12.9789 62.2911 12.9271 62.309 12.8783C62.3269 12.8295 62.3546 12.7849 62.3905 12.7471C62.4288 12.7117 62.474 12.6845 62.5233 12.667C62.5726 12.6495 62.625 12.6421 62.6773 12.6452H65.8084C65.8607 12.6421 65.9131 12.6495 65.9624 12.667C66.0117 12.6845 66.0569 12.7117 66.0952 12.7471C66.1313 12.7848 66.1592 12.8294 66.1773 12.8782C66.1955 12.9269 66.2034 12.9788 66.2006 13.0307V16.5107L68.279 16.5046Z" fill="#E5E5E5"/>
<path fill-rule="evenodd" clip-rule="evenodd" d="M47.2828 25.6022C48.0818 25.6022 48.7158 25.422 49.1848 25.0616C49.6537 24.7012 49.8882 24.1598 49.8882 23.4374C49.8882 22.7327 49.6537 22.2176 49.1848 21.8919C48.715 21.5477 48.081 21.376 47.2828 21.3768H44.3625V25.6022H47.2828ZM48.7938 16.2689C48.7938 15.1699 48.1076 14.62 46.735 14.6192H44.3625V18.0725H46.7326C47.3747 18.0725 47.8796 17.9271 48.2436 17.635C48.6088 17.3247 48.7914 16.8693 48.7914 16.2689H48.7938ZM50.3539 19.4907C51.3305 19.7516 52.2032 20.3014 52.8551 21.0665C53.5659 21.8511 53.948 22.8739 53.9237 23.9271C53.9237 25.6628 53.3592 26.9687 52.2301 27.8447C51.1182 28.7028 49.4164 29.1323 47.1247 29.1331H40.7166C40.6643 29.1361 40.6118 29.1285 40.5626 29.1107C40.5133 29.093 40.4681 29.0656 40.4299 29.0301C40.3941 28.9923 40.3665 28.9476 40.3488 28.8988C40.3311 28.85 40.3237 28.7982 40.3269 28.7465V11.481C40.3237 11.4293 40.3312 11.3775 40.3489 11.3287C40.3666 11.28 40.3941 11.2353 40.4299 11.1974C40.4681 11.1619 40.5133 11.1345 40.5626 11.1168C40.6118 11.0991 40.6643 11.0914 40.7166 11.0944H47.1002C48.244 11.0944 49.2244 11.3004 50.0414 11.7125C50.8205 12.0752 51.4734 12.6581 51.9176 13.3877C52.3566 14.1016 52.5838 14.9231 52.5732 15.7586C52.5921 16.5866 52.3654 17.4019 51.9213 18.1041C51.5046 18.7731 50.9834 19.237 50.3576 19.4956" fill="#E5E5E5"/>
<path d="M84.8382 28.9998C84.839 28.9161 84.8114 28.8345 84.7598 28.7682L77.5061 19.0955L84.5073 11.641C84.5785 11.5827 84.6249 11.5 84.6372 11.4095C84.6376 11.3761 84.6279 11.3434 84.6093 11.3155C84.5908 11.2876 84.5642 11.2659 84.533 11.2531C84.5009 11.2257 84.4635 11.2048 84.4231 11.1917C84.3827 11.1786 84.3401 11.1735 84.2978 11.1767H80.7598C80.6752 11.1763 80.5915 11.1946 80.515 11.2302C80.4384 11.2659 80.3709 11.318 80.3174 11.3828L73.6041 18.5804V11.5646C73.607 11.5127 73.5991 11.4608 73.581 11.412C73.5629 11.3633 73.5349 11.3187 73.4987 11.281C73.4608 11.2452 73.416 11.2176 73.3669 11.1996C73.3178 11.1817 73.2655 11.1739 73.2132 11.1767H70.0821C70.0296 11.1737 69.9771 11.1815 69.9277 11.1994C69.8784 11.2173 69.8333 11.2451 69.7953 11.281C69.7593 11.3187 69.7315 11.3634 69.7136 11.4121C69.6957 11.4609 69.688 11.5128 69.6911 11.5646V28.841C69.688 28.8928 69.6956 28.9447 69.7135 28.9935C69.7314 29.0423 69.7592 29.0869 69.7953 29.1246C69.8334 29.1603 69.8786 29.1878 69.9279 29.2055C69.9772 29.2233 70.0297 29.2308 70.0821 29.2276H73.2083C73.2605 29.2307 73.3127 29.2231 73.3619 29.2054C73.411 29.1877 73.4559 29.1602 73.4938 29.1246C73.5301 29.087 73.5582 29.0424 73.5763 28.9936C73.5944 28.9448 73.6022 28.8929 73.5992 28.841V23.2652L75.136 21.6167L80.696 28.9949C80.7466 29.0708 80.8166 29.1321 80.8987 29.1727C80.9809 29.2134 81.0725 29.2319 81.1642 29.2264H84.5257C84.734 29.2264 84.8382 29.1501 84.8382 28.9949" fill="#E5E5E5"/>
<path fill-rule="evenodd" clip-rule="evenodd" d="M32.5098 12.3795V14.1432C32.5098 14.3134 32.4645 14.4807 32.3785 14.6281C32.2924 14.7756 32.1686 14.898 32.0196 14.9832L26.2745 18.2632L31.4056 21.1844C31.7411 21.376 32.0197 21.6516 32.2134 21.9836C32.407 22.3155 32.5088 22.692 32.5085 23.0753V27.7747C32.509 28.1581 32.4073 28.5349 32.2137 28.8671C32.02 29.1992 31.7413 29.4751 31.4056 29.6668L17.9068 37.3262C17.5715 37.5177 17.1911 37.6185 16.8039 37.6185C16.4167 37.6185 16.0363 37.5177 15.7009 37.3262L11.2892 34.8038C11.2146 34.7612 11.1527 34.7 11.1096 34.6263C11.0666 34.5526 11.0439 34.4689 11.0439 34.3838C11.0439 34.2986 11.0666 34.215 11.1096 34.1412C11.1527 34.0675 11.2146 34.0063 11.2892 33.9638L25.8725 25.6619C25.9099 25.6407 25.941 25.6101 25.9627 25.5732C25.9843 25.5362 25.9957 25.4943 25.9957 25.4516C25.9957 25.409 25.9843 25.367 25.9627 25.3301C25.941 25.2932 25.9099 25.2626 25.8725 25.2413L20.4583 22.148C20.3093 22.0629 20.1402 22.0181 19.9681 22.0181C19.796 22.0181 19.6269 22.0629 19.4779 22.148L4.65682 30.5868C4.54505 30.6506 4.41825 30.6842 4.28918 30.6842C4.16011 30.6842 4.03331 30.6506 3.92153 30.5868L2.24506 29.6365C1.90761 29.4455 1.62718 29.1697 1.4322 28.837C1.23722 28.5043 1.13461 28.1265 1.13477 27.7419V25.8183C1.13468 25.6906 1.16862 25.5651 1.23316 25.4544C1.2977 25.3438 1.39056 25.2519 1.50241 25.188L22.7451 13.1189C22.7825 13.0977 22.8136 13.0671 22.8352 13.0301C22.8568 12.9932 22.8682 12.9513 22.8682 12.9086C22.8682 12.8659 22.8568 12.824 22.8352 12.7871C22.8136 12.7502 22.7825 12.7195 22.7451 12.6983L17.3223 9.59528C17.1732 9.51017 17.0042 9.46536 16.8321 9.46536C16.66 9.46536 16.4909 9.51017 16.3419 9.59528L1.88109 17.8256C1.80652 17.8682 1.72192 17.8906 1.63581 17.8905C1.5497 17.8905 1.46512 17.868 1.39058 17.8254C1.31604 17.7828 1.25417 17.7215 1.2112 17.6476C1.16823 17.5738 1.14567 17.4901 1.1458 17.405V12.3565C1.14595 11.9725 1.24858 11.5953 1.44332 11.2631C1.63806 10.9308 1.918 10.6553 2.25486 10.4644L15.7463 2.80619C16.0809 2.61581 16.4601 2.51562 16.8462 2.51562C17.2322 2.51562 17.6114 2.61581 17.946 2.80619L31.4117 10.4874C31.7465 10.6797 32.0243 10.9558 32.217 11.288C32.4098 11.6201 32.5107 11.9966 32.5098 12.3795Z" fill="#9C60FF"/>
</svg>
