<svg width="16" height="16" viewBox="0 0 16 16" fill="none" xmlns="http://www.w3.org/2000/svg">
<path fill-rule="evenodd" clip-rule="evenodd" d="M4.99906 1.81055C4.74018 1.81055 4.53031 2.02041 4.53031 2.2793C4.53031 2.53818 4.74018 2.74805 4.99906 2.74805H11.0206C11.3199 2.74805 11.6162 2.807 11.8927 2.92154C12.1692 3.03609 12.4204 3.20397 12.632 3.41561C12.8436 3.62726 13.0114 3.87851 13.1259 4.15502C13.2404 4.43153 13.2993 4.72789 13.2992 5.02716V11.0487C13.2992 11.3076 13.5091 11.5174 13.768 11.5174C14.0269 11.5174 14.2367 11.3076 14.2367 11.0487V5.02737V5.02727C14.2368 4.6049 14.1537 4.18665 13.9921 3.7964C13.8305 3.40612 13.5937 3.0515 13.295 2.75278C12.9964 2.45406 12.6418 2.2171 12.2515 2.05543C11.8613 1.89376 11.443 1.81055 11.0206 1.81055H4.99906ZM2.70313 5.39055C2.70313 4.95908 3.0529 4.6093 3.48438 4.6093H10.6433C11.0748 4.6093 11.4245 4.95908 11.4245 5.39055V12.5495C11.4245 12.9809 11.0748 13.3307 10.6433 13.3307H3.48438C3.0529 13.3307 2.70313 12.9809 2.70313 12.5495V5.39055ZM3.48438 3.6718C2.53514 3.6718 1.76562 4.44131 1.76562 5.39055V12.5495C1.76562 13.4987 2.53514 14.2682 3.48438 14.2682H10.6433C11.5925 14.2682 12.362 13.4987 12.362 12.5495V5.39055C12.362 4.44131 11.5925 3.6718 10.6433 3.6718H3.48438Z" fill="#919899"/>
</svg>
