<svg width="24" height="24" viewBox="0 0 24 24" fill="none" xmlns="http://www.w3.org/2000/svg">
<path fill-rule="evenodd" clip-rule="evenodd" d="M11.9961 1.54688C12.3844 1.54688 12.6992 1.86167 12.6992 2.25V12.6994C12.6992 13.0877 12.3844 13.4025 11.9961 13.4025C11.6078 13.4025 11.293 13.0877 11.293 12.6994V2.25C11.293 1.86167 11.6078 1.54688 11.9961 1.54688Z" fill="#F36464"/>
<path d="M16.1395 4.41069C15.964 4.73248 16.0659 5.1342 16.3723 5.33553C16.8246 5.63272 17.2465 5.97654 17.6348 6.3649C18.367 7.09709 18.942 7.94951 19.3432 8.89826C19.7583 9.87983 19.9688 10.9233 19.9688 11.9997C19.9688 13.0762 19.7583 14.1197 19.3432 15.1012C18.942 16.05 18.3673 16.9024 17.6348 17.6346C16.9027 18.3668 16.0502 18.9417 15.1015 19.3429C14.1199 19.758 13.0765 19.9685 12 19.9685C10.9235 19.9685 9.88008 19.758 8.89852 19.3429C7.94977 18.9417 7.09734 18.367 6.36516 17.6346C5.63297 16.9024 5.05805 16.05 4.6568 15.1012C4.24172 14.1197 4.03125 13.0762 4.03125 11.9997C4.03125 10.9233 4.24172 9.87983 4.6568 8.89826C5.05805 7.94951 5.63273 7.09709 6.36516 6.3649C6.75328 5.97678 7.17539 5.63272 7.62773 5.33553C7.93406 5.1342 8.03602 4.73248 7.86047 4.41069C7.66289 4.04858 7.19859 3.93537 6.85406 4.16201C4.30687 5.83779 2.62547 8.72154 2.625 11.9983C2.6243 17.1769 6.80344 21.3649 11.982 21.3747C17.168 21.3846 21.375 17.1837 21.375 11.9997C21.375 8.72225 19.6931 5.83756 17.1455 4.16178C16.8009 3.93514 16.3369 4.04881 16.1395 4.41069Z" fill="#F36464"/>
</svg>
