<svg width="335" height="90" viewBox="0 0 335 90" fill="none" xmlns="http://www.w3.org/2000/svg">
<g clip-path="url(#clip0_2534_30213)">
<rect y="-9" width="335" height="120" rx="2.16464" fill="#D6DCEB"/>
<path d="M12.7031 28.5449V37H15.9316C18.4688 37 19.9629 35.4238 19.9629 32.7402C19.9629 30.0566 18.4688 28.5449 15.9316 28.5449H12.7031ZM14.4727 30.0039H15.7207C17.2793 30.0039 18.1582 30.9766 18.1582 32.7461C18.1582 34.5742 17.3027 35.5352 15.7207 35.5352H14.4727V30.0039ZM26.7598 30.7188H25.0488V34.3164C25.0488 35.1484 24.5742 35.6934 23.8125 35.6934C23.0566 35.6934 22.6406 35.248 22.6406 34.4102V30.7188H20.9297V34.7676C20.9297 36.2324 21.832 37.1172 23.1914 37.1172C24.1406 37.1172 24.7617 36.6602 25.0723 35.8691H25.1074V37H26.7598V30.7188ZM30.2988 35.8633C29.7188 35.8633 29.332 35.5703 29.332 35.1016C29.332 34.6562 29.6953 34.3691 30.334 34.3223L31.6582 34.2402V34.6973C31.6582 35.377 31.043 35.8633 30.2988 35.8633ZM29.7363 37.0996C30.5215 37.0996 31.3008 36.707 31.6523 36.0391H31.6875V37H33.3398V32.6816C33.3398 31.416 32.291 30.584 30.6797 30.584C29.0156 30.584 27.9785 31.4219 27.9141 32.6406H29.4785C29.5605 32.1777 29.9648 31.8613 30.6035 31.8613C31.248 31.8613 31.6582 32.2012 31.6582 32.7871V33.2031L30.0762 33.2969C28.5117 33.3906 27.6328 34.0527 27.6328 35.1953C27.6328 36.3262 28.541 37.0996 29.7363 37.0996ZM34.4883 37H36.1992V28.5449H34.4883V37ZM39.7324 37H41.4434V33.4902C41.4434 32.6055 41.9355 32.0898 42.7793 32.0898C43.0254 32.0898 43.2598 32.1309 43.4004 32.1895V30.6836C43.2832 30.6484 43.1133 30.6191 42.9141 30.6191C42.1758 30.6191 41.6426 31.0527 41.4199 31.8496H41.3848V30.7188H39.7324V37ZM46.7109 31.8496C47.4727 31.8496 47.9941 32.4004 48.0293 33.2031H45.3633C45.4219 32.418 45.9609 31.8496 46.7109 31.8496ZM48.0527 35.0781C47.8945 35.5586 47.4141 35.8691 46.7871 35.8691C45.9141 35.8691 45.3457 35.2539 45.3457 34.3574V34.252H49.6758V33.7305C49.6758 31.8203 48.5215 30.584 46.6934 30.584C44.8359 30.584 43.6641 31.8848 43.6641 33.8887C43.6641 35.8984 44.8242 37.1348 46.7578 37.1348C48.3105 37.1348 49.4355 36.3086 49.623 35.0781H48.0527ZM59.3379 30.7188H57.6504L56.6953 35.377H56.6602L55.541 30.7188H53.9004L52.7871 35.377H52.752L51.8027 30.7188H50.0801L51.75 37H53.5488L54.6797 32.5586H54.7148L55.8516 37H57.6738L59.3379 30.7188ZM62.3379 35.8633C61.7578 35.8633 61.3711 35.5703 61.3711 35.1016C61.3711 34.6562 61.7344 34.3691 62.373 34.3223L63.6973 34.2402V34.6973C63.6973 35.377 63.082 35.8633 62.3379 35.8633ZM61.7754 37.0996C62.5605 37.0996 63.3398 36.707 63.6914 36.0391H63.7266V37H65.3789V32.6816C65.3789 31.416 64.3301 30.584 62.7188 30.584C61.0547 30.584 60.0176 31.4219 59.9531 32.6406H61.5176C61.5996 32.1777 62.0039 31.8613 62.6426 31.8613C63.2871 31.8613 63.6973 32.2012 63.6973 32.7871V33.2031L62.1152 33.2969C60.5508 33.3906 59.6719 34.0527 59.6719 35.1953C59.6719 36.3262 60.5801 37.0996 61.7754 37.0996ZM66.4863 37H68.1973V33.4902C68.1973 32.6055 68.6895 32.0898 69.5332 32.0898C69.7793 32.0898 70.0137 32.1309 70.1543 32.1895V30.6836C70.0371 30.6484 69.8672 30.6191 69.668 30.6191C68.9297 30.6191 68.3965 31.0527 68.1738 31.8496H68.1387V30.7188H66.4863V37ZM72.9785 37.0996C73.9043 37.0996 74.6309 36.6133 74.9355 35.9219H74.9648V37H76.6523V28.5449H74.9414V31.7969H74.9062C74.6016 31.0996 73.8984 30.6191 72.9902 30.6191C71.4141 30.6191 70.418 31.8555 70.418 33.8477C70.418 35.8574 71.4082 37.0996 72.9785 37.0996ZM73.5586 31.9902C74.4082 31.9902 74.9531 32.7168 74.9531 33.8594C74.9531 35.0078 74.4082 35.7227 73.5586 35.7227C72.6973 35.7227 72.1699 35.0137 72.1699 33.8594C72.1699 32.7109 72.6973 31.9902 73.5586 31.9902ZM83.8418 30.6191C82.9336 30.6191 82.2363 31.0762 81.8965 31.8145H81.8613V30.7188H80.1738V39.0508H81.8848V35.9453H81.9199C82.2539 36.6543 82.957 37.0996 83.8711 37.0996C85.4414 37.0996 86.4141 35.8809 86.4141 33.8594C86.4141 31.832 85.4355 30.6191 83.8418 30.6191ZM83.2676 35.7227C82.4297 35.7227 81.8789 34.9961 81.8789 33.8594C81.8789 32.7344 82.4297 31.9902 83.2676 31.9902C84.123 31.9902 84.6621 32.7227 84.6621 33.8594C84.6621 35.002 84.123 35.7227 83.2676 35.7227ZM90.1816 37.1348C92.0801 37.1348 93.293 35.9219 93.293 33.8535C93.293 31.8145 92.0625 30.584 90.1816 30.584C88.3008 30.584 87.0703 31.8203 87.0703 33.8535C87.0703 35.916 88.2832 37.1348 90.1816 37.1348ZM90.1816 35.8281C89.3379 35.8281 88.8047 35.1191 88.8047 33.8594C88.8047 32.6113 89.3496 31.8906 90.1816 31.8906C91.0137 31.8906 91.5527 32.6113 91.5527 33.8594C91.5527 35.1191 91.0195 35.8281 90.1816 35.8281ZM97.0605 37.1348C98.959 37.1348 100.172 35.9219 100.172 33.8535C100.172 31.8145 98.9414 30.584 97.0605 30.584C95.1797 30.584 93.9492 31.8203 93.9492 33.8535C93.9492 35.916 95.1621 37.1348 97.0605 37.1348ZM97.0605 35.8281C96.2168 35.8281 95.6836 35.1191 95.6836 33.8594C95.6836 32.6113 96.2285 31.8906 97.0605 31.8906C97.8926 31.8906 98.4316 32.6113 98.4316 33.8594C98.4316 35.1191 97.8984 35.8281 97.0605 35.8281ZM101.098 37H102.809V28.5449H101.098V37ZM103.857 32.5645C103.857 33.4902 104.467 34.1113 105.656 34.3809L106.816 34.6387C107.379 34.7734 107.59 34.9492 107.59 35.2656C107.59 35.6758 107.197 35.9336 106.547 35.9336C105.867 35.9336 105.451 35.6289 105.369 35.1016H103.699C103.793 36.3262 104.824 37.1348 106.5 37.1348C108.158 37.1348 109.295 36.3203 109.295 35.084C109.295 34.1465 108.785 33.6484 107.525 33.3672L106.324 33.1094C105.773 32.9805 105.504 32.7695 105.504 32.459C105.504 32.0547 105.891 31.7852 106.482 31.7852C107.115 31.7852 107.52 32.0957 107.555 32.5996H109.131C109.107 31.3809 108.082 30.584 106.506 30.584C104.895 30.584 103.857 31.3691 103.857 32.5645ZM114.955 35.8633C114.375 35.8633 113.988 35.5703 113.988 35.1016C113.988 34.6562 114.352 34.3691 114.99 34.3223L116.314 34.2402V34.6973C116.314 35.377 115.699 35.8633 114.955 35.8633ZM114.393 37.0996C115.178 37.0996 115.957 36.707 116.309 36.0391H116.344V37H117.996V32.6816C117.996 31.416 116.947 30.584 115.336 30.584C113.672 30.584 112.635 31.4219 112.57 32.6406H114.135C114.217 32.1777 114.621 31.8613 115.26 31.8613C115.904 31.8613 116.314 32.2012 116.314 32.7871V33.2031L114.732 33.2969C113.168 33.3906 112.289 34.0527 112.289 35.1953C112.289 36.3262 113.197 37.0996 114.393 37.0996ZM119.104 37H120.814V33.3965C120.814 32.582 121.301 32.0195 122.068 32.0195C122.836 32.0195 123.223 32.4883 123.223 33.3086V37H124.934V32.9512C124.934 31.4805 124.148 30.6016 122.754 30.6016C121.787 30.6016 121.125 31.0586 120.791 31.8379H120.756V30.7188H119.104V37ZM128.35 37.0996C129.275 37.0996 130.002 36.6133 130.307 35.9219H130.336V37H132.023V28.5449H130.312V31.7969H130.277C129.973 31.0996 129.27 30.6191 128.361 30.6191C126.785 30.6191 125.789 31.8555 125.789 33.8477C125.789 35.8574 126.779 37.0996 128.35 37.0996ZM128.93 31.9902C129.779 31.9902 130.324 32.7168 130.324 33.8594C130.324 35.0078 129.779 35.7227 128.93 35.7227C128.068 35.7227 127.541 35.0137 127.541 33.8594C127.541 32.7109 128.068 31.9902 128.93 31.9902ZM40.1865 60H42.7529V54.7354C42.7529 53.4082 43.4912 52.6348 44.7568 52.6348C45.126 52.6348 45.4775 52.6963 45.6885 52.7842V50.5254C45.5127 50.4727 45.2578 50.4287 44.959 50.4287C43.8516 50.4287 43.0518 51.0791 42.7178 52.2744H42.665V50.5781H40.1865V60ZM50.6543 52.2744C51.7969 52.2744 52.5791 53.1006 52.6318 54.3047H48.6328C48.7207 53.127 49.5293 52.2744 50.6543 52.2744ZM52.667 57.1172C52.4297 57.8379 51.709 58.3037 50.7686 58.3037C49.459 58.3037 48.6064 57.3809 48.6064 56.0361V55.8779H55.1016V55.0957C55.1016 52.2305 53.3701 50.376 50.6279 50.376C47.8418 50.376 46.084 52.3271 46.084 55.333C46.084 58.3477 47.8242 60.2021 50.7246 60.2021C53.0537 60.2021 54.7412 58.9629 55.0225 57.1172H52.667ZM69.5947 50.5781H67.0635L65.6309 57.5654H65.5781L63.8994 50.5781H61.4385L59.7686 57.5654H59.7158L58.292 50.5781H55.708L58.2129 60H60.9111L62.6074 53.3379H62.6602L64.3652 60H67.0986L69.5947 50.5781ZM74.0947 58.2949C73.2246 58.2949 72.6445 57.8555 72.6445 57.1523C72.6445 56.4844 73.1895 56.0537 74.1475 55.9834L76.1338 55.8604V56.5459C76.1338 57.5654 75.2109 58.2949 74.0947 58.2949ZM73.251 60.1494C74.4287 60.1494 75.5977 59.5605 76.125 58.5586H76.1777V60H78.6562V53.5225C78.6562 51.624 77.083 50.376 74.666 50.376C72.1699 50.376 70.6143 51.6328 70.5176 53.4609H72.8643C72.9873 52.7666 73.5938 52.292 74.5518 52.292C75.5186 52.292 76.1338 52.8018 76.1338 53.6807V54.3047L73.7607 54.4453C71.4141 54.5859 70.0957 55.5791 70.0957 57.293C70.0957 58.9893 71.458 60.1494 73.251 60.1494ZM80.3174 60H82.8838V54.7354C82.8838 53.4082 83.6221 52.6348 84.8877 52.6348C85.2568 52.6348 85.6084 52.6963 85.8193 52.7842V50.5254C85.6436 50.4727 85.3887 50.4287 85.0898 50.4287C83.9824 50.4287 83.1826 51.0791 82.8486 52.2744H82.7959V50.5781H80.3174V60ZM90.0557 60.1494C91.4443 60.1494 92.5342 59.4199 92.9912 58.3828H93.0352V60H95.5664V47.3174H93V52.1953H92.9473C92.4902 51.1494 91.4355 50.4287 90.0732 50.4287C87.709 50.4287 86.2148 52.2832 86.2148 55.2715C86.2148 58.2861 87.7002 60.1494 90.0557 60.1494ZM90.9258 52.4854C92.2002 52.4854 93.0176 53.5752 93.0176 55.2891C93.0176 57.0117 92.2002 58.084 90.9258 58.084C89.6338 58.084 88.8428 57.0205 88.8428 55.2891C88.8428 53.5664 89.6338 52.4854 90.9258 52.4854ZM97.1221 53.3467C97.1221 54.7354 98.0361 55.667 99.8203 56.0713L101.561 56.458C102.404 56.6602 102.721 56.9238 102.721 57.3984C102.721 58.0137 102.132 58.4004 101.156 58.4004C100.137 58.4004 99.5127 57.9434 99.3896 57.1523H96.8848C97.0254 58.9893 98.5723 60.2021 101.086 60.2021C103.573 60.2021 105.278 58.9805 105.278 57.126C105.278 55.7197 104.514 54.9727 102.624 54.5508L100.822 54.1641C99.9961 53.9707 99.5918 53.6543 99.5918 53.1885C99.5918 52.582 100.172 52.1777 101.06 52.1777C102.009 52.1777 102.615 52.6436 102.668 53.3994H105.032C104.997 51.5713 103.459 50.376 101.095 50.376C98.6777 50.376 97.1221 51.5537 97.1221 53.3467ZM110.174 60H112.74V50.5781H110.174V60ZM111.457 49.541C112.23 49.541 112.828 48.9521 112.828 48.2139C112.828 47.4668 112.23 46.8867 111.457 46.8867C110.684 46.8867 110.086 47.4668 110.086 48.2139C110.086 48.9521 110.684 49.541 111.457 49.541ZM114.454 60H117.021V54.5947C117.021 53.373 117.75 52.5293 118.901 52.5293C120.053 52.5293 120.633 53.2324 120.633 54.4629V60H123.199V53.9268C123.199 51.7207 122.021 50.4023 119.93 50.4023C118.479 50.4023 117.486 51.0879 116.985 52.2568H116.933V50.5781H114.454V60ZM134.229 60C136.937 60 138.615 58.6025 138.615 56.3701C138.615 54.6914 137.35 53.4346 135.627 53.3027V53.2324C136.972 53.0303 138.009 51.8701 138.009 50.4814C138.009 48.5391 136.515 47.3174 134.133 47.3174H128.613V60H134.229ZM131.268 49.2949H133.447C134.687 49.2949 135.398 49.875 135.398 50.8945C135.398 51.9668 134.59 52.5908 133.175 52.5908H131.268V49.2949ZM131.268 58.0225V54.3398H133.491C135.056 54.3398 135.908 54.9727 135.908 56.1592C135.908 57.3721 135.082 58.0225 133.553 58.0225H131.268ZM142.781 60V56.124L143.968 54.7002L147.729 60H150.902L145.884 52.9424L150.577 47.3174H147.624L142.86 53.1006H142.781V47.3174H140.127V60H142.781ZM157.644 60C160.351 60 162.029 58.6025 162.029 56.3701C162.029 54.6914 160.764 53.4346 159.041 53.3027V53.2324C160.386 53.0303 161.423 51.8701 161.423 50.4814C161.423 48.5391 159.929 47.3174 157.547 47.3174H152.027V60H157.644ZM154.682 49.2949H156.861C158.101 49.2949 158.812 49.875 158.812 50.8945C158.812 51.9668 158.004 52.5908 156.589 52.5908H154.682V49.2949ZM154.682 58.0225V54.3398H156.905C158.47 54.3398 159.322 54.9727 159.322 56.1592C159.322 57.3721 158.496 58.0225 156.967 58.0225H154.682Z" fill="#0E1B40"/>
<path d="M18.9434 60H21.4658V57.7412H23.1182V55.6143H21.4658V47.3174H17.7217C15.1201 51.1494 13.7402 53.373 12.6328 55.4824V57.7412H18.9434V60ZM14.9619 55.623C15.9902 53.6367 17.0977 51.9053 18.9434 49.1982H18.9961V55.6934H14.9619V55.623ZM23.8213 60H26.6865L29.4814 55.5615H29.5518L32.3291 60H35.3525L31.2568 53.6895V53.6279L35.4053 47.3174H32.4434L29.7275 51.8877H29.6572L26.9678 47.3174H23.8477L27.8467 53.5752V53.6455L23.8213 60Z" fill="#7524F9"/>
<g clip-path="url(#clip1_2534_30213)">
<path d="M320.23 7.3916H319.095V19.7902H320.23V7.3916Z" fill="#F04E98"/>
<path d="M325.9 13.0254H313.427V14.1531H325.9V13.0254Z" fill="#F04E98"/>
<path d="M315.652 8.81L314.851 9.6084L323.662 18.3837L324.464 17.5853L315.652 8.81Z" fill="#F04E98"/>
<path d="M323.67 8.7938L314.858 17.5703L315.66 18.3687L324.472 9.5922L323.67 8.7938Z" fill="#F04E98"/>
<path d="M201.777 30.417H200.385V45.6275H201.777V30.417Z" fill="#7524F9"/>
<path d="M208.736 37.332H193.43V38.716H208.736V37.332Z" fill="#7524F9"/>
<path d="M196.156 32.1535L195.172 33.1328L205.987 43.8967L206.971 42.9174L196.156 32.1535Z" fill="#7524F9"/>
<path d="M206.015 32.1452L195.201 42.9121L196.185 43.8916L206.999 33.1247L206.015 32.1452Z" fill="#7524F9"/>
<path d="M316.274 78.6826H315.651V85.4798H316.274V78.6826Z" fill="#FE7624"/>
<path d="M319.383 81.7725H312.543V82.3909H319.383V81.7725Z" fill="#FE7624"/>
<path d="M313.762 79.4569L313.322 79.8945L318.155 84.7046L318.595 84.267L313.762 79.4569Z" fill="#FE7624"/>
<path d="M318.168 79.4542L313.336 84.2656L313.776 84.7033L318.608 79.8919L318.168 79.4542Z" fill="#FE7624"/>
<path d="M323.184 29.0322V32.5042C322.23 32.492 321.46 31.7195 321.46 30.7683C321.46 29.8169 322.23 29.0444 323.184 29.0322Z" fill="#7524F9"/>
<path d="M324.956 30.7683V30.7684H323.187V29.0324C323.194 29.0322 323.202 29.0322 323.21 29.0322C324.174 29.0322 324.956 29.8095 324.956 30.7683Z" fill="#0E1B40"/>
<path d="M247.272 12.7781L242.563 17.4575C241.294 16.1633 241.305 14.0914 242.595 12.8095C243.885 11.5273 245.97 11.5169 247.272 12.7781Z" fill="#7524F9"/>
<path d="M247.304 17.4871L247.304 17.4873L244.919 15.1177L247.273 12.7785C247.284 12.7886 247.294 12.7989 247.304 12.8092C248.604 14.1007 248.604 16.1952 247.304 17.4871Z" fill="#0E1B40"/>
<path d="M284.536 77.34C279.706 77.34 274.903 76.3173 270.645 74.3825C266.523 72.5094 262.892 69.7798 260.144 66.4891L260.38 66.2939C263.099 69.5495 266.693 72.2504 270.773 74.1047C274.991 76.0213 279.75 77.0344 284.536 77.0344C289.309 77.0344 293.87 76.0797 298.093 74.197C302.119 72.4018 305.689 69.7803 308.418 66.6156L308.651 66.8145C305.893 70.0131 302.286 72.6623 298.219 74.4758C293.956 76.3763 289.352 77.34 284.536 77.34Z" fill="#0E1B40"/>
<path d="M306.047 67.3423C306.071 67.4229 306.157 67.4686 306.238 67.4442L308.489 66.7669L308.154 69.0803C308.142 69.1639 308.201 69.2414 308.285 69.2533C308.369 69.2652 308.447 69.2065 308.459 69.1239L308.827 66.573C308.835 66.5213 308.815 66.4694 308.775 66.4353C308.735 66.4013 308.681 66.3899 308.631 66.405L306.149 67.1516C306.12 67.1604 306.096 67.1769 306.077 67.1982C306.044 67.2366 306.031 67.2903 306.047 67.3423Z" fill="#0E1B40"/>
<path fill-rule="evenodd" clip-rule="evenodd" d="M263.824 68.9443C264.802 69.8001 265.849 70.5962 266.958 71.3257L266.195 72.4722C265.034 71.7086 263.936 70.8743 262.91 69.9763L263.824 68.9443Z" fill="#1CBDB5"/>
<path d="M289.961 76.743C288.225 77.0159 286.438 77.1583 284.613 77.1583C282.433 77.1583 280.307 76.9552 278.259 76.5693" stroke="#7524F9" stroke-width="7.97052" stroke-miterlimit="10"/>
<path fill-rule="evenodd" clip-rule="evenodd" d="M298.309 73.5191C299.636 72.9068 300.903 72.2083 302.1 71.4326L302.855 72.5842C301.603 73.3962 300.278 74.1265 298.891 74.7662L298.309 73.5191Z" fill="#FE7624"/>
<path d="M308.726 35.5127C306.008 32.2467 302.412 29.5367 298.325 27.6757C294.101 25.7519 289.334 24.7352 284.539 24.7352C279.755 24.7352 275.185 25.6939 270.955 27.5847C266.922 29.3876 263.348 32.0195 260.621 35.1961L260.387 34.9976C263.144 31.787 266.755 29.1273 270.829 27.306C275.099 25.3974 279.712 24.4297 284.539 24.4297C289.378 24.4297 294.189 25.4561 298.453 27.3979C302.581 29.2779 306.215 32.0168 308.963 35.3181L308.726 35.5127Z" fill="#0E1B40"/>
<path d="M262.991 34.4666C262.967 34.386 262.881 34.3405 262.8 34.3651L260.551 35.0469L260.88 32.7328C260.892 32.6492 260.834 32.5718 260.75 32.5601C260.666 32.5484 260.588 32.6072 260.576 32.6899L260.212 35.2415C260.205 35.2932 260.225 35.3451 260.265 35.379C260.305 35.4129 260.359 35.4243 260.41 35.4091L262.889 34.6574C262.918 34.6486 262.943 34.632 262.961 34.6107C262.994 34.5723 263.007 34.5185 262.991 34.4666Z" fill="#0E1B40"/>
<path fill-rule="evenodd" clip-rule="evenodd" d="M302.382 30.5692C298.788 28.1575 294.534 26.4533 289.893 25.7016L290.115 24.3447C294.951 25.1279 299.394 26.9051 303.156 29.4298L302.382 30.5692Z" fill="#1CBDB5"/>
<path fill-rule="evenodd" clip-rule="evenodd" d="M271.904 27.6963C269.848 28.5589 267.926 29.624 266.171 30.8612L265.371 29.7398C267.209 28.444 269.219 27.3305 271.366 26.4297L271.904 27.6963Z" fill="#7524F9"/>
<path d="M312.732 62.0683C318.759 62.0683 323.646 57.2114 323.646 51.2202C323.646 45.2289 318.759 40.3721 312.732 40.3721C306.705 40.3721 301.818 45.2289 301.818 51.2202C301.818 57.2114 306.705 62.0683 312.732 62.0683Z" fill="#1CBDB5"/>
<path d="M313.035 42.4297C313.012 42.4297 312.99 42.4304 312.968 42.4305C317.389 42.9175 320.828 46.6433 320.828 51.168C320.828 56.0016 316.904 59.9235 312.05 59.9592C312.373 59.9948 312.702 60.0137 313.035 60.0137C317.92 60.0137 321.88 56.0774 321.88 51.2217C321.88 46.366 317.92 42.4297 313.035 42.4297Z" fill="#0E1B40"/>
<path d="M302.422 51.2202C302.422 45.5728 306.764 40.9341 312.31 40.4201C311.973 40.3888 311.631 40.3721 311.285 40.3721C305.257 40.3721 300.371 45.2289 300.371 51.2202C300.371 57.2114 305.257 62.0683 311.285 62.0683C311.631 62.0683 311.973 62.0516 312.31 62.0202C306.764 61.5063 302.422 56.8676 302.422 51.2202Z" fill="#0E1B40"/>
<path d="M285.084 37.2699C292.315 37.2699 298.177 31.4432 298.177 24.2556C298.177 17.0679 292.315 11.2412 285.084 11.2412C277.853 11.2412 271.991 17.0679 271.991 24.2556C271.991 31.4432 277.853 37.2699 285.084 37.2699Z" fill="#7524F9"/>
<path d="M285.451 13.708C285.424 13.708 285.398 13.7088 285.371 13.709C290.675 14.2932 294.801 18.763 294.801 24.1913C294.801 29.99 290.093 34.6951 284.27 34.738C284.657 34.7807 285.052 34.8034 285.451 34.8034C291.312 34.8034 296.062 30.0811 296.062 24.2557C296.062 18.4304 291.312 13.708 285.451 13.708Z" fill="#0E1B40"/>
<path d="M272.407 24.2556C272.407 17.4804 277.616 11.9155 284.27 11.2989C283.864 11.2613 283.454 11.2412 283.039 11.2412C275.808 11.2412 269.946 17.0679 269.946 24.2556C269.946 31.4432 275.808 37.2699 283.039 37.2699C283.454 37.2699 283.864 37.2498 284.27 37.2122C277.616 36.5956 272.407 31.0307 272.407 24.2556Z" fill="#0E1B40"/>
<path d="M285.292 25.0337L287.578 22.2791C287.657 22.1833 287.631 22.0395 287.523 21.9771L285.803 20.989C285.72 20.9411 285.632 20.9063 285.541 20.8838C285.415 20.8526 285.292 20.9496 285.292 21.0794V25.0337H285.292Z" fill="white"/>
<path d="M289.166 29.6333L289.646 29.3574C289.959 29.1777 290.151 28.8462 290.151 28.4873V24.069C290.151 23.7102 289.959 23.3787 289.646 23.199L289.217 22.9518C289.131 22.9027 289.022 22.9221 288.959 22.9979L286.2 26.3228L288.909 29.587C288.972 29.663 289.081 29.6824 289.166 29.6333Z" fill="white"/>
<path d="M283.686 21.4669C283.686 21.4618 283.685 21.4565 283.685 21.4511L283.686 20.4065V16.358C283.659 16.2291 283.51 16.1563 283.388 16.2265L280.955 17.6245C280.643 17.8039 280.45 18.1353 280.45 18.4939L280.443 28.4864C280.443 28.8454 280.636 29.1775 280.948 29.3572L283.348 30.7361C283.498 30.8224 283.687 30.7146 283.687 30.5419V21.4669H283.686Z" fill="white"/>
<path d="M285.292 27.6094V31.4742C285.292 31.6041 285.414 31.7012 285.541 31.6699C285.632 31.6476 285.72 31.6125 285.803 31.5647L287.473 30.6054C287.581 30.5433 287.607 30.3994 287.528 30.3034L285.292 27.6094Z" fill="white"/>
<path d="M285.13 89.8793C292.361 89.8793 298.223 84.0526 298.223 76.8649C298.223 69.6773 292.361 63.8506 285.13 63.8506C277.899 63.8506 272.037 69.6773 272.037 76.8649C272.037 84.0526 277.899 89.8793 285.13 89.8793Z" fill="#7524F9"/>
<path d="M285.499 66.3174C285.472 66.3174 285.446 66.3182 285.419 66.3184C290.723 66.9026 294.849 71.3724 294.849 76.8006C294.849 82.5994 290.141 87.3045 284.317 87.3473C284.705 87.39 285.099 87.4128 285.499 87.4128C291.359 87.4128 296.11 82.6904 296.11 76.8651C296.11 71.0398 291.359 66.3174 285.499 66.3174Z" fill="#0E1B40"/>
<path d="M272.453 76.8649C272.453 70.0898 277.662 64.5249 284.315 63.9083C283.91 63.8707 283.5 63.8506 283.085 63.8506C275.854 63.8506 269.992 69.6773 269.992 76.8649C269.992 84.0526 275.854 89.8793 283.085 89.8793C283.5 89.8793 283.91 89.8592 284.315 89.8216C277.662 89.2051 272.453 83.64 272.453 76.8649Z" fill="#0E1B40"/>
<path d="M285.337 77.647L287.623 74.8923C287.702 74.7966 287.676 74.6527 287.568 74.5903L285.848 73.6023C285.765 73.5544 285.677 73.5195 285.586 73.4971C285.46 73.4659 285.337 73.5628 285.337 73.6927V77.647H285.337Z" fill="white"/>
<path d="M289.21 82.2427L289.69 81.9668C290.003 81.7871 290.195 81.4556 290.195 81.0967V76.6784C290.195 76.3196 290.003 75.988 289.69 75.8083L289.26 75.5612C289.175 75.5121 289.066 75.5315 289.003 75.6073L286.244 78.9322L288.953 82.1964C289.016 82.2724 289.125 82.2918 289.21 82.2427Z" fill="white"/>
<path d="M283.731 74.0772C283.731 74.0721 283.73 74.0669 283.73 74.0615L283.731 73.0168V68.9684C283.704 68.8395 283.555 68.7667 283.433 68.8369L281 70.2349C280.688 70.4143 280.495 70.7456 280.495 71.1042L280.488 81.0968C280.488 81.4558 280.68 81.7879 280.993 81.9676L283.393 83.3465C283.543 83.4328 283.732 83.3249 283.732 83.1523V74.0772H283.731Z" fill="white"/>
<path d="M285.337 80.2197V84.0846C285.337 84.2145 285.459 84.3117 285.586 84.2803C285.677 84.258 285.765 84.2229 285.848 84.1751L287.518 83.2157C287.626 83.1536 287.652 83.0098 287.572 82.9137L285.337 80.2197Z" fill="white"/>
<path d="M257.531 61.9481C263.492 61.9481 268.325 57.1444 268.325 51.2187C268.325 45.293 263.492 40.4893 257.531 40.4893C251.569 40.4893 246.736 45.293 246.736 51.2187C246.736 57.1444 251.569 61.9481 257.531 61.9481Z" fill="#FE7624"/>
<path d="M257.832 42.5225C257.81 42.5225 257.789 42.5231 257.767 42.5233C262.14 43.0049 265.541 46.6899 265.541 51.1652C265.541 55.9459 261.66 59.825 256.858 59.8602C257.178 59.8955 257.503 59.9142 257.832 59.9142C262.664 59.9142 266.581 56.0209 266.581 51.2183C266.581 46.4157 262.664 42.5225 257.832 42.5225Z" fill="#0E1B40"/>
<path d="M247.078 51.2187C247.078 45.6331 251.372 41.0451 256.857 40.5368C256.523 40.5058 256.185 40.4893 255.843 40.4893C249.882 40.4893 245.049 45.293 245.049 51.2187C245.049 57.1444 249.882 61.9481 255.843 61.9481C256.185 61.9481 256.523 61.9315 256.857 61.9006C251.372 61.3923 247.078 56.8043 247.078 51.2187Z" fill="#0E1B40"/>
<path d="M257.818 45.9766H256.858V56.4642H257.818V45.9766Z" fill="white"/>
<path d="M262.614 50.7441H252.063V51.698H262.614V50.7441Z" fill="white"/>
<path d="M253.944 47.1762L253.266 47.8516L260.719 55.2743L261.397 54.599L253.944 47.1762Z" fill="white"/>
<path d="M260.725 47.1651L253.271 54.5889L253.95 55.2642L261.403 47.8404L260.725 47.1651Z" fill="white"/>
<path d="M313.291 45.9766H312.331V56.4642H313.291V45.9766Z" fill="white"/>
<path d="M318.088 50.7441H307.537V51.698H318.088V50.7441Z" fill="white"/>
<path d="M309.423 47.1762L308.745 47.8516L316.199 55.2743L316.877 54.599L309.423 47.1762Z" fill="white"/>
<path d="M316.206 47.1641L308.752 54.5879L309.43 55.2632L316.884 47.8394L316.206 47.1641Z" fill="white"/>
<path d="M306.623 34.0331C307.259 34.0331 307.774 33.5207 307.774 32.8886C307.774 32.2565 307.259 31.7441 306.623 31.7441C305.987 31.7441 305.472 32.2565 305.472 32.8886C305.472 33.5207 305.987 34.0331 306.623 34.0331Z" fill="#F04E98"/>
<path d="M260.446 67.7157C261.082 67.7157 261.598 67.2033 261.598 66.5712C261.598 65.9392 261.082 65.4268 260.446 65.4268C259.81 65.4268 259.295 65.9392 259.295 66.5712C259.295 67.2033 259.81 67.7157 260.446 67.7157Z" fill="#FE7624"/>
<path d="M221.459 14.9158L221.696 15.1513C220.242 16.5969 219.441 18.5189 219.441 20.563C219.441 22.6074 220.242 24.5293 221.696 25.9748C224.698 28.9589 229.583 28.9589 232.585 25.9748L232.822 26.2104C229.689 29.3244 224.592 29.3244 221.459 26.2104C219.942 24.7019 219.106 22.6963 219.106 20.563C219.106 18.4298 219.942 16.4242 221.459 14.9158Z" fill="#0E1B40"/>
<path d="M223.943 28.9745C224.766 28.9745 225.433 28.3119 225.433 27.4946C225.433 26.6772 224.766 26.0146 223.943 26.0146C223.121 26.0146 222.454 26.6772 222.454 27.4946C222.454 28.3119 223.121 28.9745 223.943 28.9745Z" fill="#FE7624"/>
<path d="M195.119 81.5033L194.795 81.8568C192.597 79.9005 189.756 78.906 186.796 79.0568C183.836 79.2077 181.11 80.4857 179.122 82.6554C175.016 87.1344 175.367 94.0644 179.904 98.1031L179.58 98.4566C174.846 94.2419 174.48 87.0108 178.764 82.3366C180.839 80.0725 183.683 78.7388 186.772 78.5814C189.861 78.424 192.825 79.4618 195.119 81.5033Z" fill="#0E1B40"/>
<path d="M174.451 89.1933C174.497 90.12 175.298 90.8324 176.238 90.7845C177.178 90.7366 177.902 89.9465 177.856 89.0198C177.809 88.0931 177.008 87.3806 176.068 87.4285C175.128 87.4764 174.404 88.2666 174.451 89.1933Z" fill="#F04E98"/>
<path d="M187.009 78.5684C184.208 78.711 181.688 79.8175 179.763 81.545" stroke="#1CBDB5" stroke-width="1.54982"/>
</g>
<path d="M116.103 6H115.252V15.2945H116.103V6Z" fill="#1CBDB5"/>
<path d="M120.353 10.2246H111V11.0703H120.353V10.2246Z" fill="#1CBDB5"/>
<path d="M112.668 7.06074L112.066 7.65918L118.675 14.2366L119.276 13.6381L112.668 7.06074Z" fill="#1CBDB5"/>
<path d="M118.69 7.05656L112.082 13.6357L112.683 14.2343L119.291 7.65508L118.69 7.05656Z" fill="#1CBDB5"/>
<path d="M131.713 11H131.094V17.7645H131.713V11Z" fill="#7524F9"/>
<path d="M134.807 14.0742H128V14.6897H134.807V14.0742Z" fill="#7524F9"/>
<path d="M129.213 11.7715L128.775 12.207L133.585 16.994L134.023 16.5585L129.213 11.7715Z" fill="#7524F9"/>
<path d="M133.594 11.7683L128.785 16.5566L129.223 16.9922L134.032 12.2039L133.594 11.7683Z" fill="#7524F9"/>
<path d="M34.7554 75.582H26.0234V84.5716H34.7554V75.582Z" fill="#7524F9"/>
<path d="M30.7474 79.7061H25V85.6229H30.7474V79.7061Z" fill="#1CBDB5"/>
<path d="M38.149 81.9825L37.9473 81.7748C39.1852 80.5004 39.867 78.8059 39.867 77.0037C39.867 75.2014 39.1852 73.507 37.9473 72.2325C35.3919 69.6017 31.2337 69.6017 28.6782 72.2325L28.4766 72.0249C31.1433 69.2795 35.4822 69.2795 38.149 72.0249C39.4408 73.3548 40.1523 75.123 40.1523 77.0037C40.1523 78.8845 39.4408 80.6526 38.149 81.9825Z" fill="#0E1B40"/>
<path d="M32.2046 71.2464C32.8074 71.2464 33.296 70.7435 33.296 70.1232C33.296 69.5029 32.8074 69 32.2046 69C31.6019 69 31.1133 69.5029 31.1133 70.1232C31.1133 70.7435 31.6019 71.2464 32.2046 71.2464Z" fill="#F04E98"/>
<path d="M39.692 74.8401L39.8428 72.5938L37.6602 73.5997L39.692 74.8401Z" fill="#FE7624"/>
<path d="M30.7487 79.707H26.0234V84.5716H30.7487V79.707Z" fill="#0E1B40"/>
</g>
<defs>
<clipPath id="clip0_2534_30213">
<rect width="335" height="90" rx="8" fill="white"/>
</clipPath>
<clipPath id="clip1_2534_30213">
<rect width="168" height="89" fill="white" transform="translate(158 1)"/>
</clipPath>
</defs>
</svg>
