<svg width="24" height="24" viewBox="0 0 24 24" fill="none" xmlns="http://www.w3.org/2000/svg">
<path fill-rule="evenodd" clip-rule="evenodd" d="M11.9847 1.51172C12.3731 1.51172 12.6879 1.82652 12.6879 2.21484V3.71227C12.6879 4.10059 12.3731 4.41539 11.9847 4.41539C11.5964 4.41539 11.2816 4.10059 11.2816 3.71227V2.21484C11.2816 1.82652 11.5964 1.51172 11.9847 1.51172ZM11.9847 17.6836C15.1431 17.6836 17.7035 15.1232 17.7035 11.9648C17.7035 8.80647 15.1431 6.24609 11.9847 6.24609C8.82636 6.24609 6.26599 8.80647 6.26599 11.9648C6.26599 15.1232 8.82636 17.6836 11.9847 17.6836ZM19.5342 11.9648C19.5342 11.5765 19.849 11.2617 20.2373 11.2617H21.7347C22.1231 11.2617 22.4379 11.5765 22.4379 11.9648C22.4379 12.3532 22.1231 12.668 21.7347 12.668H20.2373C19.849 12.668 19.5342 12.3532 19.5342 11.9648ZM2.23474 11.2617C1.84642 11.2617 1.53162 11.5765 1.53162 11.9648C1.53162 12.3532 1.84642 12.668 2.23474 12.668H3.73732C4.12564 12.668 4.44044 12.3532 4.44044 11.9648C4.44044 11.5765 4.12564 11.2617 3.73732 11.2617H2.23474ZM12.6879 20.2123C12.6879 19.8239 12.3731 19.5091 11.9847 19.5091C11.5964 19.5091 11.2816 19.8239 11.2816 20.2123V21.7148C11.2816 22.1032 11.5964 22.418 11.9847 22.418C12.3731 22.418 12.6879 22.1032 12.6879 21.7148V20.2123ZM19.3763 4.57328C19.6509 4.84787 19.6509 5.29306 19.3763 5.56765L18.3174 6.62656C18.0428 6.90114 17.5976 6.90114 17.323 6.62656C17.0484 6.35197 17.0484 5.90677 17.323 5.63219L18.3819 4.57328C18.6565 4.29869 19.1017 4.29869 19.3763 4.57328ZM6.6502 18.2938C6.92479 18.0192 6.92479 17.574 6.6502 17.2994C6.37562 17.0248 5.93042 17.0248 5.65583 17.2994L4.59318 18.362C4.31859 18.6366 4.31859 19.0818 4.59318 19.3564C4.86777 19.631 5.31296 19.631 5.58755 19.3564L6.6502 18.2938ZM4.59318 4.57328C4.86777 4.29869 5.31296 4.29869 5.58755 4.57328L6.64645 5.63219C6.92104 5.90677 6.92104 6.35197 6.64645 6.62656C6.37187 6.90114 5.92667 6.90114 5.65208 6.62656L4.59318 5.56765C4.31859 5.29306 4.31859 4.84787 4.59318 4.57328ZM18.3136 17.2994C18.0391 17.0248 17.5939 17.0248 17.3193 17.2994C17.0447 17.574 17.0447 18.0192 17.3193 18.2938L18.3819 19.3564C18.6565 19.631 19.1017 19.631 19.3763 19.3564C19.6509 19.0818 19.6509 18.6366 19.3763 18.362L18.3136 17.2994Z" fill="#E5E5E5"/>
</svg>
