<svg width="24" height="24" viewBox="0 0 24 24" fill="none" xmlns="http://www.w3.org/2000/svg">
<path fill-rule="evenodd" clip-rule="evenodd" d="M2.65186 4.47754C2.65186 4.08921 2.96666 3.77441 3.35498 3.77441H20.6181C21.0064 3.77441 21.3212 4.08921 21.3212 4.47754C21.3212 4.86586 21.0064 5.18066 20.6181 5.18066H3.35498C2.96666 5.18066 2.65186 4.86586 2.65186 4.47754ZM2.65186 11.99C2.65186 11.6016 2.96666 11.2868 3.35498 11.2868H20.6181C21.0064 11.2868 21.3212 11.6016 21.3212 11.99C21.3212 12.3783 21.0064 12.6931 20.6181 12.6931H3.35498C2.96666 12.6931 2.65186 12.3783 2.65186 11.99ZM3.35498 18.799C2.96666 18.799 2.65186 19.1138 2.65186 19.5022C2.65186 19.8905 2.96666 20.2053 3.35498 20.2053H20.6181C21.0064 20.2053 21.3212 19.8905 21.3212 19.5022C21.3212 19.1138 21.0064 18.799 20.6181 18.799H3.35498Z" fill="#E5E5E5"/>
</svg>
