<svg width="24" height="24" viewBox="0 0 24 24" fill="none" xmlns="http://www.w3.org/2000/svg">
<path fill-rule="evenodd" clip-rule="evenodd" d="M2.65173 4.47778C2.65173 4.08946 2.96653 3.77466 3.35486 3.77466H20.618C21.0063 3.77466 21.3211 4.08946 21.3211 4.47778C21.3211 4.86611 21.0063 5.18091 20.618 5.18091H3.35486C2.96653 5.18091 2.65173 4.86611 2.65173 4.47778ZM2.65173 11.9902C2.65173 11.6019 2.96653 11.2871 3.35486 11.2871H20.618C21.0063 11.2871 21.3211 11.6019 21.3211 11.9902C21.3211 12.3785 21.0063 12.6933 20.618 12.6933H3.35486C2.96653 12.6933 2.65173 12.3785 2.65173 11.9902ZM3.35486 18.7993C2.96653 18.7993 2.65173 19.1141 2.65173 19.5024C2.65173 19.8907 2.96653 20.2055 3.35486 20.2055H20.618C21.0063 20.2055 21.3211 19.8907 21.3211 19.5024C21.3211 19.1141 21.0063 18.7993 20.618 18.7993H3.35486Z" fill="#0E0E0E"/>
</svg>
