<svg width="80" height="80" viewBox="0 0 80 80" fill="none" xmlns="http://www.w3.org/2000/svg">
<path fill-rule="evenodd" clip-rule="evenodd" d="M17.7177 14.124C18.1573 13.6844 18.7534 13.4375 19.375 13.4375H60.3125C60.9341 13.4375 61.5302 13.6844 61.9698 14.124C62.4093 14.5635 62.6562 15.1597 62.6562 15.7812V22.7258C62.6562 24.0202 63.7056 25.0695 65 25.0695C66.2944 25.0695 67.3438 24.0202 67.3438 22.7258V15.7812C67.3438 13.9164 66.603 12.128 65.2843 10.8094C63.9657 9.49079 62.1773 8.75 60.3125 8.75H19.375C17.5102 8.75 15.7218 9.49079 14.4032 10.8094C13.0845 12.128 12.3438 13.9164 12.3438 15.7812V64.2188C12.3438 66.0836 13.0845 67.872 14.4032 69.1906C15.7218 70.5092 17.5102 71.25 19.375 71.25H30C31.2944 71.25 32.3438 70.2007 32.3438 68.9062C32.3438 67.6118 31.2944 66.5625 30 66.5625H19.375C18.7534 66.5625 18.1573 66.3156 17.7177 65.876C17.2782 65.4365 17.0312 64.8404 17.0312 64.2188V15.7812C17.0312 15.1596 17.2782 14.5635 17.7177 14.124ZM54.0625 34.1C57.8401 34.0996 61.501 35.4091 64.4214 37.8054C67.3418 40.2016 69.3409 43.5363 70.0782 47.2413C70.8155 50.9463 70.2453 54.7923 68.4648 58.1241C66.6843 61.4558 63.8036 64.067 60.3136 65.5129C56.8236 66.9588 52.9403 67.1498 49.3252 66.0534C45.7102 64.9571 42.5872 62.6411 40.4882 59.5002C38.3893 56.3593 37.4444 52.5879 37.8145 48.8284C38.1847 45.0689 39.8469 41.5541 42.518 38.8828C44.0305 37.362 45.8296 36.1562 47.8112 35.3352C49.7928 34.5143 51.9176 34.0944 54.0625 34.1ZM54.0625 29.4125C42.4555 29.4125 33.0469 38.8219 33.0469 50.4281C33.0469 62.0344 42.4562 71.4437 54.0625 71.4437C65.6688 71.4437 75.0781 62.0344 75.0781 50.4281C75.0781 38.8219 65.6695 29.4125 54.0625 29.4125ZM54.0555 37.7961C55.3499 37.7961 56.3992 38.8454 56.3992 40.1399V49.6604L62.644 49.6797C63.9384 49.6838 64.9845 50.7363 64.9805 52.0307C64.9765 53.3252 63.9239 54.3712 62.6295 54.3672L54.0482 54.3407C52.7566 54.3367 51.7117 53.2885 51.7117 51.9969V40.1399C51.7117 38.8454 52.7611 37.7961 54.0555 37.7961Z" fill="#49494D"/>
</svg>
