<svg width="16" height="16" viewBox="0 0 16 16" fill="none" xmlns="http://www.w3.org/2000/svg">
<path fill-rule="evenodd" clip-rule="evenodd" d="M3.57605 3.55331C3.66396 3.4654 3.78319 3.41602 3.90751 3.41602H9.50001C9.75889 3.41602 9.96876 3.20615 9.96876 2.94727C9.96876 2.68838 9.75889 2.47852 9.50001 2.47852H3.90751C3.53455 2.47852 3.17686 2.62667 2.91314 2.8904C2.64942 3.15412 2.50126 3.5118 2.50126 3.88477V12.0624C2.50126 12.4354 2.64942 12.7931 2.91314 13.0568C3.17686 13.3205 3.53455 13.4687 3.90751 13.4687H12.0852C12.4581 13.4687 12.8158 13.3205 13.0795 13.0568C13.3433 12.7931 13.4914 12.4354 13.4914 12.0624V6.49992C13.4914 6.24104 13.2815 6.03117 13.0227 6.03117C12.7638 6.03117 12.5539 6.24104 12.5539 6.49992V12.0624C12.5539 12.1867 12.5045 12.306 12.4166 12.3939C12.3287 12.4818 12.2095 12.5312 12.0852 12.5312H3.90751C3.78319 12.5312 3.66396 12.4818 3.57605 12.3939C3.48815 12.306 3.43876 12.1867 3.43876 12.0624V3.88477C3.43876 3.76045 3.48815 3.64122 3.57605 3.55331ZM13.3541 3.33137C13.5372 3.14831 13.5372 2.85151 13.3541 2.66846C13.1711 2.4854 12.8743 2.48541 12.6912 2.66847L7.67995 7.67987C7.4969 7.86293 7.4969 8.15973 7.67996 8.34279C7.86302 8.52584 8.15982 8.52584 8.34287 8.34278L13.3541 3.33137Z" fill="#919899"/>
</svg>
