<svg width="24" height="24" viewBox="0 0 24 24" fill="none" xmlns="http://www.w3.org/2000/svg">
<path fill-rule="evenodd" clip-rule="evenodd" d="M11.9948 4.03646L5.12203 8.01625V15.9805L11.9951 19.9595L18.8681 15.9805V8.01625L11.9948 4.03646ZM11.3135 2.80609C11.5206 2.68614 11.7557 2.623 11.9951 2.62305H11.9958C12.2351 2.623 12.4702 2.68614 12.6773 2.80609L19.5956 6.81179C19.8022 6.9312 19.9737 7.10282 20.093 7.30946C20.2123 7.51609 20.2752 7.75046 20.2753 7.98906V16.007C20.2752 16.2456 20.2123 16.48 20.093 16.6866C19.9737 16.8933 19.8022 17.0649 19.5956 17.1843L12.6766 21.19C12.4695 21.31 12.2344 21.3732 11.9951 21.3732C11.7557 21.3732 11.5206 21.31 11.3135 21.19L4.39453 17.1843C4.18796 17.0649 4.01642 16.8933 3.89712 16.6866C3.77782 16.48 3.71496 16.2456 3.71484 16.007V7.98906C3.71496 7.75046 3.77782 7.51609 3.89712 7.30946C4.01642 7.10282 4.18796 6.9312 4.39453 6.81179L11.3135 2.80609ZM13.1694 10.2442C12.8226 10.0124 12.4147 9.88867 11.9975 9.88867C11.4383 9.88929 10.9021 10.1117 10.5067 10.5072C10.1112 10.9026 9.8888 11.4388 9.88818 11.998C9.88818 12.4152 10.0119 12.8231 10.2437 13.17C10.4755 13.5168 10.8049 13.7872 11.1903 13.9469C11.5758 14.1065 11.9999 14.1483 12.4091 14.0669C12.8182 13.9855 13.1941 13.7846 13.4891 13.4896C13.7841 13.1946 13.985 12.8187 14.0664 12.4096C14.1478 12.0004 14.106 11.5763 13.9463 11.1908C13.7867 10.8054 13.5163 10.4759 13.1694 10.2442ZM10.0444 9.07491C10.6225 8.68861 11.3022 8.48242 11.9975 8.48242C12.4592 8.48242 12.9164 8.57336 13.3429 8.75003C13.7694 8.92671 14.157 9.18567 14.4835 9.51212C14.8099 9.83858 15.0689 10.2261 15.2455 10.6527C15.4222 11.0792 15.5132 11.5364 15.5132 11.998C15.5132 12.6934 15.307 13.3731 14.9207 13.9512C14.5344 14.5294 13.9853 14.98 13.3429 15.2461C12.7005 15.5121 11.9936 15.5818 11.3117 15.4461C10.6297 15.3105 10.0033 14.9756 9.51163 14.484C9.01997 13.9923 8.68514 13.3659 8.54949 12.6839C8.41384 12.0019 8.48346 11.2951 8.74955 10.6527C9.01563 10.0103 9.46624 9.46121 10.0444 9.07491Z" fill="#0E0E0E"/>
</svg>
