<svg width="16" height="16" viewBox="0 0 16 16" fill="none" xmlns="http://www.w3.org/2000/svg">
<path d="M13.1152 11.5732C13.9193 10.4277 14.3156 9.04535 14.2407 7.64776C14.1657 6.25016 13.6238 4.91817 12.7018 3.86518C11.7798 2.81218 10.5311 2.09913 9.15562 1.84027C7.78016 1.5814 6.35763 1.79169 5.11591 2.43746C3.87419 3.08323 2.88517 4.1271 2.30728 5.40183C1.72939 6.67655 1.59608 8.10836 1.92872 9.46786C2.26136 10.8274 3.04069 12.0359 4.14186 12.8998C5.24303 13.7637 6.60229 14.2329 8.00189 14.2324H8.01033C9.44661 14.2323 10.8386 13.7352 11.95 12.8254L11.4688 12.0057C10.5083 12.8373 9.28033 13.295 8.00986 13.2949H8.00267C6.95335 13.2949 5.9276 12.9838 5.05512 12.4008C4.18264 11.8178 3.50262 10.9892 3.10107 10.0198C2.69951 9.05033 2.59444 7.98358 2.79916 6.95441C3.00387 5.92525 3.50916 4.97991 4.25115 4.23793C4.99313 3.49595 5.93847 2.99065 6.96763 2.78593C7.99679 2.58122 9.06354 2.68629 10.033 3.08785C11.0024 3.48941 11.831 4.16942 12.414 5.0419C12.997 5.91438 13.3081 6.94014 13.3081 7.98946C13.3081 7.99477 13.3081 7.99993 13.3081 8.00509L11.0047 8.00071L13.1152 11.5732Z" fill="#919899"/>
</svg>
