<svg width="16" height="16" viewBox="0 0 16 16" fill="none" xmlns="http://www.w3.org/2000/svg">
<path fill-rule="evenodd" clip-rule="evenodd" d="M8 2.68945C8.71025 2.68796 9.41351 2.8298 10.0677 3.10648C10.699 3.37327 11.2726 3.76006 11.7566 4.24539C12.2419 4.72935 12.6287 5.30293 12.8955 5.9343C13.1721 6.58845 13.314 7.2917 13.3125 8.00195C13.314 8.71221 13.1721 9.41546 12.8955 10.0696C12.6287 10.701 12.2419 11.2745 11.7566 11.7585C11.2726 12.2438 10.699 12.6305 10.0677 12.8973C9.41354 13.1741 8.71027 13.316 8 13.3145C7.28973 13.316 6.58646 13.1741 5.93234 12.8973C5.301 12.6305 4.72743 12.2438 4.24344 11.7585C3.75811 11.2745 3.37132 10.701 3.10453 10.0696C2.82785 9.41546 2.68601 8.71221 2.6875 8.00195C2.68601 7.2917 2.82785 6.58845 3.10453 5.9343C3.3713 5.30293 3.75809 4.72935 4.24344 4.24539C4.72742 3.76006 5.30099 3.37327 5.93234 3.10648C6.58649 2.8298 7.28975 2.68796 8 2.68945ZM8 1.75195C4.54813 1.75195 1.75 4.55008 1.75 8.00195C1.75 11.4538 4.54813 14.252 8 14.252C11.4519 14.252 14.25 11.4535 14.25 8.00195C14.25 4.55039 11.4519 1.75195 8 1.75195ZM9.57813 5.07476C9.15531 4.70351 8.59656 4.50039 8.00375 4.50039C7.41094 4.50039 6.85219 4.70507 6.42875 5.07476C5.98844 5.46007 5.74578 5.97804 5.74578 6.53257V6.63992C5.74587 6.66981 5.75778 6.69846 5.77892 6.7196C5.80006 6.74074 5.8287 6.75265 5.8586 6.75273H6.5361C6.56599 6.75265 6.59464 6.74074 6.61578 6.7196C6.63691 6.69846 6.64883 6.66981 6.64891 6.63992V6.53257C6.64891 5.91023 7.25719 5.40367 8.00375 5.40367C8.75031 5.40367 9.35938 5.91023 9.35938 6.53257C9.35938 6.97148 9.04891 7.37382 8.56766 7.55867C8.26989 7.67239 8.01354 7.87362 7.83235 8.13586C7.64816 8.40571 7.55009 8.72507 7.5511 9.05179V9.35523C7.55118 9.38514 7.56309 9.4138 7.58422 9.43497C7.60535 9.45613 7.634 9.46808 7.66391 9.4682H8.34141C8.37132 9.46808 8.39996 9.45613 8.4211 9.43497C8.44223 9.4138 8.45414 9.38514 8.45422 9.35523V9.03492C8.45497 8.89786 8.49701 8.76421 8.57486 8.65141C8.65271 8.53861 8.76275 8.45189 8.89063 8.40257C9.72328 8.08226 10.2611 7.34836 10.2611 6.53257C10.2625 5.97804 10.0197 5.46007 9.57938 5.07476H9.57813ZM7.60461 11.335C7.49875 11.2291 7.43926 11.0856 7.43922 10.9359C7.43926 10.7861 7.49875 10.6426 7.60461 10.5367C7.71047 10.4309 7.85404 10.3714 8.00375 10.3713C8.15347 10.3713 8.29706 10.4308 8.40294 10.5367C8.50881 10.6425 8.56828 10.7861 8.56828 10.9359C8.56828 11.0856 8.50881 11.2292 8.40294 11.335C8.29706 11.4409 8.15347 11.5004 8.00375 11.5004C7.85404 11.5003 7.71047 11.4409 7.60461 11.335Z" fill="#919899"/>
</svg>
