<svg width="24" height="24" viewBox="0 0 24 24" fill="none" xmlns="http://www.w3.org/2000/svg">
<path fill-rule="evenodd" clip-rule="evenodd" d="M17.3275 6.09447C15.8695 4.77192 13.9722 4.03804 12.0038 4.03516C10.9383 4.03289 9.88344 4.24573 8.90227 4.66094C7.08892 5.42687 5.62468 6.839 4.79356 8.62341C3.96245 10.4078 3.82371 12.4373 4.40426 14.3182C4.9848 16.1992 6.24325 17.7974 7.9355 18.803C9.62775 19.8086 11.6332 20.1498 13.5627 19.7605C15.4923 19.3711 17.2085 18.279 18.3785 16.6959C19.5484 15.1129 20.0887 13.1517 19.8945 11.1928C19.7003 9.23394 18.7855 7.41701 17.3275 6.09447ZM2.62875 12.0039C2.62875 6.82609 6.82594 2.62891 12.0038 2.62891C17.1816 2.62891 21.3788 6.82609 21.3788 12.0039C21.3788 17.1817 17.1816 21.3789 12.0038 21.3789C6.82594 21.3789 2.62875 17.1817 2.62875 12.0039ZM12.7031 7.4139C12.7031 7.02558 12.3883 6.71078 12 6.71078C11.6117 6.71078 11.2969 7.02558 11.2969 7.4139V12.7033C11.2969 13.0908 11.6104 13.4052 11.9978 13.4064L15.8254 13.4181C16.2137 13.4193 16.5295 13.1055 16.5307 12.7171C16.5319 12.3288 16.2181 12.0131 15.8297 12.0119L12.7031 12.0023V7.4139Z" fill="#0E0E0E"/>
</svg>
