<svg width="14" height="10" viewBox="0 0 14 10" fill="none" xmlns="http://www.w3.org/2000/svg">
<path fill-rule="evenodd" clip-rule="evenodd" d="M13.1077 5.21027C13.1342 5.1473 13.1489 5.07809 13.1489 5.00545C13.1489 4.93456 13.1349 4.86692 13.1096 4.80517C13.0838 4.74238 13.0455 4.68355 12.9945 4.63256L8.62965 0.267737C8.42371 0.0617959 8.08981 0.0617959 7.88387 0.267736C7.67793 0.473677 7.67793 0.807573 7.88387 1.01351L11.3485 4.47811L1.37862 4.47811C1.08737 4.47811 0.85127 4.71421 0.85127 5.00545C0.85127 5.2967 1.08737 5.5328 1.37861 5.5328L11.3485 5.5328L7.88386 8.99757C7.67793 9.20351 7.67793 9.53741 7.88388 9.74335C8.08982 9.94928 8.42372 9.94927 8.62965 9.74333L12.993 5.37981C12.9973 5.3755 13.0016 5.3711 13.0058 5.36664C13.05 5.31969 13.084 5.26662 13.1077 5.21027Z" fill="#0E0E0E"/>
</svg>
