<svg width="16" height="16" viewBox="0 0 16 16" fill="none" xmlns="http://www.w3.org/2000/svg">
<path d="M2.7867 10.9995C2.5331 10.5609 2.33598 10.0921 2.2 9.60411C2.49593 9.4536 2.74446 9.22416 2.91809 8.94117C3.09172 8.65818 3.18369 8.33268 3.18381 8.00067C3.18393 7.66866 3.09221 7.34309 2.91879 7.05997C2.74538 6.77685 2.49702 6.54722 2.2012 6.39648C2.47237 5.41595 2.9887 4.52059 3.70153 3.79475C3.97994 3.97575 4.303 4.07619 4.63496 4.08496C4.96691 4.09373 5.29482 4.01049 5.5824 3.84444C5.86997 3.67839 6.106 3.43601 6.26436 3.14413C6.42271 2.85224 6.49722 2.52224 6.47964 2.19063C7.46473 1.93605 8.49842 1.93646 9.48331 2.19183C9.46588 2.52343 9.54054 2.85339 9.69902 3.14519C9.85749 3.43699 10.0936 3.67925 10.3812 3.84517C10.6689 4.0111 10.9968 4.09421 11.3287 4.08531C11.6607 4.07641 11.9837 3.97584 12.262 3.79475C12.6094 4.14868 12.9177 4.55121 13.1769 5.00053C13.4366 5.44985 13.631 5.91837 13.7635 6.39588C13.4676 6.5464 13.2191 6.77584 13.0455 7.05883C12.8718 7.34182 12.7799 7.66732 12.7797 7.99933C12.7796 8.33134 12.8713 8.65691 13.0448 8.94003C13.2182 9.22315 13.4665 9.45278 13.7623 9.60352C13.4912 10.584 12.9748 11.4794 12.262 12.2053C11.9836 12.0243 11.6605 11.9238 11.3286 11.915C10.9966 11.9063 10.6687 11.9895 10.3812 12.1556C10.0936 12.3216 9.85755 12.564 9.69919 12.8559C9.54084 13.1478 9.46633 13.4778 9.48391 13.8094C8.49882 14.0639 7.46513 14.0635 6.48024 13.8082C6.49767 13.4766 6.42301 13.1466 6.26453 12.8548C6.10605 12.563 5.86993 12.3207 5.5823 12.1548C5.29467 11.9889 4.96674 11.9058 4.6348 11.9147C4.30287 11.9236 3.97986 12.0242 3.70153 12.2053C3.34699 11.8435 3.03961 11.4383 2.7867 10.9995ZM6.18209 11.117C6.82136 11.4858 7.302 12.0775 7.53185 12.7788C7.8312 12.8069 8.13175 12.8075 8.43109 12.7794C8.66109 12.078 9.14197 11.4862 9.78145 11.1176C10.4205 10.7479 11.1735 10.6272 11.8961 10.7787C12.07 10.5339 12.22 10.273 12.3448 10C11.8525 9.45021 11.5806 8.73799 11.5811 8C11.5811 7.24413 11.8631 6.53806 12.3448 5.99996C12.2191 5.72709 12.0685 5.46643 11.8949 5.22129C11.1728 5.37265 10.4202 5.25217 9.78145 4.88295C9.14219 4.51424 8.66155 3.92251 8.43169 3.22125C8.13235 3.19305 7.8318 3.19245 7.53245 3.22065C7.30245 3.92201 6.82158 4.51375 6.18209 4.88235C5.54308 5.25208 4.79003 5.37278 4.06747 5.22129C3.89384 5.46622 3.74361 5.72692 3.61875 5.99996C4.111 6.54979 4.38294 7.26201 4.38241 8C4.38241 8.75587 4.10046 9.46194 3.61875 10C3.74441 10.2729 3.89502 10.5336 4.06867 10.7787C4.79077 10.6273 5.54333 10.7478 6.18209 11.117ZM7.98177 9.79968C7.50447 9.79968 7.04671 9.61007 6.70921 9.27257C6.3717 8.93506 6.18209 8.4773 6.18209 8C6.18209 7.5227 6.3717 7.06494 6.70921 6.72743C7.04671 6.38993 7.50447 6.20032 7.98177 6.20032C8.45908 6.20032 8.91683 6.38993 9.25434 6.72743C9.59185 7.06494 9.78145 7.5227 9.78145 8C9.78145 8.4773 9.59185 8.93506 9.25434 9.27257C8.91683 9.61007 8.45908 9.79968 7.98177 9.79968ZM7.98177 8.59989C8.14088 8.59989 8.29346 8.53669 8.40596 8.42419C8.51846 8.31169 8.58167 8.1591 8.58167 8C8.58167 7.8409 8.51846 7.68831 8.40596 7.57581C8.29346 7.46331 8.14088 7.40011 7.98177 7.40011C7.82267 7.40011 7.67009 7.46331 7.55758 7.57581C7.44508 7.68831 7.38188 7.8409 7.38188 8C7.38188 8.1591 7.44508 8.31169 7.55758 8.42419C7.67009 8.53669 7.82267 8.59989 7.98177 8.59989Z" fill="#919899"/>
</svg>
