<svg width="16" height="16" viewBox="0 0 16 16" fill="none" xmlns="http://www.w3.org/2000/svg">
<path d="M4.12889 7.99996H2.91232C2.91232 6.31106 4.28639 4.93699 5.97529 4.93684C6.02076 4.93684 9.19435 4.93668 11.0922 4.93668L9.78342 3.52121C9.55529 3.27449 9.57045 2.88965 9.81701 2.66168C10.0637 2.43356 10.4486 2.44871 10.6765 2.69527L12.9297 5.13199C13.2884 5.51996 13.0158 6.14949 12.4873 6.15324C12.4844 6.15324 12.4819 6.15324 5.97529 6.15356C4.95717 6.15356 4.12889 6.98184 4.12889 7.99996Z" fill="#919899"/>
<path d="M11.876 8.00195H13.0925C13.0925 9.69087 11.7185 11.0649 10.0296 11.0651C9.98409 11.0651 6.81049 11.0652 4.91268 11.0652L6.22143 12.4807C6.44956 12.7274 6.4344 13.1123 6.18784 13.3403C5.94112 13.5684 5.55628 13.5532 5.32831 13.3065L3.07518 10.8699C2.71643 10.482 2.98909 9.85243 3.51753 9.84868C3.52049 9.84868 3.52299 9.84868 10.0296 9.84837C11.0477 9.84837 11.876 9.02008 11.876 8.00195Z" fill="#919899"/>
</svg>
