<svg width="16" height="16" viewBox="0 0 16 16" fill="none" xmlns="http://www.w3.org/2000/svg">
<path d="M7.99992 1.33301C4.31659 1.33301 1.33325 4.31634 1.33325 7.99967C1.3325 9.39919 1.77246 10.7634 2.59073 11.8988C3.409 13.0342 4.56402 13.8831 5.89192 14.325C6.22525 14.383 6.34992 14.183 6.34992 14.0077C6.34992 13.8497 6.34125 13.325 6.34125 12.7663C4.66659 13.075 4.23325 12.3583 4.09992 11.983C4.02459 11.791 3.69992 11.1997 3.41659 11.041C3.18325 10.9163 2.84992 10.6077 3.40792 10.5997C3.93325 10.591 4.30792 11.083 4.43325 11.283C5.03325 12.291 5.99192 12.0077 6.37459 11.833C6.43325 11.3997 6.60792 11.1083 6.79992 10.9417C5.31659 10.775 3.76659 10.1997 3.76659 7.64967C3.76659 6.92434 4.02459 6.32501 4.44992 5.85767C4.38325 5.69101 4.14992 5.00767 4.51659 4.09101C4.51659 4.09101 5.07459 3.91634 6.34992 4.77501C6.89263 4.62438 7.45336 4.54857 8.01659 4.54967C8.58325 4.54967 9.14992 4.62434 9.68325 4.77434C10.9579 3.90767 11.5166 4.09167 11.5166 4.09167C11.8833 5.00834 11.6499 5.69167 11.5833 5.85834C12.0079 6.32501 12.2666 6.91634 12.2666 7.64967C12.2666 10.2083 10.7086 10.775 9.22525 10.9417C9.46659 11.1497 9.67525 11.5497 9.67525 12.175C9.67525 13.0663 9.66659 13.783 9.66659 14.0083C9.66659 14.183 9.79192 14.391 10.1253 14.3243C11.4486 13.8775 12.5985 13.027 13.4132 11.8924C14.2278 10.7579 14.6662 9.39642 14.6666 7.99967C14.6666 4.31634 11.6833 1.33301 7.99992 1.33301Z" fill="#C7CBCB"/>
</svg>
