<svg width="16" height="16" viewBox="0 0 16 16" fill="none" xmlns="http://www.w3.org/2000/svg">
<path d="M8 2C9.6302 2 9.8336 2.006 10.4732 2.036C11.1122 2.066 11.5472 2.1662 11.93 2.315C12.326 2.4674 12.6596 2.6738 12.9932 3.0068C13.2983 3.30674 13.5344 3.66955 13.685 4.07C13.8332 4.4522 13.934 4.8878 13.964 5.5268C13.9922 6.1664 14 6.3698 14 8C14 9.6302 13.994 9.8336 13.964 10.4732C13.934 11.1122 13.8332 11.5472 13.685 11.93C13.5348 12.3307 13.2987 12.6936 12.9932 12.9932C12.6932 13.2982 12.3304 13.5343 11.93 13.685C11.5478 13.8332 11.1122 13.934 10.4732 13.964C9.8336 13.9922 9.6302 14 8 14C6.3698 14 6.1664 13.994 5.5268 13.964C4.8878 13.934 4.4528 13.8332 4.07 13.685C3.6694 13.5347 3.30652 13.2986 3.0068 12.9932C2.70164 12.6933 2.46556 12.3305 2.315 11.93C2.1662 11.5478 2.066 11.1122 2.036 10.4732C2.0078 9.8336 2 9.6302 2 8C2 6.3698 2.006 6.1664 2.036 5.5268C2.066 4.8872 2.1662 4.4528 2.315 4.07C2.46514 3.66931 2.70128 3.30639 3.0068 3.0068C3.3066 2.70154 3.66946 2.46544 4.07 2.315C4.4528 2.1662 4.8872 2.066 5.5268 2.036C6.1664 2.0078 6.3698 2 8 2ZM8 5C7.20435 5 6.44129 5.31607 5.87868 5.87868C5.31607 6.44129 5 7.20435 5 8C5 8.79565 5.31607 9.55871 5.87868 10.1213C6.44129 10.6839 7.20435 11 8 11C8.79565 11 9.55871 10.6839 10.1213 10.1213C10.6839 9.55871 11 8.79565 11 8C11 7.20435 10.6839 6.44129 10.1213 5.87868C9.55871 5.31607 8.79565 5 8 5ZM11.9 4.85C11.9 4.65109 11.821 4.46032 11.6803 4.31967C11.5397 4.17902 11.3489 4.1 11.15 4.1C10.9511 4.1 10.7603 4.17902 10.6197 4.31967C10.479 4.46032 10.4 4.65109 10.4 4.85C10.4 5.04891 10.479 5.23968 10.6197 5.38033C10.7603 5.52098 10.9511 5.6 11.15 5.6C11.3489 5.6 11.5397 5.52098 11.6803 5.38033C11.821 5.23968 11.9 5.04891 11.9 4.85ZM8 6.2C8.47739 6.2 8.93523 6.38964 9.27279 6.72721C9.61036 7.06477 9.8 7.52261 9.8 8C9.8 8.47739 9.61036 8.93523 9.27279 9.27279C8.93523 9.61036 8.47739 9.8 8 9.8C7.52261 9.8 7.06477 9.61036 6.72721 9.27279C6.38964 8.93523 6.2 8.47739 6.2 8C6.2 7.52261 6.38964 7.06477 6.72721 6.72721C7.06477 6.38964 7.52261 6.2 8 6.2Z" fill="#C7CBCB"/>
</svg>
