<svg width="16" height="16" viewBox="0 0 16 16" fill="none" xmlns="http://www.w3.org/2000/svg">
<path d="M14.6365 3.95339C14.1369 4.17611 13.6071 4.32058 13.0654 4.3868C13.6372 4.04368 14.0646 3.50794 14.2693 2.87589C13.7396 3.18289 13.1557 3.40561 12.5296 3.53202C11.6869 2.62909 10.3385 2.40636 9.24296 2.99026C8.1474 3.57416 7.58758 4.82021 7.8705 6.02412C5.60714 5.91577 3.59059 4.82021 2.24221 3.17085C2.00142 3.59222 1.86899 4.06776 1.87501 4.54933C1.87501 5.50042 2.35658 6.33112 3.09096 6.82472C2.65756 6.81268 2.23017 6.69229 1.85093 6.48161V6.51772C1.85093 7.81795 2.76591 8.93759 4.04206 9.19643C3.63874 9.30478 3.22339 9.32284 2.81406 9.24459C3.17524 10.3582 4.19856 11.1227 5.37238 11.1407C4.40323 11.8992 3.21136 12.3085 1.98336 12.3085C1.76666 12.3085 1.54996 12.2965 1.33325 12.2724C2.58532 13.073 4.04206 13.5004 5.52889 13.5004C10.5552 13.5004 13.3062 9.33488 13.3062 5.72916C13.3062 5.61479 13.3062 5.4944 13.3001 5.38003C13.8359 4.99478 14.2994 4.51321 14.6666 3.96543L14.6365 3.95339Z" fill="#7524F9"/>
</svg>
