<svg width="80" height="80" viewBox="0 0 80 80" fill="none" xmlns="http://www.w3.org/2000/svg">
<path fill-rule="evenodd" clip-rule="evenodd" d="M17.7177 14.124C18.1573 13.6844 18.7534 13.4375 19.375 13.4375H60.3125C60.9341 13.4375 61.5302 13.6844 61.9698 14.124C62.4093 14.5635 62.6562 15.1597 62.6562 15.7812V25.9484C62.6562 27.2429 63.7056 28.2922 65 28.2922C66.2944 28.2922 67.3438 27.2429 67.3438 25.9484V15.7812C67.3438 13.9164 66.603 12.128 65.2843 10.8094C63.9657 9.49079 62.1773 8.75 60.3125 8.75H19.375C17.5102 8.75 15.7218 9.49079 14.4032 10.8094C13.0845 12.128 12.3438 13.9164 12.3438 15.7812V64.2188C12.3438 66.0836 13.0845 67.872 14.4032 69.1906C15.7218 70.5092 17.5102 71.25 19.375 71.25H30C31.2944 71.25 32.3438 70.2007 32.3438 68.9062C32.3438 67.6118 31.2944 66.5625 30 66.5625H19.375C18.7534 66.5625 18.1573 66.3156 17.7177 65.876C17.2782 65.4365 17.0312 64.8404 17.0312 64.2188V15.7812C17.0312 15.1596 17.2782 14.5635 17.7177 14.124ZM52.9992 37.7005L50.0328 44.1305C49.697 44.8585 49.1801 45.4881 48.5315 45.9593C47.8829 46.4305 47.1243 46.7275 46.3281 46.8219L39.2899 47.6563L44.4914 52.4649C45.0801 53.0091 45.5193 53.6952 45.7672 54.4576C46.015 55.22 46.0632 56.0332 45.9071 56.8195L44.5266 63.7727L50.7086 60.3125C51.4082 59.921 52.1964 59.7154 52.9981 59.7154C53.7997 59.7154 54.588 59.921 55.2875 60.3125L61.4696 63.7742L60.0891 56.8211C59.9329 56.0348 59.9809 55.2217 60.2286 54.4593C60.4763 53.6969 60.9154 53.0107 61.5039 52.4664L66.7063 47.6563L59.668 46.8188C58.872 46.7243 58.1135 46.4272 57.4651 45.956C56.8166 45.4848 56.2998 44.8552 55.9641 44.1274L52.9992 37.7005ZM52.0015 29.3616C52.2989 29.1712 52.6451 29.0711 52.9981 29.0734C53.3512 29.0712 53.6975 29.1713 53.995 29.3616C54.2934 29.5526 54.53 29.8263 54.6758 30.1492L60.2227 42.1664L73.3657 43.7258C74.9344 43.9125 75.5641 45.8508 74.4039 46.9234L64.6875 55.9078L67.2657 68.8867C67.5078 70.1039 66.543 71.1039 65.4492 71.1039C65.1325 71.1027 64.8214 71.0199 64.5461 70.8633L52.9985 64.3992L41.4516 70.8633C41.176 71.02 40.8647 71.1028 40.5477 71.1039C39.4547 71.1039 38.4899 70.1039 38.7313 68.8867L41.3094 55.907L31.5922 46.9227C30.4328 45.85 31.0625 43.9117 32.6313 43.725L45.7742 42.1664L51.3211 30.1492C51.4667 29.8263 51.7031 29.5526 52.0015 29.3616ZM52.9981 29.0734C52.9993 29.0734 53.0004 29.0734 53.0016 29.0735H52.9946C52.9957 29.0734 52.9969 29.0734 52.9981 29.0734Z" fill="#C7CBCB"/>
</svg>
