<svg width="22" height="22" viewBox="0 0 22 22" fill="none" xmlns="http://www.w3.org/2000/svg">
<path d="M11.0021 4.45004L12.7832 8.311C12.8755 8.51119 13.0177 8.68435 13.1961 8.81393C13.3744 8.94352 13.583 9.02518 13.802 9.05113L18.0239 9.55194L14.9022 12.439C14.7403 12.5887 14.6195 12.7773 14.5514 12.987C14.4832 13.1967 14.47 13.4203 14.5129 13.6366L15.3413 17.8065L11.6318 15.7296C11.4394 15.6218 11.2226 15.5653 11.0021 15.5653C10.7816 15.5653 10.5648 15.6218 10.3724 15.7296L6.66273 17.806L7.49116 13.6361C7.53404 13.42 7.52079 13.1964 7.45268 12.9868C7.38456 12.7773 7.26385 12.5887 7.10208 12.439L3.9804 9.55194L8.2023 9.05113C8.42123 9.02518 8.62985 8.94352 8.80822 8.81393C8.98658 8.68435 9.12874 8.51119 9.22109 8.311L11.0021 4.45004ZM11.0021 2.42191C10.8572 2.42056 10.7151 2.4614 10.593 2.53946C10.4709 2.61751 10.3742 2.7294 10.3146 2.86148L8.0504 7.77109L2.68146 8.40789C2.04101 8.48395 1.7832 9.27608 2.25714 9.71414L6.22681 13.3843L5.17408 18.6871C5.0746 19.1851 5.46884 19.5933 5.9155 19.5933C6.04493 19.5929 6.17207 19.5591 6.2846 19.4951L11.0021 16.8543L15.7197 19.4951C15.8322 19.5591 15.9593 19.5929 16.0888 19.5933C16.5352 19.5933 16.9295 19.1851 16.8308 18.6877L15.7773 13.3843L19.7471 9.71414C20.2209 9.27608 19.9635 8.48395 19.3226 8.40789L13.9537 7.77109L11.6888 2.86148C11.6292 2.72938 11.5325 2.61748 11.4104 2.53942C11.2883 2.46136 11.1462 2.42053 11.0013 2.42191H11.0021Z" fill="#0E0E0E"/>
</svg>
