<svg width="22" height="22" viewBox="0 0 22 22" fill="none" xmlns="http://www.w3.org/2000/svg">
<path fill-rule="evenodd" clip-rule="evenodd" d="M15.884 5.58692C14.5475 4.37459 12.8083 3.70186 11.0039 3.69922C10.0273 3.69714 9.06029 3.89225 8.16088 4.27285C6.49864 4.97495 5.15642 6.26941 4.39456 7.90512C3.63271 9.54083 3.50553 11.4012 4.0377 13.1254C4.56987 14.8496 5.72345 16.3146 7.27467 17.2364C8.8259 18.1582 10.6642 18.471 12.433 18.1141C14.2018 17.7572 15.775 16.7561 16.8474 15.3049C17.9199 13.8538 18.4151 12.056 18.2371 10.2604C18.0591 8.46477 17.2205 6.79925 15.884 5.58692ZM2.41016 11.0039C2.41016 6.25758 6.25758 2.41016 11.0039 2.41016C15.7502 2.41016 19.5977 6.25758 19.5977 11.0039C19.5977 15.7502 15.7502 19.5977 11.0039 19.5977C6.25758 19.5977 2.41016 15.7502 2.41016 11.0039ZM11.645 6.7964C11.645 6.44044 11.3564 6.15187 11.0005 6.15187C10.6445 6.15187 10.3559 6.44044 10.3559 6.7964V11.645C10.3559 12.0002 10.6433 12.2884 10.9985 12.2895L14.5071 12.3003C14.8631 12.3014 15.1525 12.0137 15.1536 11.6577C15.1547 11.3017 14.867 11.0123 14.5111 11.0112L11.645 11.0024V6.7964Z" fill="#7524F9"/>
</svg>
