<svg width="22" height="22" viewBox="0 0 22 22" fill="none" xmlns="http://www.w3.org/2000/svg">
<path fill-rule="evenodd" clip-rule="evenodd" d="M15.8835 5.58692C14.547 4.37459 12.8078 3.70186 11.0034 3.69922C10.0268 3.69714 9.0598 3.89225 8.16039 4.27285C6.49815 4.97495 5.15593 6.26941 4.39408 7.90512C3.63222 9.54083 3.50504 11.4012 4.03721 13.1254C4.56938 14.8496 5.72296 16.3146 7.27418 17.2364C8.82541 18.1582 10.6637 18.471 12.4325 18.1141C14.2013 17.7572 15.7745 16.7561 16.8469 15.3049C17.9194 13.8538 18.4146 12.056 18.2366 10.2604C18.0586 8.46477 17.22 6.79925 15.8835 5.58692ZM2.40967 11.0039C2.40967 6.25758 6.25709 2.41016 11.0034 2.41016C15.7497 2.41016 19.5972 6.25758 19.5972 11.0039C19.5972 15.7502 15.7497 19.5977 11.0034 19.5977C6.25709 19.5977 2.40967 15.7502 2.40967 11.0039ZM11.6445 6.7964C11.6445 6.44044 11.3559 6.15187 11 6.15187C10.644 6.15187 10.3554 6.44044 10.3554 6.7964V11.645C10.3554 12.0002 10.6428 12.2884 10.998 12.2895L14.5066 12.3003C14.8626 12.3014 15.152 12.0137 15.1531 11.6577C15.1542 11.3017 14.8665 11.0123 14.5106 11.0112L11.6445 11.0024V6.7964Z" fill="#E5E5E5"/>
</svg>
