<svg width="34" height="34" viewBox="0 0 34 34" fill="none" xmlns="http://www.w3.org/2000/svg">
<path d="M17 33.5C7.88705 33.5 0.5 26.1129 0.5 17C0.5 7.88705 7.88705 0.5 17 0.5C26.1129 0.5 33.5 7.88705 33.5 17C33.5 26.1129 26.1129 33.5 17 33.5ZM13.2215 29.6505C11.5936 26.1976 10.6506 22.4619 10.4446 18.65H3.9023C4.22337 21.1892 5.27497 23.5805 6.92934 25.5333C8.5837 27.4862 10.7696 28.9165 13.2215 29.6505ZM13.7495 18.65C13.9986 22.6743 15.1487 26.4545 17 29.7908C18.9013 26.3663 20.012 22.5596 20.2505 18.65H13.7495ZM30.0977 18.65H23.5554C23.3494 22.4619 22.4064 26.1976 20.7785 29.6505C23.2304 28.9165 25.4163 27.4862 27.0707 25.5333C28.725 23.5805 29.7766 21.1892 30.0977 18.65ZM3.9023 15.35H10.4446C10.6506 11.5381 11.5936 7.80238 13.2215 4.34945C10.7696 5.0835 8.5837 6.51384 6.92934 8.46669C5.27497 10.4195 4.22337 12.8108 3.9023 15.35ZM13.7512 15.35H20.2488C20.0108 11.4405 18.9008 7.63383 17 4.2092C15.0987 7.63369 13.988 11.4404 13.7495 15.35H13.7512ZM20.7785 4.34945C22.4064 7.80238 23.3494 11.5381 23.5554 15.35H30.0977C29.7766 12.8108 28.725 10.4195 27.0707 8.46669C25.4163 6.51384 23.2304 5.0835 20.7785 4.34945Z" fill="#0E0E0E"/>
</svg>
