<svg width="22" height="29" viewBox="0 0 22 29" fill="none" xmlns="http://www.w3.org/2000/svg">
<path fill-rule="evenodd" clip-rule="evenodd" d="M0.786661 10.8175C0.186083 10.0421 0.327224 8.92645 1.10191 8.32556L10.7767 0.821149C11.5514 0.220255 12.6663 0.361688 13.2669 1.13705C13.8674 1.91241 13.7263 3.02808 12.9516 3.62898L3.27679 11.1334C2.50211 11.7343 1.38724 11.5928 0.786661 10.8175ZM4.22572 16.7061C3.9727 15.7583 4.53516 14.7846 5.48202 14.5314L19.6601 10.7402C20.607 10.487 21.5797 11.0501 21.8327 11.998C22.0857 12.9458 21.5233 13.9194 20.5764 14.1726L6.3983 17.9639C5.45145 18.2171 4.47875 17.6539 4.22572 16.7061ZM5.59386 21.6708C4.64888 21.4105 3.6721 21.9663 3.41217 22.9122C3.15224 23.8581 3.70759 24.836 4.65257 25.0962L15.8263 28.1739C16.7713 28.4342 17.7481 27.8784 18.008 26.9325C18.2679 25.9866 17.7126 25.0087 16.7676 24.7484L5.59386 21.6708Z" fill="#9C60FF"/>
</svg>
